{
.appVersion = "3343";
.formatVersion = 3;
DisplayStrings = (
Z,
K,
V
);
axes = (
{
name = Pooling;
tag = POOL;
}
);
date = "2023-05-05 01:43:54 +0000";
familyName = Inkwater;
fontMaster = (
{
axesValues = (
0
);
id = m01;
metricValues = (
{
over = 16;
pos = 800;
},
{
over = 16;
pos = 700;
},
{
over = 16;
pos = 500;
},
{
over = -16;
},
{
over = -16;
pos = -200;
},
{
}
);
name = Regular;
},
{
axesValues = (
100
);
id = "0CE0EAA9-F711-497D-909D-736D4C3B0AC1";
metricValues = (
{
over = 16;
pos = 800;
},
{
over = 16;
pos = 700;
},
{
over = 16;
pos = 500;
},
{
over = -16;
},
{
over = -16;
pos = -200;
},
{
}
);
name = "More Water";
visible = 1;
}
);
glyphs = (
{
glyphname = A;
lastChange = "2025-10-03 15:09:26 +0000";
layers = (
{
layerId = m01;
shapes = (
{
closed = 1;
nodes = (
(615,181,o),
(632,207,o),
(623,231,c),
(615,256,o),
(624,278,o),
(617,303,c),
(547,466,o),
(597,590,o),
(543,605,c),
(529,609,o),
(517,446,o),
(504,440,c),
(486,432,o),
(479,404,o),
(460,398,c),
(423,389,o),
(392,409,o),
(356,398,c),
(352,411,o),
(340,398,o),
(310,423,c),
(300,440,o),
(293,448,o),
(292,447,c),
(299,459,o),
(299,466,o),
(304,480,c),
(311,502,o),
(318,520,o),
(330,539,c),
(343,561,o),
(361,587,o),
(376,607,c),
(397,633,o),
(410,639,o),
(408,648,c),
(416,653,o),
(428,659,o),
(435,668,c),
(461,675,o),
(467,666,o),
(488,654,c),
(500,648,o),
(513,604,o),
(519,594,c),
(513,456,o),
(537,362,o),
(547,362,c),
(538,-62,o),
(620,506,o),
(560,617,c),
(557,627,o),
(565,654,o),
(566,664,c),
(568,672,o),
(565,682,o),
(560,690,c),
(554,703,o),
(548,716,o),
(541,728,c),
(524,753,o),
(467,746,o),
(442,745,c),
(420,744,o),
(396,750,o),
(375,744,c),
(356,740,o),
(340,729,o),
(328,715,c),
(283,666,o),
(249,598,o),
(236,533,c),
(234,524,o),
(233,516,o),
(231,507,c),
(217,459,o),
(192,426,o),
(176,378,c),
(170,357,o),
(162,336,o),
(155,315,c),
(139,271,o),
(78,230,o),
(52,191,c),
(35,165,o),
(15,140,o),
(2,110,c),
(-4,97,o),
(0,66,o),
(2,52,c),
(5,26,o),
(53,14,o),
(76,4,c),
(119,-14,o),
(176,8,o),
(201,47,c),
(212,63,o),
(223,80,o),
(231,98,c),
(249,138,o),
(251,182,o),
(259,225,c),
(263,247,o),
(283,247,o),
(272,261,c),
(291,273,o),
(289,277,o),
(310,273,c),
(353,266,o),
(349,253,o),
(392,261,c),
(411,264,o),
(429,272,o),
(448,272,c),
(467,272,o),
(469,259,o),
(482,266,c),
(487,256,o),
(485,244,o),
(484,233,c),
(482,212,o),
(488,171,o),
(484,138,c),
(481,113,o),
(478,95,o),
(480,71,c),
(481,52,o),
(487,27,o),
(488,8,c),
(490,-7,o),
(499,-37,o),
(561,-37,c),
(576,-38,o),
(625,-24,o),
(631,-12,c),
(663,40,o),
(629,98,o),
(620,156,c)
);
},
{
closed = 1;
nodes = (
(569,80,o),
(570,83,o),
(576,84,c),
(581,85,o),
(588,84,o),
(591,82,c),
(594,80,o),
(594,78,o),
(595,75,c),
(596,72,o),
(598,69,o),
(598,66,c),
(599,63,o),
(600,59,o),
(600,56,c),
(600,53,o),
(599,50,o),
(600,47,c),
(601,45,o),
(594,43,o),
(589,43,c),
(582,43,o),
(578,45,o),
(578,47,c),
(577,50,o),
(578,53,o),
(578,56,c),
(578,58,o),
(578,61,o),
(577,64,c),
(576,67,o),
(575,70,o),
(574,73,c),
(573,74,o),
(573,75,o),
(573,76,c),
(572,77,o),
(572,77,o),
(572,78,c),
(572,78,o),
(571,78,o),
(571,79,c),
(572,78,o),
(572,78,o),
(571,79,c)
);
}
);
width = 664;
},
{
layerId = "0CE0EAA9-F711-497D-909D-736D4C3B0AC1";
shapes = (
{
closed = 1;
nodes = (
(615,181,o),
(617,207,o),
(608,231,c),
(600,256,o),
(587,278,o),
(580,303,c),
(569,342,o),
(587,446,o),
(533,461,c),
(519,465,o),
(507,456,o),
(494,450,c),
(476,442,o),
(458,437,o),
(439,431,c),
(402,422,o),
(366,409,o),
(330,398,c),
(294,387,o),
(252,391,o),
(240,433,c),
(239,431,o),
(239,430,o),
(238,429,c),
(245,441,o),
(235,458,o),
(240,472,c),
(247,494,o),
(264,512,o),
(276,531,c),
(289,553,o),
(300,574,o),
(315,594,c),
(336,620,o),
(365,638,o),
(393,655,c),
(401,660,o),
(409,665,o),
(417,668,c),
(443,675,o),
(477,669,o),
(498,657,c),
(510,651,o),
(518,644,o),
(524,634,c),
(525,632,o),
(542,594,o),
(543,612,c),
(543,620,o),
(533,634,o),
(531,641,c),
(528,651,o),
(527,660,o),
(528,670,c),
(530,678,o),
(534,682,o),
(529,690,c),
(523,703,o),
(517,716,o),
(510,728,c),
(493,753,o),
(467,746,o),
(442,745,c),
(420,744,o),
(396,750,o),
(375,744,c),
(356,740,o),
(340,729,o),
(328,715,c),
(283,666,o),
(249,598,o),
(236,533,c),
(234,524,o),
(233,516,o),
(231,507,c),
(217,459,o),
(187,417,o),
(171,369,c),
(165,348,o),
(157,327,o),
(150,306,c),
(134,262,o),
(115,221,o),
(89,182,c),
(72,156,o),
(52,131,o),
(39,101,c),
(33,88,o),
(29,74,o),
(31,60,c),
(34,34,o),
(53,14,o),
(76,4,c),
(119,-14,o),
(143,8,o),
(168,47,c),
(179,63,o),
(190,80,o),
(198,98,c),
(216,138,o),
(218,182,o),
(226,225,c),
(230,247,o),
(233,276,o),
(255,290,c),
(274,302,o),
(300,299,o),
(321,295,c),
(364,288,o),
(408,275,o),
(451,283,c),
(470,286,o),
(488,294,o),
(507,294,c),
(526,294,o),
(546,287,o),
(553,270,c),
(558,260,o),
(556,248,o),
(555,237,c),
(550,204,o),
(543,171,o),
(539,138,c),
(536,113,o),
(536,89,o),
(538,65,c),
(539,46,o),
(535,27,o),
(536,8,c),
(538,-7,o),
(547,-23,o),
(561,-23,c),
(576,-24,o),
(586,-11,o),
(592,1,c),
(624,53,o),
(629,98,o),
(620,156,c)
);
},
{
closed = 1;
nodes = (
(583,129,o),
(584,131,o),
(588,131,c),
(592,131,o),
(596,129,o),
(598,126,c),
(600,123,o),
(599,122,o),
(600,118,c),
(600,115,o),
(601,112,o),
(600,109,c),
(599,106,o),
(599,102,o),
(598,99,c),
(598,96,o),
(596,93,o),
(596,90,c),
(597,88,o),
(591,88,o),
(587,89,c),
(584,90,o),
(580,93,o),
(581,95,c),
(582,98,o),
(582,101,o),
(583,104,c),
(584,106,o),
(584,109,o),
(585,111,c),
(585,115,o),
(585,118,o),
(585,121,c),
(584,122,o),
(584,123,o),
(584,124,c),
(584,125,o),
(584,125,o),
(584,126,c),
(584,126,o),
(584,126,o),
(584,127,c),
(584,126,o),
(584,126,o),
(584,127,c)
);
}
);
width = 664;
}
);
unicode = (65,97);
},
{
glyphname = B;
lastChange = "2025-10-03 15:09:26 +0000";
layers = (
{
layerId = m01;
shapes = (
{
closed = 1;
nodes = (
(143,47,o),
(163,23,o),
(214,1,c),
(234,1,ls),
(262,1,o),
(312,23,o),
(333,23,cs),
(390,23,o),
(468,9,o),
(546,9,cs),
(651,9,o),
(780,39,o),
(780,183,cs),
(780,378,o),
(592,351,o),
(567,409,cs),
(562,421,o),
(588,457,o),
(592,461,cs),
(606,477,o),
(630,490,o),
(632,498,cs),
(638,523,o),
(638,529,o),
(638,544,cs),
(638,574,o),
(629,604,o),
(608,620,c),
(530,695,o),
(461,717,o),
(404,717,cs),
(319,717,o),
(262,689,o),
(248,681,cs),
(200,650,o),
(163,693,o),
(163,504,cs),
(163,488,o),
(167,477,o),
(186,443,cs),
(189,437,o),
(205,414,o),
(209,319,cs),
(209,314,o),
(220,392,o),
(226,321,c),
(209,430,o),
(213,425,o),
(214,435,cs),
(218,474,o),
(229,497,o),
(235,513,cs),
(243,534,o),
(255,614,o),
(294,640,cs),
(338,669,o),
(370,704,o),
(463,658,cs),
(556,612,o),
(579,605,o),
(572,534,cs),
(565,463,o),
(456,476,o),
(438,462,cs),
(420,448,o),
(360,370,o),
(473,357,cs),
(586,344,o),
(606,325,o),
(633,301,cs),
(675,263,o),
(688,238,o),
(629,163,cs),
(570,88,o),
(385,120,o),
(345,146,cs),
(325,159,o),
(296,206,o),
(277,216,cs),
(229,241,o),
(169,239,o),
(158,159,cs)
);
},
{
closed = 1;
nodes = (
(233,286,o),
(234,298,o),
(234,310,cs),
(235,391,o),
(222,381,o),
(206,435,c),
(205,389,o),
(186,378,o),
(205,307,cs),
(208,295,o),
(208,286,o),
(221,286,cs)
);
},
{
closed = 1;
nodes = (
(282,166,o),
(281,165,o),
(282,162,c),
(288,153,o),
(287,151,o),
(282,152,c),
(264,164,o),
(248,165,o),
(227,183,c),
(225,184,o),
(225,184,o),
(221,187,c),
(220,190,o),
(218,195,o),
(217,199,c),
(217,205,o),
(232,191,o),
(237,190,c),
(248,185,o),
(259,180,o),
(269,177,c),
(271,176,o),
(274,173,o),
(276,172,c),
(276,172,o),
(276,171,o),
(276,171,c)
);
}
);
width = 864;
},
{
background = {
backgroundImage = {
angle = -90;
imagePath = "/Users/user/Downloads/Photos-001/IMG_20230504_212653670.jpg";
pos = (277,660);
scale = (0.1239,0.1239);
};
};
layerId = "0CE0EAA9-F711-497D-909D-736D4C3B0AC1";
shapes = (
{
closed = 1;
nodes = (
(142,47,o),
(162,23,o),
(213,1,c),
(233,1,ls),
(261,1,o),
(311,23,o),
(332,23,cs),
(389,23,o),
(467,9,o),
(545,9,cs),
(650,9,o),
(749,39,o),
(749,183,cs),
(749,378,o),
(660,369,o),
(635,427,cs),
(630,439,o),
(628,455,o),
(628,461,cs),
(628,477,o),
(629,490,o),
(631,498,cs),
(637,523,o),
(637,529,o),
(637,544,cs),
(637,574,o),
(628,604,o),
(607,620,c),
(529,695,o),
(460,717,o),
(403,717,cs),
(318,717,o),
(261,689,o),
(247,681,cs),
(199,650,o),
(176,672,o),
(176,483,cs),
(176,441,o),
(178,417,o),
(181,405,cs),
(183,397,o),
(185,395,o),
(188,396,cs),
(189,396,o),
(190,398,o),
(191,399,cs),
(193,401,o),
(194,403,o),
(195,406,cs),
(205,427,o),
(215,474,o),
(217,480,cs),
(221,492,o),
(221,603,o),
(260,629,cs),
(304,658,o),
(430,717,o),
(523,671,cs),
(616,625,o),
(578,605,o),
(571,534,cs),
(564,463,o),
(455,476,o),
(437,462,cs),
(419,448,o),
(359,370,o),
(472,357,cs),
(585,344,o),
(605,325,o),
(632,301,cs),
(674,263,o),
(802,144,o),
(660,41,cs),
(580,-17,o),
(384,120,o),
(344,146,cs),
(324,159,o),
(295,206,o),
(276,216,cs),
(228,241,o),
(168,239,o),
(157,159,cs)
);
},
{
closed = 1;
nodes = (
(229,312,o),
(240,321,o),
(240,333,cs),
(240,345,o),
(229,354,o),
(217,354,cs),
(204,354,o),
(193,345,o),
(193,333,cs),
(193,321,o),
(204,312,o),
(217,312,cs)
);
},
{
closed = 1;
nodes = (
(282,166,o),
(281,165,o),
(282,162,c),
(288,153,o),
(287,151,o),
(282,152,c),
(264,164,o),
(248,165,o),
(227,183,c),
(225,184,o),
(225,184,o),
(221,187,c),
(220,190,o),
(218,195,o),
(217,199,c),
(217,205,o),
(232,191,o),
(237,190,c),
(248,185,o),
(259,180,o),
(269,177,c),
(271,176,o),
(274,173,o),
(276,172,c),
(276,172,o),
(276,171,o),
(276,171,c)
);
}
);
width = 864;
}
);
unicode = (66,98);
},
{
glyphname = C;
lastChange = "2025-10-03 15:09:26 +0000";
layers = (
{
background = {
backgroundImage = {
angle = -90;
imagePath = "/Users/user/Downloads/Photos-001/IMG_20230504_212758447_MP.jpg";
pos = (-319,1451);
scale = (0.6795,0.6795);
};
shapes = (
{
closed = 1;
nodes = (
(309,-94,o)
);
},
{
closed = 1;
nodes = (
(424,-20,o)
);
}
);
};
layerId = m01;
shapes = (
{
closed = 1;
nodes = (
(598,474,o),
(608,483,o),
(608,496,cs),
(608,509,o),
(598,516,o),
(586,516,cs),
(574,516,o),
(564,509,o),
(564,496,cs),
(564,483,o),
(574,474,o),
(586,474,cs)
);
},
{
closed = 1;
nodes = (
(343,698,o),
(216,551,o),
(195,491,cs),
(173,431,o),
(148,367,o),
(139,299,cs),
(129,231,o),
(193,119,o),
(193,119,cs),
(430,-87,o),
(373,210,o),
(346,207,cs),
(279,198,o),
(278,255,o),
(269,328,cs),
(260,407,o),
(304,489,o),
(315,518,cs),
(326,546,o),
(456,698,o),
(412,698,cs)
);
},
{
closed = 1;
nodes = (
(231,-4,o),
(426,-21,o),
(543,41,cs),
(621,83,o),
(672,144,o),
(645,215,cs),
(617,286,o),
(519,267,o),
(477,257,cs),
(434,246,o),
(441,252,o),
(342,196,cs),
(243,141,o),
(185,187,o),
(200,124,cs)
);
},
{
closed = 1;
nodes = (
(412,698,o),
(389,707,o),
(368,679,cs),
(361,671,o),
(351,643,o),
(345,634,cs),
(333,618,o),
(318,602,o),
(318,602,c),
(318,602,o),
(324,608,o),
(342,618,c),
(356,625,o),
(380,637,o),
(385,639,cs),
(408,649,o),
(429,673,o),
(419,688,cs)
);
},
{
closed = 1;
nodes = (
(437,149,o),
(436,149,o),
(435,149,c),
(425,155,o),
(432,166,o),
(439,171,c),
(458,185,o),
(478,199,o),
(497,213,c),
(501,216,o),
(505,219,o),
(508,217,c),
(512,216,o),
(514,212,o),
(514,208,c),
(513,204,o),
(511,200,o),
(508,197,c),
(496,180,o),
(480,167,o),
(462,158,c),
(457,156,o),
(445,149,o),
(438,149,c)
);
},
{
closed = 1;
nodes = (
(295,198,o),
(297,196,o),
(300,195,c),
(304,194,o),
(309,191,o),
(308,186,c),
(308,183,o),
(306,182,o),
(303,181,c),
(301,181,o),
(298,181,o),
(296,182,c),
(269,192,o),
(242,222,o),
(240,251,c),
(251,251,o),
(262,233,o),
(269,225,c),
(275,215,o),
(283,206,o),
(293,199,c)
);
},
{
closed = 1;
nodes = (
(327,592,o),
(330,591,o),
(331,588,c),
(337,577,o),
(323,562,o),
(316,555,cs),
(312,551,o),
(287,519,o),
(284,522,c),
(284,523,o),
(283,524,o),
(283,524,c),
(282,530,o),
(282,535,o),
(284,541,c),
(287,554,o),
(293,568,o),
(301,579,c),
(306,586,o),
(313,591,o),
(321,592,c),
(322,592,o),
(323,592,o),
(325,592,c)
);
}
);
width = 840;
},
{
layerId = "0CE0EAA9-F711-497D-909D-736D4C3B0AC1";
shapes = (
{
closed = 1;
nodes = (
(596,476,o),
(606,483,o),
(606,494,cs),
(606,504,o),
(596,510,o),
(584,510,cs),
(572,510,o),
(562,504,o),
(562,494,cs),
(562,483,o),
(572,476,o),
(584,476,cs)
);
},
{
closed = 1;
nodes = (
(282,549,o),
(197,499,o),
(176,439,cs),
(154,379,o),
(148,367,o),
(139,299,cs),
(129,231,o),
(193,119,o),
(193,119,cs),
(430,-87,o),
(291,156,o),
(264,153,cs),
(197,144,o),
(196,201,o),
(187,274,cs),
(178,353,o),
(193,406,o),
(204,435,cs),
(215,463,o),
(324,604,o),
(321,606,c)
);
},
{
closed = 1;
nodes = (
(231,-4,o),
(426,-21,o),
(543,41,cs),
(621,83,o),
(672,144,o),
(645,215,cs),
(617,286,o),
(519,267,o),
(477,257,cs),
(434,246,o),
(441,252,o),
(342,196,cs),
(243,141,o),
(185,187,o),
(200,124,cs)
);
},
{
closed = 1;
nodes = (
(412,698,o),
(394,707,o),
(373,679,cs),
(365,670,o),
(361,659,o),
(361,650,cs),
(361,644,o),
(363,639,o),
(367,636,cs),
(371,632,o),
(376,631,o),
(383,633,cs),
(388,634,o),
(393,637,o),
(399,641,c),
(411,661,o),
(420,685,o),
(419,688,c)
);
},
{
closed = 1;
nodes = (
(437,149,o),
(436,149,o),
(435,149,c),
(425,155,o),
(432,166,o),
(439,171,c),
(458,185,o),
(478,199,o),
(497,213,c),
(501,216,o),
(505,219,o),
(508,217,c),
(512,216,o),
(514,212,o),
(514,208,c),
(513,204,o),
(511,200,o),
(508,197,c),
(496,180,o),
(480,167,o),
(462,158,c),
(457,156,o),
(445,149,o),
(438,149,c)
);
},
{
closed = 1;
nodes = (
(183,164,o),
(183,164,o),
(183,164,c),
(183,165,o),
(183,165,o),
(183,165,c),
(183,165,o),
(183,165,o),
(184,165,c),
(184,165,o),
(184,165,o),
(184,165,c),
(183,163,o),
(182,160,o),
(180,159,c),
(179,160,o),
(180,161,o),
(181,162,c),
(182,162,o),
(182,163,o),
(182,164,c)
);
},
{
closed = 1;
nodes = (
(164,418,o),
(164,418,o),
(164,418,c),
(164,418,o),
(164,418,o),
(164,418,cs),
(164,418,o),
(164,418,o),
(164,418,c),
(164,418,o),
(164,418,o),
(164,418,c),
(164,418,o),
(164,418,o),
(164,418,c),
(164,418,o),
(164,418,o),
(164,418,c),
(164,418,o),
(164,418,o),
(164,418,c),
(164,418,o),
(164,418,o),
(164,418,c)
);
}
);
width = 840;
}
);
unicode = (67,99);
},
{
glyphname = D;
lastChange = "2025-10-03 15:09:26 +0000";
layers = (
{
layerId = m01;
shapes = (
{
closed = 1;
nodes = (
(10,116,o),
(23,141,o),
(39,195,cs),
(49,223,o),
(49,267,o),
(55,296,cs),
(58,308,o),
(61,321,o),
(64,334,cs),
(64,340,o),
(68,362,o),
(71,384,c),
(71,410,o),
(97,483,o),
(97,496,cs),
(97,543,o),
(81,551,o),
(81,586,cs),
(81,592,o),
(81,659,o),
(83,662,cs),
(104,692,o),
(119,688,o),
(160,700,cs),
(198,711,o),
(219,710,o),
(276,707,cs),
(418,700,o),
(532,644,o),
(563,546,cs),
(582,482,o),
(577,446,o),
(571,378,cs),
(565,314,o),
(537,265,o),
(525,239,cs),
(475,131,o),
(446,131,o),
(358,102,cs),
(294,80,o),
(229,5,o),
(124,5,cs),
(114,5,o),
(105,8,o),
(92,11,cs),
(67,21,o),
(26,56,o),
(19,78,cs)
);
},
{
closed = 1;
nodes = (
(331,260,l),
(386,318,ls),
(476,412,o),
(443,485,o),
(418,533,cs),
(392,580,o),
(370,618,o),
(257,615,cs),
(143,612,o),
(169,500,o),
(147,421,cs),
(125,342,o),
(155,290,o),
(143,258,cs),
(138,244,o),
(119,201,o),
(108,169,cs),
(99,143,o),
(194,151,o),
(216,169,cs),
(228,179,o),
(250,185,o),
(266,198,c)
);
},
{
closed = 1;
nodes = (
(291,162,o),
(292,166,o),
(293,170,c),
(289,168,o),
(284,167,o),
(279,165,c),
(279,165,o),
(278,164,o),
(278,164,c),
(264,156,o),
(251,148,o),
(237,139,c),
(220,129,o),
(200,122,o),
(177,122,c),
(171,122,o),
(167,121,o),
(166,116,c),
(165,111,o),
(170,111,o),
(175,110,c),
(198,106,o),
(221,105,o),
(239,121,c),
(255,134,o),
(272,145,o),
(289,158,c)
);
}
);
width = 600;
},
{
background = {
backgroundImage = {
angle = -90;
imagePath = "/Users/user/Downloads/IMG_20230504_212915495.jpg";
pos = (156,600);
scale = (0.1598,0.1598);
};
};
layerId = "0CE0EAA9-F711-497D-909D-736D4C3B0AC1";
shapes = (
{
closed = 1;
nodes = (
(10,116,o),
(35,141,o),
(51,195,cs),
(61,223,o),
(61,267,o),
(67,296,cs),
(70,308,o),
(73,321,o),
(76,334,cs),
(76,340,o),
(80,362,o),
(83,384,c),
(91,410,o),
(109,483,o),
(109,496,cs),
(109,543,o),
(83,584,o),
(83,619,cs),
(83,625,o),
(80,638,o),
(83,641,cs),
(89,688,o),
(92,678,o),
(105,687,cs),
(137,709,o),
(240,713,o),
(297,707,cs),
(401,697,o),
(532,644,o),
(563,546,cs),
(582,482,o),
(573,444,o),
(582,378,cs),
(582,372,o),
(554,267,o),
(541,226,cs),
(506,112,o),
(446,138,o),
(358,109,cs),
(294,87,o),
(193,5,o),
(124,5,cs),
(114,5,o),
(105,8,o),
(92,11,cs),
(67,21,o),
(26,56,o),
(19,78,cs)
);
},
{
closed = 1;
nodes = (
(317,264,l),
(364,318,ls),
(449,416,o),
(443,485,o),
(418,533,cs),
(392,580,o),
(330,608,o),
(217,605,cs),
(103,602,o),
(114,471,o),
(85,392,cs),
(56,313,o),
(143,308,o),
(143,258,cs),
(143,242,o),
(83,258,o),
(102,160,cs),
(121,62,o),
(187,128,o),
(200,154,cs),
(212,179,o),
(222,188,o),
(238,201,c)
);
},
{
closed = 1;
nodes = (
(497,329,o),
(494,334,o),
(492,337,c),
(488,332,o),
(484,328,o),
(479,323,c),
(479,323,o),
(480,322,o),
(480,322,c),
(471,306,o),
(462,290,o),
(453,273,c),
(442,254,o),
(426,234,o),
(400,216,c),
(393,213,o),
(390,209,o),
(393,204,c),
(395,200,o),
(400,203,o),
(407,206,c),
(437,220,o),
(463,236,o),
(471,261,c),
(478,283,o),
(489,303,o),
(496,325,c)
);
}
);
width = 600;
}
);
unicode = (68,100);
},
{
glyphname = E;
lastChange = "2025-10-03 15:09:26 +0000";
layers = (
{
layerId = m01;
shapes = (
{
closed = 1;
nodes = (
(406,372,o),
(360,363,o),
(343,353,c),
(303,329,o),
(239,333,o),
(229,276,c),
(224,249,o),
(221,249,o),
(235,215,c),
(243,191,o),
(260,175,o),
(284,163,c),
(322,145,o),
(361,149,o),
(400,150,c),
(442,152,o),
(496,187,o),
(534,156,c),
(545,147,o),
(564,105,o),
(560,87,c),
(556,58,o),
(547,25,o),
(531,14,c),
(484,-15,o),
(426,-23,o),
(372,-28,c),
(312,-35,o),
(266,-33,o),
(216,0,cs),
(176,27,o),
(167,49,o),
(156,72,c),
(140,105,o),
(113,133,o),
(100,166,c),
(88,193,o),
(71,240,o),
(74,270,c),
(77,320,o),
(65,353,o),
(69,406,c),
(75,416,o),
(108,579,o),
(116,584,cs),
(125,589,o),
(140,462,o),
(160,444,cs),
(186,420,o),
(254,459,o),
(284,466,c),
(313,472,o),
(331,475,o),
(364,468,cs),
(378,465,o),
(397,445,o),
(400,440,c),
(402,435,o),
(408,415,o),
(405,395,c)
);
},
{
closed = 1;
nodes = (
(368,745,o),
(420,739,o),
(436,685,c),
(444,670,o),
(450,641,o),
(426,600,cs),
(416,582,o),
(406,575,o),
(388,568,c),
(364,560,o),
(328,558,o),
(302,562,c),
(281,565,o),
(233,568,o),
(212,562,c),
(192,556,o),
(172,555,o),
(151,547,cs),
(148,546,o),
(126,525,o),
(156,453,c),
(163,408,o),
(81,380,o),
(69,395,cs),
(66,399,o),
(52,573,o),
(49,592,cs),
(40,651,o),
(122,691,o),
(163,700,c),
(198,707,o),
(251,721,o),
(285,734,c),
(301,741,o),
(321,745,o),
(340,745,c)
);
},
{
closed = 1;
nodes = (
(340,656,o),
(342,656,o),
(345,656,c),
(352,657,o),
(359,659,o),
(365,662,c),
(371,665,o),
(378,669,o),
(381,675,c),
(384,677,o),
(379,684,o),
(378,689,c),
(378,690,o),
(378,690,o),
(377,690,c),
(376,700,o),
(370,701,o),
(363,699,c),
(350,696,o),
(338,693,o),
(326,692,c),
(315,692,o),
(311,684,o),
(309,676,c),
(307,668,o),
(311,662,o),
(320,659,c),
(325,657,o),
(331,656,o),
(335,655,c)
);
},
{
closed = 1;
nodes = (
(143,644,o),
(154,648,o),
(164,653,c),
(167,654,o),
(169,657,o),
(168,658,c),
(167,660,o),
(164,661,o),
(159,661,c),
(142,661,o),
(130,653,o),
(126,642,c),
(126,641,o),
(129,641,o),
(132,639,c)
);
},
{
closed = 1;
nodes = (
(162,399,o),
(177,402,c),
(178,402,o),
(178,407,o),
(178,407,cs),
(178,412,o),
(165,412,o),
(157,411,c),
(149,411,o),
(148,405,o),
(153,402,cs),
(159,400,o)
);
}
);
width = 600;
},
{
layerId = "0CE0EAA9-F711-497D-909D-736D4C3B0AC1";
shapes = (
{
closed = 1;
nodes = (
(378,393,o),
(360,371,o),
(343,361,c),
(303,337,o),
(227,333,o),
(217,276,c),
(211,238,o),
(221,200,o),
(235,166,c),
(243,142,o),
(260,126,o),
(284,114,c),
(322,96,o),
(361,100,o),
(400,101,c),
(442,103,o),
(496,138,o),
(534,107,c),
(545,98,o),
(560,87,o),
(556,69,c),
(552,52,o),
(547,37,o),
(531,26,c),
(484,-3,o),
(426,-11,o),
(372,-16,c),
(312,-23,o),
(264,-6,o),
(216,29,c),
(194,44,o),
(187,67,o),
(176,90,c),
(160,123,o),
(133,151,o),
(120,184,c),
(108,211,o),
(93,240,o),
(96,270,c),
(99,320,o),
(92,362,o),
(120,406,c),
(126,416,o),
(134,423,o),
(143,428,cs),
(151,433,o),
(161,435,o),
(171,437,cs),
(203,441,o),
(242,432,o),
(273,439,c),
(302,445,o),
(331,462,o),
(360,444,c),
(365,440,o),
(370,437,o),
(373,432,c),
(375,427,o),
(377,421,o),
(377,416,c)
);
},
{
closed = 1;
nodes = (
(368,717,o),
(394,707,o),
(410,681,c),
(418,666,o),
(410,644,o),
(403,631,c),
(394,612,o),
(377,605,o),
(359,598,c),
(335,590,o),
(309,591,o),
(283,595,c),
(262,598,o),
(233,597,o),
(212,591,c),
(196,586,o),
(181,580,o),
(165,574,cs),
(157,571,o),
(148,567,o),
(140,564,c),
(123,558,o),
(102,565,o),
(90,578,cs),
(86,582,o),
(84,587,o),
(82,592,c),
(64,649,o),
(140,673,o),
(181,682,c),
(216,689,o),
(251,693,o),
(285,706,c),
(301,713,o),
(321,717,o),
(340,717,c)
);
},
{
closed = 1;
nodes = (
(263,640,o),
(265,640,o),
(268,640,c),
(275,641,o),
(282,643,o),
(288,646,c),
(294,649,o),
(301,653,o),
(304,659,c),
(307,661,o),
(302,668,o),
(301,673,c),
(301,674,o),
(301,674,o),
(300,674,c),
(299,684,o),
(293,685,o),
(286,683,c),
(273,680,o),
(261,677,o),
(249,676,c),
(238,676,o),
(234,668,o),
(232,660,c),
(230,652,o),
(234,646,o),
(243,643,c),
(248,641,o),
(254,640,o),
(258,639,c)
);
},
{
closed = 1;
nodes = (
(155,626,o),
(166,631,o),
(177,636,c),
(180,637,o),
(183,642,o),
(182,643,c),
(181,647,o),
(178,650,o),
(174,652,c),
(157,656,o),
(143,646,o),
(138,628,c),
(138,627,o),
(140,625,o),
(143,621,c)
);
},
{
closed = 1;
nodes = (
(177,379,o),
(195,386,c),
(196,386,o),
(196,394,o),
(196,394,cs),
(196,404,o),
(180,404,o),
(171,403,c),
(162,403,o),
(160,391,o),
(167,386,cs),
(173,381,o)
);
}
);
width = 600;
}
);
unicode = (69,101);
},
{
glyphname = F;
lastChange = "2025-10-03 15:09:26 +0000";
layers = (
{
layerId = m01;
shapes = (
{
closed = 1;
nodes = (
(211,102,o),
(210,125,o),
(210,151,cs),
(210,176,o),
(220,198,o),
(211,222,c),
(191,363,o),
(250,354,o),
(298,363,cs),
(354,374,o),
(429,352,o),
(454,395,cs),
(466,416,o),
(482,472,o),
(401,443,c),
(206,443,o),
(229,484,o),
(238,521,c),
(248,558,o),
(278,589,o),
(313,602,c),
(334,610,o),
(467,602,o),
(458,641,c),
(454,660,o),
(443,684,o),
(382,688,cs),
(307,693,o),
(239,686,o),
(167,661,c),
(103,621,o),
(110,566,o),
(106,489,c),
(103,424,o),
(92,371,o),
(103,308,c),
(105,298,o),
(104,261,o),
(103,250,c),
(101,193,o),
(82,139,o),
(110,85,c),
(125,65,o),
(176,59,o),
(195,83,c)
);
},
{
closed = 1;
nodes = (
(387,611,o),
(452,603,o),
(464,621,c),
(482,643,o),
(469,663,o),
(449,673,c),
(419,686,o),
(374,688,o),
(354,673,c),
(332,656,o),
(324,606,o),
(367,611,c)
);
},
{
closed = 1;
nodes = (
(200,532,o),
(200,533,o),
(200,533,c),
(201,540,o),
(209,545,o),
(211,536,c),
(212,534,o),
(206,520,o),
(204,522,c),
(201,525,o),
(200,529,o),
(200,532,c)
);
},
{
closed = 1;
nodes = (
(268,431,o),
(266,425,o),
(259,424,c),
(246,422,o),
(233,425,o),
(222,429,c),
(194,438,o),
(193,483,o),
(199,469,c),
(205,455,o),
(231,444,o),
(238,438,c),
(244,433,o),
(252,436,o),
(260,433,c)
);
}
);
width = 600;
},
{
background = {
shapes = (
{
closed = 1;
nodes = (
(304,427,o),
(312,416,o),
(310,403,c),
(307,385,o),
(304,366,o),
(295,352,c),
(269,306,o),
(227,282,o),
(215,227,c),
(210,204,o),
(207,180,o),
(200,158,c),
(195,137,o),
(193,109,o),
(179,91,c),
(160,67,o),
(135,87,o),
(121,107,c),
(88,154,o),
(92,224,o),
(93,280,c),
(93,291,o),
(92,301,o),
(90,311,c),
(80,373,o),
(66,435,o),
(69,499,c),
(72,575,o),
(104,618,o),
(166,657,c),
(199,677,o),
(234,692,o),
(273,695,c),
(289,697,o),
(304,696,o),
(319,696,c),
(342,695,o),
(363,688,o),
(383,679,c),
(402,670,o),
(411,656,o),
(415,637,c),
(423,599,o),
(335,598,o),
(315,590,c),
(281,578,o),
(246,548,o),
(237,511,c),
(228,474,o),
(270,458,o),
(293,437,c)
);
},
{
closed = 1;
nodes = (
(474,649,o),
(456,649,o),
(448,644,c),
(439,636,o),
(436,617,o),
(453,619,c),
(460,619,o),
(486,617,o),
(491,623,c),
(498,633,o),
(493,639,o),
(485,644,c)
);
},
{
closed = 1;
nodes = (
(121,578,o),
(121,579,o),
(121,579,c),
(122,586,o),
(130,591,o),
(132,582,c),
(133,580,o),
(127,566,o),
(125,568,c),
(122,571,o),
(121,575,o),
(121,578,c)
);
},
{
closed = 1;
nodes = (
(270,444,o),
(258,438,o),
(250,448,c),
(240,461,o),
(204,482,o),
(195,510,c),
(187,538,o),
(189,449,o),
(228,430,c),
(243,423,o),
(262,416,o),
(280,420,c),
(289,423,o),
(292,435,o),
(281,439,c)
);
}
);
};
layerId = "0CE0EAA9-F711-497D-909D-736D4C3B0AC1";
shapes = (
{
closed = 1;
nodes = (
(195,102,o),
(195,130,o),
(201,151,c),
(208,175,o),
(211,198,o),
(216,222,c),
(229,278,o),
(271,302,o),
(298,349,c),
(307,364,o),
(310,384,o),
(312,401,c),
(315,415,o),
(307,426,o),
(296,436,c),
(273,458,o),
(229,475,o),
(238,512,c),
(248,549,o),
(283,580,o),
(318,593,c),
(339,601,o),
(429,602,o),
(420,641,c),
(416,660,o),
(408,675,o),
(387,683,c),
(321,713,o),
(239,707,o),
(167,661,c),
(103,621,o),
(71,577,o),
(67,500,c),
(64,435,o),
(78,371,o),
(89,308,c),
(91,298,o),
(93,287,o),
(92,276,c),
(90,219,o),
(86,149,o),
(120,100,c),
(135,80,o),
(160,59,o),
(179,83,c)
);
},
{
closed = 1;
nodes = (
(467,622,o),
(493,619,o),
(498,626,c),
(505,635,o),
(500,643,o),
(492,647,c),
(480,652,o),
(462,653,o),
(454,647,c),
(445,640,o),
(442,620,o),
(459,622,c)
);
},
{
closed = 1;
nodes = (
(121,578,o),
(121,579,o),
(121,579,c),
(122,586,o),
(130,591,o),
(132,582,c),
(133,580,o),
(127,566,o),
(125,568,c),
(122,571,o),
(121,575,o),
(121,578,c)
);
},
{
closed = 1;
nodes = (
(292,435,o),
(289,423,o),
(280,420,c),
(262,416,o),
(243,423,o),
(228,430,c),
(189,449,o),
(187,538,o),
(195,510,c),
(204,482,o),
(240,461,o),
(250,448,c),
(258,438,o),
(270,444,o),
(281,439,c)
);
}
);
width = 600;
}
);
unicode = (70,102);
},
{
glyphname = G;
lastChange = "2025-10-03 15:09:26 +0000";
layers = (
{
layerId = m01;
shapes = (
{
closed = 1;
nodes = (
(316,1,o),
(372,6,o),
(430,11,c),
(521,17,o),
(562,91,o),
(564,175,c),
(564,193,o),
(561,211,o),
(559,230,c),
(557,253,o),
(543,305,o),
(520,312,cs),
(426,341,o),
(442,357,o),
(373,303,c),
(354,286,o),
(402,258,o),
(421,247,cs),
(463,222,o),
(428,171,o),
(402,129,c),
(364,66,o),
(269,146,o),
(219,189,c),
(173,227,o),
(142,268,o),
(131,329,c),
(122,374,o),
(149,465,o),
(193,515,cs),
(199,522,o),
(137,574,o),
(129,568,c),
(95,539,o),
(20,378,o),
(20,337,c),
(22,315,o),
(20,276,o),
(22,253,c),
(23,230,o),
(22,212,o),
(22,188,c),
(20,148,o),
(60,124,o),
(85,102,c),
(109,78,o),
(136,68,o),
(162,46,c),
(185,36,o),
(220,13,o),
(259,8,c)
);
},
{
closed = 1;
nodes = (
(110,452,o),
(120,454,o),
(127,461,c),
(145,474,o),
(164,478,o),
(264,600,c),
(281,626,o),
(306,637,o),
(329,637,c),
(337,637,o),
(345,636,o),
(351,636,c),
(374,645,o),
(356,683,o),
(343,695,c),
(336,702,o),
(326,708,o),
(318,708,c),
(286,712,o),
(247,689,o),
(219,666,c),
(204,655,o),
(61,505,o),
(78,468,c),
(83,457,o),
(92,454,o),
(101,452,c)
);
},
{
closed = 1;
nodes = (
(521,200,o),
(521,199,o),
(520,198,c),
(514,193,o),
(511,209,o),
(512,212,c),
(511,209,o),
(511,208,o),
(511,206,c),
(510,205,o),
(509,204,o),
(509,204,c),
(508,204,o),
(507,204,o),
(507,205,c),
(492,212,o),
(501,227,o),
(502,240,c),
(505,246,o),
(503,260,o),
(503,267,c),
(502,270,o),
(502,272,o),
(503,274,c),
(507,282,o),
(513,273,o),
(515,270,c),
(518,265,o),
(520,261,o),
(521,257,c),
(526,238,o),
(523,220,o),
(521,202,c),
(521,202,o),
(521,201,o),
(521,201,c)
);
}
);
width = 600;
},
{
background = {
shapes = (
{
closed = 1;
nodes = (
(353,224,o),
(341,263,o),
(346,308,c),
(348,332,o),
(357,353,o),
(376,368,c),
(444,423,o),
(518,363,o),
(554,302,c),
(567,281,o),
(571,265,o),
(574,242,c),
(576,223,o),
(578,205,o),
(578,188,c),
(578,105,o),
(520,10,o),
(431,5,c),
(375,1,o),
(319,-5,o),
(263,2,c),
(226,7,o),
(191,29,o),
(162,53,c),
(136,75,o),
(110,96,o),
(86,120,c),
(62,143,o),
(33,153,o),
(33,193,c),
(33,215,o),
(41,233,o),
(40,256,c),
(39,277,o),
(35,300,o),
(34,322,c),
(33,361,o),
(34,411,o),
(68,440,c),
(74,445,o),
(86,443,o),
(89,435,c),
(101,390,o),
(106,347,o),
(114,303,c),
(125,245,o),
(163,206,o),
(207,169,c),
(256,128,o),
(290,121,o),
(327,182,c)
);
},
{
closed = 1;
nodes = (
(180,620,o),
(175,619,o),
(168,613,c),
(169,618,o),
(167,623,o),
(169,624,c),
(173,629,o),
(176,633,o),
(180,636,c),
(182,631,o),
(184,628,o),
(184,625,c)
);
},
{
closed = 1;
nodes = (
(331,697,o),
(321,701,o),
(315,702,c),
(284,705,o),
(245,687,o),
(218,673,c),
(203,666,o),
(148,632,o),
(164,608,c),
(168,600,o),
(178,598,o),
(185,597,c),
(195,596,o),
(204,598,o),
(212,603,c),
(228,612,o),
(239,630,o),
(252,644,c),
(270,661,o),
(293,670,o),
(317,669,c),
(324,668,o),
(331,667,o),
(338,670,c),
(360,674,o),
(351,684,o),
(339,692,c)
);
},
{
closed = 1;
nodes = (
(516,240,o),
(516,241,o),
(517,242,c),
(519,265,o),
(523,288,o),
(516,312,c),
(515,318,o),
(513,323,o),
(509,329,c),
(506,333,o),
(498,345,o),
(493,335,c),
(492,332,o),
(492,329,o),
(493,326,c),
(493,316,o),
(496,299,o),
(492,290,c),
(490,274,o),
(479,254,o),
(498,245,c),
(499,244,o),
(500,244,o),
(501,244,c),
(501,244,o),
(502,245,o),
(503,246,c),
(504,249,o),
(504,251,o),
(505,254,c),
(504,250,o),
(508,230,o),
(515,236,c),
(516,238,o),
(516,239,o),
(516,240,c)
);
}
);
};
layerId = "0CE0EAA9-F711-497D-909D-736D4C3B0AC1";
shapes = (
{
closed = 1;
nodes = (
(324,-13,o),
(380,-8,o),
(438,-3,c),
(529,3,o),
(587,100,o),
(589,184,c),
(589,202,o),
(586,220,o),
(584,239,c),
(582,262,o),
(577,280,o),
(563,300,c),
(527,363,o),
(451,423,o),
(382,369,c),
(363,352,o),
(354,331,o),
(351,307,c),
(346,261,o),
(357,220,o),
(331,178,c),
(293,115,o),
(259,122,o),
(209,165,c),
(163,203,o),
(125,241,o),
(114,302,c),
(105,347,o),
(99,392,o),
(88,436,c),
(86,444,o),
(74,447,o),
(66,441,c),
(32,412,o),
(31,362,o),
(31,321,c),
(33,299,o),
(36,276,o),
(38,253,c),
(39,230,o),
(31,212,o),
(31,188,c),
(29,148,o),
(60,136,o),
(85,114,c),
(109,90,o),
(136,68,o),
(162,46,c),
(193,22,o),
(228,-1,o),
(267,-6,c)
);
},
{
closed = 1;
nodes = (
(196,602,o),
(206,603,o),
(213,608,c),
(231,617,o),
(241,636,o),
(255,650,c),
(272,668,o),
(297,676,o),
(320,676,c),
(328,676,o),
(336,675,o),
(342,675,c),
(365,681,o),
(356,692,o),
(343,700,c),
(336,705,o),
(326,709,o),
(318,709,c),
(286,712,o),
(247,696,o),
(219,680,c),
(204,672,o),
(147,639,o),
(164,613,c),
(169,605,o),
(178,603,o),
(187,602,c)
);
},
{
closed = 1;
nodes = (
(516,239,o),
(516,238,o),
(515,236,c),
(508,230,o),
(504,250,o),
(505,254,c),
(504,251,o),
(504,249,o),
(503,246,c),
(502,245,o),
(501,244,o),
(501,244,c),
(500,244,o),
(499,244,o),
(498,245,c),
(479,254,o),
(490,274,o),
(492,290,c),
(496,299,o),
(493,316,o),
(493,326,c),
(492,329,o),
(492,332,o),
(493,335,c),
(498,345,o),
(506,333,o),
(509,329,c),
(513,323,o),
(515,318,o),
(516,312,c),
(523,288,o),
(519,265,o),
(517,242,c),
(516,241,o),
(516,240,o),
(516,240,c)
);
}
);
width = 600;
}
);
unicode = (71,103);
},
{
glyphname = H;
lastChange = "2025-10-03 15:09:26 +0000";
layers = (
{
layerId = m01;
shapes = (
{
closed = 1;
nodes = (
(674,230,o),
(681,199,o),
(687,167,c),
(693,129,o),
(687,56,o),
(653,38,cs),
(614,18,o),
(604,52,o),
(586,97,c),
(563,154,o),
(554,253,o),
(456,265,c),
(398,274,o),
(313,286,o),
(254,265,c),
(201,245,o),
(234,162,o),
(243,111,c),
(248,79,o),
(264,35,o),
(254,0,c),
(246,-27,o),
(171,-34,o),
(141,-14,c),
(67,39,o),
(29,468,o),
(29,524,cs),
(29,595,o),
(149,396,o),
(160,377,cs),
(191,324,o),
(268,354,o),
(301,360,c),
(339,366,o),
(459,363,o),
(478,403,c),
(515,480,o),
(443,577,o),
(461,659,c),
(464,672,o),
(470,685,o),
(483,683,c),
(513,675,o),
(531,655,o),
(542,627,c),
(590,506,o),
(635,387,o),
(666,261,c)
);
},
{
closed = 1;
nodes = (
(151,315,o),
(151,313,o),
(151,311,c),
(143,296,o),
(123,278,o),
(97,282,c),
(82,284,o),
(75,293,o),
(68,301,c),
(55,318,o),
(-46,709,o),
(41,691,c),
(56,688,o),
(67,680,o),
(73,671,c),
(96,649,o),
(161,342,o),
(152,317,c)
);
},
{
closed = 1;
nodes = (
(511,619,o),
(511,619,o),
(511,620,c),
(510,624,o),
(510,625,o),
(510,623,c),
(510,625,o),
(510,626,o),
(510,628,c),
(507,632,o),
(505,636,o),
(502,640,c),
(502,641,o),
(502,641,o),
(502,641,c),
(500,642,o),
(499,644,o),
(499,645,c),
(497,645,o),
(495,647,o),
(493,646,c),
(493,645,o),
(493,643,o),
(493,642,c),
(493,641,o),
(493,639,o),
(493,638,c),
(493,634,o),
(493,631,o),
(493,628,c),
(493,627,o),
(494,626,o),
(494,625,c),
(495,622,o),
(495,619,o),
(495,616,c),
(496,613,o),
(496,611,o),
(497,607,c),
(497,607,o),
(497,605,o),
(497,604,c),
(497,607,o),
(497,610,o),
(497,613,c),
(497,613,o),
(497,614,o),
(497,615,c),
(497,615,o),
(497,614,o),
(497,614,c),
(499,609,o),
(499,607,o),
(498,610,c),
(499,608,o),
(499,607,o),
(499,604,c),
(502,596,o),
(507,588,o),
(516,583,c),
(515,585,l),
(515,586,o),
(514,587,o),
(514,587,c),
(514,589,o),
(514,590,o),
(514,591,c),
(514,594,o),
(514,596,o),
(514,599,c),
(514,600,o),
(514,600,o),
(514,601,c),
(514,600,o),
(514,602,o),
(513,606,c),
(513,610,o),
(511,615,o),
(511,619,c)
);
}
);
width = 747;
},
{
layerId = "0CE0EAA9-F711-497D-909D-736D4C3B0AC1";
shapes = (
{
closed = 1;
nodes = (
(700,230,o),
(707,199,o),
(713,167,c),
(719,129,o),
(720,69,o),
(697,38,c),
(653,-23,o),
(580,52,o),
(562,97,c),
(539,154,o),
(530,226,o),
(456,238,c),
(398,247,o),
(313,286,o),
(254,265,c),
(201,245,o),
(191,185,o),
(200,134,c),
(205,102,o),
(221,58,o),
(211,23,c),
(203,-4,o),
(171,-34,o),
(141,-14,c),
(67,39,o),
(21,310,o),
(138,343,c),
(158,349,o),
(180,347,o),
(201,347,c),
(235,348,o),
(268,354,o),
(301,360,c),
(339,366,o),
(423,363,o),
(442,403,c),
(479,480,o),
(443,577,o),
(461,659,c),
(464,672,o),
(496,685,o),
(509,683,c),
(539,675,o),
(557,655,o),
(568,627,c),
(616,506,o),
(661,387,o),
(692,261,c)
);
},
{
closed = 1;
nodes = (
(82,585,o),
(82,583,o),
(82,581,c),
(77,566,o),
(65,548,o),
(49,552,c),
(40,554,o),
(35,563,o),
(31,571,c),
(23,588,o),
(-4,700,o),
(49,682,c),
(58,679,o),
(65,671,o),
(69,662,c),
(83,640,o),
(88,612,o),
(83,587,c)
);
},
{
closed = 1;
nodes = (
(534,587,o),
(534,588,o),
(534,589,c),
(533,594,o),
(533,595,o),
(533,592,c),
(533,595,o),
(533,597,o),
(533,599,c),
(531,605,o),
(528,610,o),
(524,615,c),
(524,616,o),
(524,616,o),
(524,616,c),
(523,618,o),
(522,620,o),
(521,622,c),
(519,623,o),
(516,625,o),
(514,624,c),
(514,623,o),
(514,620,o),
(514,619,c),
(514,617,o),
(513,615,o),
(513,613,c),
(513,609,o),
(512,605,o),
(512,601,c),
(512,600,o),
(513,598,o),
(513,597,c),
(513,593,o),
(513,590,o),
(514,586,c),
(514,582,o),
(514,579,o),
(515,575,c),
(515,574,o),
(515,572,o),
(515,571,c),
(515,574,o),
(515,578,o),
(516,582,c),
(516,582,o),
(516,583,o),
(516,584,c),
(516,584,o),
(516,583,o),
(516,583,c),
(517,577,o),
(517,575,o),
(516,578,c),
(517,576,o),
(517,574,o),
(518,571,c),
(520,560,o),
(526,549,o),
(536,542,c),
(535,545,l),
(535,546,o),
(535,547,o),
(535,547,c),
(535,549,o),
(535,551,o),
(535,552,c),
(535,556,o),
(536,559,o),
(536,562,c),
(536,563,o),
(536,564,o),
(536,565,c),
(536,564,o),
(536,566,o),
(535,571,c),
(535,576,o),
(534,582,o),
(534,587,c)
);
}
);
width = 747;
}
);
unicode = (72,104);
},
{
glyphname = I;
lastChange = "2025-10-03 15:09:26 +0000";
layers = (
{
layerId = m01;
shapes = (
{
closed = 1;
nodes = (
(283,363,o),
(312,369,o),
(322,367,c),
(386,368,o),
(183,98,o),
(560,116,cs),
(596,118,o),
(611,64,o),
(573,44,c),
(505,10,o),
(284,20,o),
(190,24,c),
(139,27,o),
(26,46,o),
(33,83,cs),
(45,151,o),
(184,125,o),
(216,140,cs),
(286,174,o),
(227,364,o),
(268,364,c)
);
},
{
closed = 1;
nodes = (
(250,720,o),
(462,696,o),
(516,665,c),
(548,646,o),
(531,615,o),
(492,602,c),
(260,613,o),
(349,355,o),
(333,344,cs),
(305,325,o),
(296,311,o),
(266,312,c),
(236,313,o),
(296,622,o),
(168,602,c),
(132,603,o),
(101,611,o),
(70,622,c),
(33,634,o),
(19,667,o),
(48,684,c),
(64,696,o),
(92,702,o),
(126,706,c)
);
},
{
closed = 1;
nodes = (
(363,121,o),
(372,122,o),
(378,124,c),
(369,127,o),
(360,130,o),
(347,130,c),
(341,131,o),
(329,127,o),
(323,125,c),
(329,123,o),
(338,121,o),
(350,118,c)
);
},
{
closed = 1;
nodes = (
(372,661,o),
(378,665,o),
(375,667,c),
(369,676,o),
(304,686,o),
(289,681,c),
(264,670,o),
(240,676,o),
(215,677,c),
(212,677,o),
(203,676,o),
(203,675,c),
(200,673,o),
(203,671,o),
(203,670,c),
(212,667,o),
(221,664,o),
(231,664,c),
(274,662,o),
(317,661,o),
(369,659,c)
);
}
);
width = 600;
},
{
layerId = "0CE0EAA9-F711-497D-909D-736D4C3B0AC1";
shapes = (
{
closed = 1;
nodes = (
(281,204,o),
(334,181,o),
(381,182,c),
(427,184,o),
(478,207,o),
(513,162,c),
(537,130,o),
(550,70,o),
(523,36,c),
(473,-24,o),
(313,-7,o),
(244,0,c),
(207,5,o),
(166,16,o),
(141,47,c),
(115,80,o),
(133,132,o),
(154,162,c),
(176,194,o),
(204,203,o),
(234,203,c)
);
},
{
closed = 1;
nodes = (
(256,724,o),
(397,690,o),
(433,647,c),
(454,620,o),
(443,576,o),
(417,558,c),
(386,538,o),
(357,547,o),
(323,549,c),
(302,550,o),
(281,552,o),
(261,554,c),
(241,555,o),
(222,555,o),
(202,557,c),
(178,560,o),
(157,571,o),
(137,586,c),
(112,604,o),
(103,649,o),
(122,674,c),
(133,690,o),
(151,699,o),
(174,704,c)
);
},
{
closed = 1;
nodes = (
(313,121,o),
(316,122,o),
(318,124,c),
(315,127,o),
(312,130,o),
(308,130,c),
(306,131,o),
(302,127,o),
(300,125,c),
(302,123,o),
(305,121,o),
(309,118,c)
);
},
{
closed = 1;
nodes = (
(316,661,o),
(318,665,o),
(317,667,c),
(315,676,o),
(294,686,o),
(289,681,c),
(281,670,o),
(273,676,o),
(265,677,c),
(264,677,o),
(261,676,o),
(261,675,c),
(260,673,o),
(261,671,o),
(261,670,c),
(264,667,o),
(267,664,o),
(270,664,c),
(284,662,o),
(298,661,o),
(315,659,c)
);
}
);
width = 600;
}
);
unicode = (73,105);
},
{
glyphname = J;
lastChange = "2025-10-03 15:09:26 +0000";
layers = (
{
layerId = m01;
shapes = (
{
closed = 1;
nodes = (
(113,36,o),
(85,69,o),
(93,130,c),
(95,152,o),
(98,167,o),
(109,178,cs),
(156,226,o),
(139,172,o),
(234,247,cs),
(272,277,o),
(261,299,o),
(264,326,c),
(267,349,o),
(269,373,o),
(269,397,c),
(267,428,o),
(270,460,o),
(270,491,c),
(271,608,o),
(68,580,o),
(85,634,c),
(93,662,o),
(144,680,o),
(163,682,cs),
(256,691,o),
(358,702,o),
(367,653,cs),
(377,601,o),
(378,481,o),
(383,427,c),
(384,410,o),
(385,392,o),
(386,376,c),
(387,349,o),
(388,325,o),
(385,298,c),
(385,277,o),
(383,256,o),
(379,236,c),
(378,220,o),
(370,204,o),
(370,188,cs),
(370,170,o),
(362,147,o),
(357,132,c),
(346,103,o),
(331,79,o),
(315,59,cs),
(308,50,o),
(300,36,o),
(290,33,cs),
(245,19,o),
(216,23,o),
(198,24,cs),
(192,24,o),
(158,27,o),
(153,28,cs)
);
},
{
closed = 1;
nodes = (
(323,633,o),
(321,634,o),
(320,637,c),
(317,640,o),
(316,643,o),
(314,646,c),
(313,646,o),
(311,648,o),
(311,648,c),
(304,643,o),
(303,637,o),
(303,627,c),
(304,625,o),
(304,620,o),
(307,619,c),
(309,618,o),
(310,615,o),
(310,613,c),
(310,613,o),
(310,613,o),
(310,613,c),
(310,613,o),
(310,613,o),
(310,613,c),
(309,618,o),
(309,616,o),
(314,609,c),
(314,606,o),
(316,605,o),
(317,604,c),
(320,599,o),
(321,597,o),
(323,594,c),
(325,592,o),
(325,592,o),
(325,592,c),
(325,591,o),
(325,591,o),
(327,590,c),
(325,591,o),
(325,592,o),
(324,594,c),
(324,594,o),
(324,594,o),
(323,594,c),
(323,595,o),
(324,597,o),
(323,598,c),
(323,598,o),
(324,597,o),
(324,597,c),
(324,595,o),
(324,595,o),
(325,594,c),
(325,594,o),
(325,594,o),
(325,594,c),
(325,594,o),
(325,594,o),
(327,595,c),
(327,595,o),
(325,595,o),
(327,597,c),
(331,605,o),
(331,616,o),
(327,625,c),
(327,625,o),
(325,627,o),
(325,627,c)
);
}
);
width = 600;
},
{
layerId = "0CE0EAA9-F711-497D-909D-736D4C3B0AC1";
shapes = (
{
closed = 1;
nodes = (
(179,14,o),
(119,69,o),
(132,130,c),
(137,152,o),
(143,174,o),
(162,188,c),
(183,203,o),
(203,224,o),
(217,247,c),
(234,270,o),
(238,299,o),
(243,326,c),
(248,349,o),
(251,373,o),
(251,397,c),
(249,428,o),
(253,460,o),
(253,491,c),
(252,548,o),
(224,611,o),
(253,665,c),
(267,693,o),
(290,703,o),
(322,697,c),
(373,684,o),
(407,638,o),
(423,589,c),
(441,537,o),
(445,481,o),
(454,427,c),
(456,410,o),
(459,392,o),
(460,376,c),
(462,349,o),
(463,325,o),
(459,298,c),
(458,277,o),
(454,256,o),
(448,236,c),
(445,220,o),
(435,204,o),
(432,188,c),
(432,170,o),
(418,147,o),
(408,132,c),
(389,103,o),
(363,79,o),
(334,59,c),
(321,50,o),
(306,41,o),
(290,33,c),
(281,31,o),
(272,28,o),
(265,24,c),
(254,20,o),
(247,19,o),
(238,18,c)
);
},
{
closed = 1;
nodes = (
(330,624,o),
(330,626,o),
(330,628,c),
(330,631,o),
(330,633,o),
(330,635,c),
(330,636,o),
(330,638,o),
(330,638,c),
(325,637,o),
(321,634,o),
(318,629,c),
(317,627,o),
(316,625,o),
(316,623,c),
(316,622,o),
(316,620,o),
(316,619,c),
(316,619,o),
(316,619,o),
(316,619,c),
(316,619,o),
(316,619,o),
(316,619,c),
(316,622,o),
(316,621,o),
(316,615,c),
(316,614,o),
(316,612,o),
(316,611,c),
(316,608,o),
(316,605,o),
(316,603,c),
(316,601,o),
(316,601,o),
(316,601,c),
(316,600,o),
(316,600,o),
(316,599,c),
(316,600,o),
(316,601,o),
(316,602,c),
(316,602,o),
(316,602,o),
(316,603,c),
(316,604,o),
(317,604,o),
(317,605,c),
(317,605,o),
(317,604,o),
(317,604,c),
(317,603,o),
(317,603,o),
(317,602,c),
(317,602,o),
(317,602,o),
(317,602,c),
(317,602,o),
(317,602,o),
(318,602,c),
(318,602,o),
(318,603,o),
(319,603,c),
(324,607,o),
(328,612,o),
(330,619,c),
(330,619,o),
(330,621,o),
(330,621,c)
);
}
);
width = 600;
}
);
unicode = (74,106);
},
{
glyphname = K;
lastChange = "2025-10-03 15:09:26 +0000";
layers = (
{
layerId = m01;
shapes = (
{
closed = 1;
nodes = (
(152,-23,o),
(177,-6,o),
(182,42,c),
(183,68,o),
(176,93,o),
(170,117,c),
(160,161,o),
(160,205,o),
(160,250,c),
(160,305,o),
(180,399,o),
(460,268,c),
(489,292,o),
(464,322,o),
(433,334,cs),
(244,406,o),
(443,561,o),
(507,613,c),
(518,627,o),
(570,643,o),
(540,700,c),
(538,702,o),
(508,724,o),
(506,725,c),
(496,736,o),
(469,727,o),
(460,716,c),
(456,712,o),
(386,624,o),
(381,619,c),
(367,607,o),
(283,538,o),
(270,523,c),
(239,490,o),
(179,470,o),
(137,491,c),
(74,524,o),
(135,634,o),
(120,695,c),
(119,697,o),
(78,716,o),
(78,716,cs),
(26,715,o),
(23,687,o),
(22,684,c),
(-6,611,o),
(76,531,o),
(78,453,c),
(80,406,o),
(75,356,o),
(66,308,cs),
(63,294,o),
(55,262,o),
(52,247,cs),
(44,201,o),
(60,158,o),
(66,111,c),
(71,74,o),
(74,10,o),
(112,-7,c)
);
},
{
closed = 1;
nodes = (
(756,50,o),
(751,96,o),
(730,134,c),
(692,199,o),
(557,264,o),
(496,306,c),
(493,309,o),
(343,379,o),
(325,380,c),
(305,381,o),
(296,391,o),
(296,343,c),
(304,312,o),
(462,225,o),
(489,205,cs),
(533,172,o),
(540,131,o),
(576,100,cs),
(622,60,o),
(622,-23,o),
(710,32,c)
);
},
{
closed = 1;
nodes = (
(693,106,o),
(693,105,o),
(693,104,c),
(690,94,o),
(682,99,o),
(678,104,c),
(667,120,o),
(656,135,o),
(644,150,c),
(642,153,o),
(640,156,o),
(641,160,c),
(641,163,o),
(644,166,o),
(646,166,c),
(649,167,o),
(651,165,o),
(653,164,c),
(665,155,o),
(676,142,o),
(684,127,c),
(686,123,o),
(692,113,o),
(692,107,c)
);
},
{
closed = 1;
nodes = (
(476,645,o),
(476,645,o),
(475,645,c),
(468,646,o),
(470,652,o),
(473,654,c),
(482,663,o),
(491,671,o),
(501,680,c),
(503,681,o),
(504,683,o),
(507,683,c),
(509,683,o),
(512,682,o),
(512,681,c),
(513,679,o),
(512,677,o),
(511,676,c),
(507,668,o),
(499,660,o),
(489,653,c),
(487,652,o),
(481,647,o),
(477,646,c)
);
}
);
width = 745;
},
{
layerId = "0CE0EAA9-F711-497D-909D-736D4C3B0AC1";
shapes = (
{
closed = 1;
nodes = (
(173,-11,o),
(243,7,o),
(248,55,c),
(249,81,o),
(242,106,o),
(236,130,c),
(226,174,o),
(226,218,o),
(226,263,c),
(226,318,o),
(285,332,o),
(320,361,c),
(338,376,o),
(346,394,o),
(351,413,cs),
(359,450,o),
(353,490,o),
(381,524,c),
(392,538,o),
(409,552,o),
(400,571,c),
(398,573,o),
(397,575,o),
(395,576,c),
(385,587,o),
(364,589,o),
(355,578,c),
(351,574,o),
(347,569,o),
(342,564,c),
(328,552,o),
(313,538,o),
(300,523,c),
(269,490,o),
(209,470,o),
(167,491,c),
(104,524,o),
(115,638,o),
(100,699,c),
(99,701,o),
(95,705,o),
(95,705,c),
(91,704,o),
(87,702,o),
(86,699,c),
(58,626,o),
(106,531,o),
(108,453,c),
(110,406,o),
(106,340,o),
(73,305,c),
(63,294,o),
(50,286,o),
(40,275,c),
(3,234,o),
(76,158,o),
(82,111,c),
(87,74,o),
(95,22,o),
(133,5,c)
);
},
{
closed = 1;
nodes = (
(786,30,o),
(781,96,o),
(760,134,c),
(722,199,o),
(627,247,o),
(566,289,c),
(563,292,o),
(544,295,o),
(526,296,c),
(506,297,o),
(486,297,o),
(486,295,c),
(494,264,o),
(522,233,o),
(537,205,c),
(554,172,o),
(570,138,o),
(590,107,c),
(621,56,o),
(672,-17,o),
(740,12,c)
);
},
{
closed = 1;
nodes = (
(726,103,o),
(726,102,o),
(726,101,c),
(720,92,o),
(710,99,o),
(705,105,c),
(692,123,o),
(679,141,o),
(666,158,c),
(663,162,o),
(661,165,o),
(663,169,c),
(663,172,o),
(668,174,o),
(671,174,c),
(676,174,o),
(678,171,o),
(681,170,c),
(696,158,o),
(709,143,o),
(717,126,c),
(719,121,o),
(725,110,o),
(725,104,c)
);
},
{
closed = 1;
nodes = (
(370,553,o),
(370,553,o),
(370,553,c),
(371,553,o),
(371,552,o),
(371,552,c),
(370,551,o),
(369,551,o),
(368,550,c),
(368,550,o),
(368,549,o),
(367,549,c),
(367,549,o),
(367,550,o),
(367,550,c),
(367,550,o),
(367,550,o),
(367,550,c),
(367,551,o),
(368,552,o),
(369,552,c),
(369,552,o),
(370,553,o),
(370,553,c)
);
}
);
width = 805;
}
);
unicode = (75,107);
},
{
glyphname = L;
lastChange = "2025-10-03 15:09:26 +0000";
layers = (
{
layerId = m01;
shapes = (
{
closed = 1;
nodes = (
(81,622,o),
(150,613,o),
(154,594,c),
(165,547,o),
(105,273,o),
(126,229,c),
(150,180,o),
(187,136,o),
(241,121,c),
(235,124,o),
(230,128,o),
(225,132,c),
(221,135,o),
(218,143,o),
(223,145,c),
(230,147,o),
(230,133,o),
(236,130,c),
(236,133,o),
(235,136,o),
(235,140,c),
(302,97,o),
(422,208,o),
(495,194,c),
(507,195,o),
(522,193,o),
(528,186,c),
(536,175,o),
(524,159,o),
(533,148,c),
(534,160,o),
(536,170,o),
(543,180,c),
(544,183,o),
(565,162,o),
(565,156,c),
(568,160,o),
(571,164,o),
(575,167,c),
(592,152,o),
(591,129,o),
(579,107,c),
(557,91,o),
(503,72,o),
(466,54,c),
(418,31,o),
(367,12,o),
(313,11,c),
(231,10,o),
(105,27,o),
(63,102,c),
(32,156,o),
(37,223,o),
(47,284,c),
(56,337,o),
(73,576,o),
(63,632,c)
);
},
{
closed = 1;
nodes = (
(132,260,o),
(133,257,o),
(132,252,c),
(131,237,o),
(136,229,o),
(150,223,c),
(154,221,o),
(162,209,o),
(163,205,c),
(164,200,o),
(165,195,o),
(168,191,c),
(177,180,o),
(186,168,o),
(196,157,c),
(199,154,o),
(203,153,o),
(208,153,c),
(203,160,o),
(192,161,o),
(191,173,c),
(194,171,o),
(198,170,o),
(200,168,c),
(206,162,o),
(210,155,o),
(219,154,c),
(217,152,o),
(215,149,o),
(213,148,c),
(211,146,o),
(209,145,o),
(207,145,c),
(198,145,o),
(191,149,o),
(184,154,c),
(169,168,o),
(157,183,o),
(151,203,c),
(149,208,o),
(145,213,o),
(141,217,c),
(128,228,o),
(120,241,o),
(125,259,c),
(125,260,o),
(126,261,o),
(126,263,c)
);
},
{
closed = 1;
nodes = (
(61,676,o),
(74,703,o),
(100,716,c),
(133,696,o),
(146,663,o),
(153,630,c),
(157,546,o),
(150,506,o),
(118,500,c),
(91,493,o),
(86,526,o),
(80,552,c),
(73,565,o),
(61,630,o),
(61,650,c)
);
},
{
closed = 1;
nodes = (
(115,277,o),
(112,285,o),
(115,294,c),
(117,287,o),
(119,281,o),
(122,273,c)
);
},
{
closed = 1;
nodes = (
(176,191,o),
(180,188,o),
(183,185,c),
(184,185,o),
(184,183,o),
(184,183,c),
(183,182,o),
(181,182,o),
(180,182,c),
(177,186,o),
(174,189,o),
(171,193,c),
(171,193,o),
(172,193,o),
(172,194,c)
);
}
);
width = 600;
},
{
layerId = "0CE0EAA9-F711-497D-909D-736D4C3B0AC1";
shapes = (
{
closed = 1;
nodes = (
(80,429,o),
(97,406,o),
(101,387,c),
(112,340,o),
(109,290,o),
(130,246,c),
(154,197,o),
(191,153,o),
(245,138,c),
(239,141,o),
(234,145,o),
(229,149,c),
(225,152,o),
(222,160,o),
(227,162,c),
(234,164,o),
(234,150,o),
(240,147,c),
(240,150,o),
(239,153,o),
(239,157,c),
(306,114,o),
(422,208,o),
(495,213,c),
(507,214,o),
(522,212,o),
(528,202,c),
(536,188,o),
(524,168,o),
(533,154,c),
(534,169,o),
(536,182,o),
(543,195,c),
(544,198,o),
(565,171,o),
(565,164,c),
(568,169,o),
(571,174,o),
(575,178,c),
(592,159,o),
(591,129,o),
(579,107,c),
(557,69,o),
(503,50,o),
(466,32,c),
(418,9,o),
(367,-10,o),
(313,-11,c),
(231,-12,o),
(73,27,o),
(31,102,c),
(0,156,o),
(5,223,o),
(15,284,c),
(24,337,o),
(48,387,o),
(62,439,c)
);
},
{
closed = 1;
nodes = (
(136,277,o),
(137,274,o),
(136,269,c),
(135,254,o),
(140,246,o),
(154,240,c),
(158,238,o),
(166,226,o),
(167,222,c),
(168,217,o),
(169,212,o),
(172,208,c),
(181,197,o),
(190,185,o),
(200,174,c),
(203,171,o),
(207,170,o),
(212,170,c),
(207,177,o),
(196,178,o),
(195,190,c),
(198,188,o),
(202,187,o),
(204,185,c),
(210,179,o),
(214,172,o),
(223,171,c),
(221,169,o),
(219,166,o),
(217,165,c),
(215,163,o),
(213,162,o),
(211,162,c),
(202,162,o),
(195,166,o),
(188,171,c),
(173,185,o),
(161,200,o),
(155,220,c),
(153,225,o),
(149,230,o),
(145,234,c),
(132,245,o),
(124,258,o),
(129,276,c),
(129,277,o),
(130,278,o),
(130,280,c)
);
},
{
closed = 1;
nodes = (
(61,565,o),
(63,569,o),
(67,571,c),
(72,568,o),
(74,563,o),
(75,558,c),
(77,553,o),
(76,547,o),
(71,546,c),
(67,545,o),
(63,550,o),
(62,554,c),
(61,556,o),
(61,558,o),
(61,561,c)
);
},
{
closed = 1;
nodes = (
(119,294,o),
(116,302,o),
(119,311,c),
(121,304,o),
(123,298,o),
(126,290,c)
);
},
{
closed = 1;
nodes = (
(180,208,o),
(184,205,o),
(187,202,c),
(188,202,o),
(188,200,o),
(188,200,c),
(187,199,o),
(185,199,o),
(184,199,c),
(181,203,o),
(178,206,o),
(175,210,c),
(175,210,o),
(176,210,o),
(176,211,c)
);
}
);
width = 600;
}
);
unicode = (76,108);
},
{
glyphname = M;
lastChange = "2025-10-03 15:09:26 +0000";
layers = (
{
layerId = m01;
shapes = (
{
closed = 1;
nodes = (
(351,636,o),
(366,628,o),
(384,626,c),
(368,634,o),
(353,642,o),
(339,650,c)
);
},
{
closed = 1;
nodes = (
(823,321,o),
(818,418,o),
(773,507,c),
(812,417,o),
(820,320,o),
(832,224,c)
);
},
{
closed = 1;
nodes = (
(767,518,o),
(768,518,o),
(770,520,c),
(758,537,o),
(748,555,o),
(737,571,c),
(718,597,o),
(697,621,o),
(689,653,c),
(689,654,o),
(689,655,o),
(689,655,c),
(685,656,o),
(683,659,o),
(681,658,c),
(679,658,o),
(677,653,o),
(677,652,c),
(681,636,o),
(685,620,o),
(695,607,c),
(721,579,o),
(748,551,o),
(767,517,c)
);
},
{
closed = 1;
nodes = (
(462,540,o),
(465,545,o),
(468,550,c),
(478,572,o),
(494,587,o),
(517,592,c),
(529,595,o),
(543,596,o),
(555,597,c),
(565,598,o),
(575,598,o),
(584,599,c),
(584,600,o),
(584,602,o),
(584,603,c),
(582,604,o),
(579,605,o),
(578,605,c),
(549,612,o),
(521,610,o),
(494,597,c),
(471,588,o),
(457,560,o),
(460,535,c)
);
},
{
closed = 1;
nodes = (
(719,654,o),
(719,650,o),
(722,646,c),
(731,626,o),
(739,605,o),
(749,586,c),
(789,513,o),
(816,436,o),
(829,354,c),
(835,311,o),
(840,267,o),
(846,224,c),
(847,219,o),
(848,216,o),
(848,213,c),
(843,372,o),
(799,520,o),
(719,658,c)
);
},
{
closed = 1;
nodes = (
(153,572,o),
(199,646,o),
(232,663,c),
(233,664,o),
(234,666,o),
(237,666,c),
(258,669,o),
(279,674,o),
(301,675,c),
(313,675,o),
(327,669,o),
(339,664,c),
(366,628,o),
(418,623,o),
(441,625,c),
(458,626,o),
(476,631,o),
(493,635,c),
(558,652,o),
(618,712,o),
(687,712,c),
(843,715,o),
(854,432,o),
(878,324,c),
(881,314,o),
(879,304,o),
(882,295,c),
(906,195,o),
(963,109,o),
(882,21,c),
(797,-68,o),
(767,107,o),
(758,170,c),
(742,279,o),
(719,394,o),
(666,496,c),
(626,572,o),
(518,485,o),
(499,442,c),
(489,420,o),
(479,399,o),
(473,375,c),
(444,328,o),
(461,310,o),
(453,293,c),
(428,242,o),
(411,192,o),
(384,278,c),
(364,334,o),
(391,450,o),
(357,500,c),
(329,540,o),
(222,468,o),
(167,422,cs),
(134,395,o),
(121,507,o),
(137,541,c)
);
},
{
closed = 1;
nodes = (
(90,168,o),
(81,314,o),
(114,314,cs),
(175,314,o),
(158,79,o),
(158,42,cs),
(158,22,o),
(123,-37,o),
(56,0,cs),
(-6,34,o),
(24,94,o),
(29,122,c),
(34,144,o),
(45,289,o),
(64,306,c),
(69,310,o),
(78,314,o),
(85,317,c),
(88,314,o),
(91,321,o),
(99,318,cs),
(105,316,o),
(111,316,o),
(114,311,c),
(117,301,o),
(98,146,o),
(98,138,c),
(101,138,o),
(88,138,o),
(90,138,c)
);
},
{
closed = 1;
nodes = (
(153,482,o),
(148,442,o),
(140,396,c),
(146,390,o),
(126,390,o),
(129,390,c),
(137,430,o),
(147,474,o),
(157,515,c),
(158,515,o),
(158,515,o),
(161,515,c),
(161,483,o),
(213,477,o),
(167,422,cs),
(137,386,o),
(144,320,o),
(142,269,cs),
(141,241,o),
(56,248,o),
(56,283,cs),
(56,357,o),
(92,489,o),
(137,541,c),
(137,541,o),
(161,531,o),
(161,531,c)
);
}
);
width = 944;
},
{
layerId = "0CE0EAA9-F711-497D-909D-736D4C3B0AC1";
shapes = (
{
closed = 1;
nodes = (
(351,636,o),
(366,628,o),
(384,626,c),
(368,634,o),
(353,642,o),
(339,650,c)
);
},
{
closed = 1;
nodes = (
(805,329,o),
(800,426,o),
(755,515,c),
(794,425,o),
(802,328,o),
(814,232,c)
);
},
{
closed = 1;
nodes = (
(749,526,o),
(750,526,o),
(752,528,c),
(740,545,o),
(730,563,o),
(719,579,c),
(700,605,o),
(679,629,o),
(671,661,c),
(671,662,o),
(671,663,o),
(671,663,c),
(667,664,o),
(665,667,o),
(663,666,c),
(661,666,o),
(659,661,o),
(659,660,c),
(663,644,o),
(667,628,o),
(677,615,c),
(703,587,o),
(730,559,o),
(749,525,c)
);
},
{
closed = 1;
nodes = (
(462,531,o),
(465,536,o),
(468,541,c),
(478,563,o),
(494,578,o),
(517,583,c),
(529,586,o),
(543,587,o),
(555,588,c),
(565,589,o),
(575,589,o),
(584,590,c),
(584,591,o),
(584,593,o),
(584,594,c),
(582,595,o),
(579,596,o),
(578,596,c),
(549,603,o),
(521,601,o),
(494,588,c),
(471,579,o),
(457,551,o),
(460,526,c)
);
},
{
closed = 1;
nodes = (
(701,662,o),
(701,658,o),
(704,654,c),
(713,634,o),
(721,613,o),
(731,594,c),
(771,521,o),
(798,444,o),
(811,362,c),
(817,319,o),
(822,275,o),
(828,232,c),
(829,227,o),
(830,224,o),
(830,221,c),
(825,380,o),
(781,528,o),
(701,666,c)
);
},
{
closed = 1;
nodes = (
(197,629,o),
(228,646,o),
(261,663,c),
(262,664,o),
(263,666,o),
(266,666,c),
(287,669,o),
(308,674,o),
(330,675,c),
(342,675,o),
(356,669,o),
(368,664,c),
(390,656,o),
(413,651,o),
(436,653,c),
(453,654,o),
(471,659,o),
(488,663,c),
(553,680,o),
(618,712,o),
(687,712,c),
(843,715,o),
(871,458,o),
(895,350,c),
(898,340,o),
(896,330,o),
(899,321,c),
(923,221,o),
(963,109,o),
(882,21,c),
(797,-68,o),
(704,107,o),
(695,170,c),
(679,279,o),
(719,394,o),
(666,496,c),
(626,572,o),
(544,485,o),
(525,442,c),
(515,420,o),
(505,399,o),
(499,375,c),
(495,355,o),
(486,337,o),
(478,320,c),
(453,269,o),
(398,219,o),
(371,305,c),
(351,361,o),
(366,443,o),
(332,493,c),
(304,533,o),
(252,532,o),
(209,537,c),
(169,541,o),
(165,564,o),
(181,598,c)
);
},
{
closed = 1;
nodes = (
(85,150,o),
(87,168,o),
(88,188,c),
(112,173,o),
(99,103,o),
(99,80,c),
(99,68,o),
(96,52,o),
(81,52,c),
(50,50,o),
(57,104,o),
(59,121,c),
(61,135,o),
(59,173,o),
(67,183,c),
(69,186,o),
(73,188,o),
(76,190,c),
(77,188,o),
(81,185,o),
(81,182,c),
(82,170,o),
(82,159,o),
(82,148,c),
(83,142,o),
(82,136,o),
(82,131,c),
(83,131,o),
(84,131,o),
(85,131,c)
);
},
{
closed = 1;
nodes = (
(99,431,o),
(97,415,o),
(94,399,c),
(96,397,o),
(97,397,o),
(98,397,c),
(101,411,o),
(105,426,o),
(108,440,c),
(109,440,o),
(109,440,o),
(110,440,c),
(110,429,o),
(113,418,o),
(112,408,c),
(109,393,o),
(110,361,o),
(94,351,c),
(79,340,o),
(75,366,o),
(74,376,c),
(72,402,o),
(84,431,o),
(101,449,c),
(101,449,o),
(102,448,o),
(102,448,c)
);
}
);
width = 944;
}
);
unicode = (77,109);
},
{
glyphname = N;
lastChange = "2025-10-03 15:09:26 +0000";
layers = (
{
layerId = m01;
shapes = (
{
closed = 1;
nodes = (
(554,394,o),
(551,392,o),
(549,391,c),
(546,354,o),
(545,320,o),
(543,283,c),
(546,284,o),
(546,284,o),
(546,284,c),
(555,321,o),
(563,360,o),
(554,394,c)
);
},
{
closed = 1;
nodes = (
(620,668,o),
(623,652,o),
(612,632,cs),
(542,510,o),
(618,243,o),
(600,117,c),
(594,69,o),
(570,15,o),
(520,6,c),
(484,-1,o),
(435,20,o),
(404,44,c),
(362,81,o),
(252,262,o),
(240,318,c),
(225,383,o),
(402,175,o),
(450,200,c),
(493,221,o),
(470,351,o),
(484,398,c),
(429,582,o),
(420,632,o),
(470,673,c),
(490,692,o),
(531,710,o),
(571,700,c),
(600,692,o),
(616,680,o),
(618,674,cs)
);
},
{
closed = 1;
nodes = (
(123,556,o),
(125,540,o),
(128,528,c),
(129,529,o),
(129,532,o),
(128,534,c),
(126,542,o),
(126,550,o),
(125,558,c),
(123,562,o),
(125,569,o),
(121,571,c),
(122,574,o),
(123,576,o),
(123,579,c),
(123,587,o),
(123,597,o),
(125,606,c),
(125,613,o),
(126,618,o),
(126,623,c),
(126,623,o),
(125,623,o),
(125,623,c),
(125,622,o),
(123,620,o),
(123,620,c),
(123,614,o),
(122,607,o),
(122,602,c),
(121,591,o),
(121,581,o),
(121,571,c)
);
},
{
closed = 1;
nodes = (
(132,622,o),
(132,638,o),
(137,653,c),
(137,651,o),
(139,650,o),
(139,649,c),
(148,613,o),
(148,574,o),
(158,539,c),
(168,507,o),
(310,262,o),
(351,224,c),
(415,-19,o),
(165,369,o),
(134,359,c),
(98,346,o),
(110,197,o),
(36,142,c),
(8,186,o),
(43,487,o),
(47,533,c),
(48,541,o),
(49,549,o),
(49,556,c),
(51,591,o),
(56,646,o),
(77,671,c),
(88,685,o),
(97,688,o),
(110,681,c),
(138,670,o),
(132,642,o),
(127,608,c),
(127,608,o),
(128,608,o),
(129,608,c)
);
},
{
closed = 1;
nodes = (
(33,27,o),
(29,135,o),
(29,183,c),
(43,321,o),
(45,379,o),
(57,407,c),
(74,441,o),
(97,383,o),
(102,321,c),
(107,249,o),
(92,79,o),
(74,63,c)
);
}
);
width = 600;
},
{
layerId = "0CE0EAA9-F711-497D-909D-736D4C3B0AC1";
shapes = (
{
closed = 1;
nodes = (
(556,278,o),
(555,277,o),
(553,277,c),
(552,242,o),
(552,210,o),
(550,175,c),
(552,175,o),
(552,175,o),
(552,175,c),
(556,209,o),
(561,243,o),
(556,278,c)
);
},
{
closed = 1;
nodes = (
(599,506,o),
(598,501,o),
(597,494,c),
(567,372,o),
(618,243,o),
(600,117,c),
(594,69,o),
(570,15,o),
(520,6,c),
(484,-1,o),
(450,21,o),
(419,45,c),
(377,82,o),
(336,129,o),
(324,185,c),
(309,250,o),
(356,257,o),
(404,282,c),
(447,303,o),
(470,351,o),
(484,398,c),
(499,444,o),
(506,494,o),
(533,535,c),
(544,554,o),
(566,572,o),
(587,562,c),
(603,554,o),
(603,532,o),
(600,512,c)
);
},
{
closed = 1;
nodes = (
(134,556,o),
(137,540,o),
(142,528,c),
(143,529,o),
(143,532,o),
(142,534,c),
(140,542,o),
(138,550,o),
(137,558,c),
(135,562,o),
(137,569,o),
(132,571,c),
(133,574,o),
(134,576,o),
(135,579,c),
(135,587,o),
(135,597,o),
(137,606,c),
(137,613,o),
(138,618,o),
(138,623,c),
(138,623,o),
(137,623,o),
(137,623,c),
(137,622,o),
(135,620,o),
(135,620,c),
(135,614,o),
(133,607,o),
(133,602,c),
(132,591,o),
(132,581,o),
(132,571,c)
);
},
{
closed = 1;
nodes = (
(148,622,o),
(147,638,o),
(154,653,c),
(156,651,o),
(158,650,o),
(158,649,c),
(171,613,o),
(170,574,o),
(186,539,c),
(200,507,o),
(230,471,o),
(221,433,c),
(213,396,o),
(170,397,o),
(139,387,c),
(103,374,o),
(58,351,o),
(31,392,c),
(3,436,o),
(16,487,o),
(22,533,c),
(23,541,o),
(25,549,o),
(25,556,c),
(27,591,o),
(36,646,o),
(66,671,c),
(82,685,o),
(96,688,o),
(116,681,c),
(157,670,o),
(147,642,o),
(141,608,c),
(141,608,o),
(142,608,o),
(143,608,c)
);
},
{
closed = 1;
nodes = (
(33,27,o),
(29,135,o),
(29,149,c),
(29,163,o),
(31,180,o),
(43,188,c),
(60,198,o),
(83,181,o),
(88,163,c),
(93,142,o),
(92,79,o),
(74,63,c)
);
}
);
width = 600;
}
);
unicode = (78,110);
},
{
glyphname = O;
lastChange = "2025-10-03 15:09:26 +0000";
layers = (
{
layerId = m01;
shapes = (
{
closed = 1;
nodes = (
(152,11,o),
(142,18,o),
(134,24,c),
(44,96,o),
(7,229,o),
(49,489,c),
(67,629,o),
(84,530,o),
(100,359,c),
(120,263,o),
(147,235,o),
(174,210,c),
(216,171,o),
(324,139,o),
(374,165,c),
(414,185,o),
(430,235,o),
(430,280,c),
(430,325,o),
(429,395,o),
(419,465,c),
(403,569,o),
(422,589,o),
(467,603,cs),
(490,611,o),
(504,616,o),
(539,555,c),
(572,495,o),
(585,416,o),
(570,335,c),
(550,219,o),
(487,111,o),
(396,37,c),
(360,8,o),
(318,-17,o),
(271,-21,c),
(233,-25,o),
(196,-14,o),
(163,5,c)
);
},
{
closed = 1;
nodes = (
(307,716,o),
(371,708,o),
(426,672,cs),
(452,655,o),
(671,492,o),
(413,520,c),
(396,619,o),
(317,620,o),
(255,624,c),
(216,628,o),
(87,580,o),
(86,500,cs),
(84,385,o),
(58,495,o),
(58,509,cs),
(58,559,o),
(73,615,o),
(86,634,c),
(101,669,o),
(171,705,o),
(240,711,c)
);
},
{
closed = 1;
nodes = (
(520,396,o),
(515,394,o),
(513,394,c),
(509,357,o),
(508,323,o),
(505,286,c),
(510,287,o),
(510,287,o),
(510,287,c),
(521,325,o),
(532,363,o),
(520,396,c)
);
}
);
width = 600;
},
{
layerId = "0CE0EAA9-F711-497D-909D-736D4C3B0AC1";
shapes = (
{
closed = 1;
nodes = (
(152,11,o),
(142,18,o),
(134,24,c),
(44,96,o),
(7,229,o),
(49,336,c),
(67,381,o),
(90,309,o),
(100,294,c),
(120,263,o),
(147,235,o),
(174,210,c),
(216,171,o),
(278,139,o),
(328,165,c),
(368,185,o),
(384,235,o),
(384,280,c),
(384,325,o),
(372,370,o),
(374,415,c),
(375,460,o),
(395,510,o),
(438,526,c),
(481,543,o),
(533,515,o),
(557,473,c),
(579,432,o),
(578,381,o),
(570,335,c),
(550,219,o),
(487,111,o),
(396,37,c),
(360,8,o),
(318,-17,o),
(271,-21,c),
(233,-25,o),
(196,-14,o),
(163,5,c)
);
},
{
closed = 1;
nodes = (
(346,721,o),
(386,714,o),
(413,691,c),
(438,670,o),
(467,615,o),
(429,594,c),
(397,577,o),
(349,620,o),
(316,624,c),
(295,628,o),
(274,631,o),
(254,634,c),
(245,635,o),
(236,639,o),
(232,648,c),
(232,650,o),
(230,653,o),
(231,655,c),
(239,690,o),
(273,710,o),
(310,716,c)
);
},
{
closed = 1;
nodes = (
(514,430,o),
(506,428,o),
(502,428,c),
(496,391,o),
(494,357,o),
(489,320,c),
(497,321,o),
(497,321,o),
(497,321,c),
(516,359,o),
(534,397,o),
(514,430,c)
);
}
);
width = 600;
}
);
unicode = (79,111);
},
{
glyphname = P;
lastChange = "2025-10-03 15:09:26 +0000";
layers = (
{
layerId = m01;
shapes = (
{
closed = 1;
nodes = (
(278,372,o),
(278,371,o),
(278,371,c),
(278,371,o),
(276,370,o),
(275,370,c),
(263,367,o),
(248,364,o),
(234,361,c),
(230,360,o),
(231,357,o),
(233,356,c),
(240,352,o),
(245,352,o),
(252,353,c),
(262,355,o),
(272,356,o),
(280,360,c),
(285,361,o),
(288,364,o),
(290,368,c),
(286,368,o),
(282,371,o),
(279,372,c)
);
},
{
closed = 1;
nodes = (
(202,356,o),
(202,360,o),
(198,363,c),
(191,366,o),
(183,369,o),
(176,371,c),
(169,373,o),
(165,370,o),
(168,365,c),
(172,359,o),
(174,352,o),
(177,348,c),
(181,343,o),
(188,340,o),
(193,342,c),
(198,344,o),
(202,347,o),
(203,353,c)
);
},
{
closed = 1;
nodes = (
(426,484,o),
(424,485,o),
(423,485,c),
(422,482,o),
(419,478,o),
(418,475,c),
(411,466,o),
(412,455,o),
(402,446,c),
(402,446,o),
(402,445,o),
(401,445,c),
(395,437,o),
(390,428,o),
(385,420,c),
(380,416,o),
(375,411,o),
(373,407,c),
(372,405,o),
(372,402,o),
(373,401,c),
(374,401,o),
(378,400,o),
(379,402,c),
(385,405,o),
(388,408,o),
(392,411,c),
(402,427,o),
(413,442,o),
(419,457,c),
(422,463,o),
(422,470,o),
(424,477,c),
(424,479,o),
(427,481,o),
(426,484,c)
);
},
{
closed = 1;
nodes = (
(414,570,o),
(402,602,o),
(355,616,c),
(320,628,o),
(283,607,o),
(260,584,c),
(232,555,o),
(137,446,o),
(189,406,c),
(268,346,o),
(398,472,o),
(410,535,c)
);
},
{
closed = 1;
nodes = (
(515,539,o),
(515,512,o),
(512,486,c),
(509,462,o),
(506,437,o),
(493,416,c),
(473,387,o),
(448,346,o),
(410,311,cs),
(400,302,o),
(343,275,o),
(304,248,cs),
(265,221,o),
(258,197,o),
(243,164,cs),
(223,119,o),
(224,84,o),
(205,39,c),
(201,30,o),
(153,3,o),
(136,8,cs),
(88,21,o),
(77,35,o),
(77,70,cs),
(77,235,o),
(81,237,o),
(61,292,cs),
(-8,482,o),
(10,504,o),
(191,672,cs),
(231,709,o),
(448,724,o),
(460,704,cs),
(493,650,o),
(507,629,o),
(513,565,c)
);
}
);
width = 600;
},
{
layerId = "0CE0EAA9-F711-497D-909D-736D4C3B0AC1";
shapes = (
{
closed = 1;
nodes = (
(293,415,o),
(293,414,o),
(293,414,c),
(293,414,o),
(291,414,o),
(290,414,c),
(280,412,o),
(268,410,o),
(256,408,c),
(253,408,o),
(253,405,o),
(254,403,c),
(260,399,o),
(264,398,o),
(270,399,c),
(279,400,o),
(287,400,o),
(294,403,c),
(298,404,o),
(301,407,o),
(303,410,c),
(300,411,o),
(296,414,o),
(294,415,c)
);
},
{
closed = 1;
nodes = (
(228,406,o),
(229,410,o),
(226,413,c),
(220,417,o),
(214,421,o),
(208,423,c),
(202,426,o),
(199,423,o),
(201,418,c),
(204,412,o),
(205,405,o),
(207,400,c),
(210,395,o),
(216,391,o),
(220,393,c),
(224,395,o),
(228,397,o),
(229,403,c)
);
},
{
closed = 1;
nodes = (
(425,514,o),
(424,515,o),
(423,515,c),
(421,512,o),
(419,509,o),
(418,506,c),
(411,497,o),
(411,486,o),
(402,478,c),
(402,478,o),
(402,477,o),
(401,477,c),
(396,470,o),
(391,461,o),
(386,454,c),
(382,450,o),
(377,446,o),
(375,442,c),
(374,440,o),
(374,437,o),
(375,436,c),
(376,436,o),
(379,435,o),
(380,436,c),
(385,439,o),
(388,442,o),
(391,444,c),
(401,459,o),
(411,473,o),
(417,488,c),
(420,494,o),
(420,501,o),
(423,507,c),
(423,509,o),
(425,511,o),
(425,514,c)
);
},
{
closed = 1;
nodes = (
(406,591,o),
(397,618,o),
(361,630,c),
(335,640,o),
(307,622,o),
(289,603,c),
(268,579,o),
(196,488,o),
(235,454,c),
(295,404,o),
(394,509,o),
(403,562,c)
);
},
{
closed = 1;
nodes = (
(536,510,o),
(536,483,o),
(533,457,c),
(530,433,o),
(527,408,o),
(514,387,c),
(487,336,o),
(426,314,o),
(369,302,c),
(312,291,o),
(252,285,o),
(203,252,c),
(163,226,o),
(136,181,o),
(129,134,c),
(124,87,o),
(136,39,o),
(127,-6,c),
(125,-15,o),
(122,-24,o),
(114,-26,c),
(99,-32,o),
(88,-12,o),
(85,4,c),
(71,84,o),
(62,185,o),
(66,285,cs),
(75,491,o),
(144,697,o),
(360,733,c),
(423,744,o),
(419,743,o),
(460,704,cs),
(505,661,o),
(528,600,o),
(534,536,c)
);
}
);
width = 600;
}
);
unicode = (80,112);
},
{
glyphname = Q;
lastChange = "2025-10-03 15:09:26 +0000";
layers = (
{
layerId = m01;
shapes = (
{
closed = 1;
nodes = (
(469,172,o),
(470,172,o),
(471,171,c),
(478,179,o),
(485,188,o),
(491,194,c),
(485,188,o),
(476,180,o),
(469,173,c)
);
},
{
closed = 1;
nodes = (
(443,162,o),
(445,161,o),
(446,161,c),
(450,167,o),
(453,175,o),
(458,180,c),
(464,187,o),
(471,191,o),
(477,196,c),
(469,195,o),
(461,194,o),
(453,192,c),
(450,191,o),
(446,188,o),
(445,184,c),
(443,177,o),
(443,169,o),
(442,162,c)
);
},
{
closed = 1;
nodes = (
(378,668,o),
(376,672,o),
(374,679,c),
(375,679,o),
(375,680,o),
(376,682,c),
(391,664,o),
(405,649,o),
(420,632,c),
(420,633,o),
(421,634,o),
(421,634,c),
(412,649,o),
(321,700,o),
(312,712,c),
(306,715,o),
(245,732,o),
(246,735,c),
(246,741,o),
(250,742,o),
(254,743,c),
(349,757,o),
(462,657,o),
(481,626,cs),
(519,564,o),
(526,551,o),
(553,500,c),
(573,466,o),
(554,404,o),
(562,362,c),
(569,319,o),
(550,280,o),
(543,239,c),
(543,237,o),
(541,234,o),
(541,232,c),
(542,219,o),
(536,208,o),
(529,198,c),
(518,183,o),
(512,166,o),
(521,141,c),
(529,86,o),
(598,-30,o),
(535,-22,c),
(515,-21,o),
(499,-11,o),
(483,0,c),
(446,25,o),
(347,76,o),
(316,108,c),
(294,131,o),
(254,171,o),
(300,175,c),
(327,192,o),
(430,210,o),
(458,223,c),
(498,241,o),
(508,356,o),
(500,392,cs),
(491,430,o),
(474,470,o),
(424,526,c),
(390,564,o),
(347,673,o),
(307,688,c),
(306,690,o),
(311,697,o),
(312,700,c),
(312,701,o),
(315,701,o),
(317,701,c),
(327,701,o),
(364,675,o),
(372,668,c),
(374,665,o),
(377,664,o),
(379,663,c),
(379,663,o),
(380,664,o),
(380,664,c)
);
},
{
closed = 1;
nodes = (
(113,573,o),
(197,642,o),
(282,717,c),
(261,699,o),
(204,665,o),
(160,588,c),
(207,671,o),
(300,727,o),
(334,668,c),
(286,668,o),
(263,648,o),
(252,640,c),
(124,537,o),
(121,464,o),
(135,369,c),
(141,327,o),
(139,196,o),
(224,171,c),
(201,148,o),
(190,114,o),
(164,132,c),
(82,167,o),
(35,288,o),
(30,319,c),
(19,404,o),
(26,499,o),
(68,571,c),
(96,620,o),
(170,800,o),
(327,726,c),
(207,687,o),
(109,572,o),
(93,505,c)
);
},
{
closed = 1;
nodes = (
(703,-46,o),
(699,-49,o),
(693,-48,c),
(679,-46,o),
(669,-38,o),
(660,-26,c),
(657,-22,o),
(660,-19,o),
(665,-18,c),
(682,-14,o),
(692,-22,o),
(702,-34,c),
(703,-35,o),
(703,-39,o),
(704,-40,c)
);
},
{
closed = 1;
nodes = (
(489,-20,o),
(270,77,o),
(230,95,c),
(200,101,o),
(174,124,o),
(154,142,c),
(144,154,o),
(144,178,o),
(139,196,c),
(154,196,o),
(169,196,o),
(179,190,c),
(205,178,o),
(246,159,o),
(286,171,c),
(322,177,o),
(388,162,o),
(403,127,c)
);
}
);
width = 600;
},
{
layerId = "0CE0EAA9-F711-497D-909D-736D4C3B0AC1";
shapes = (
{
closed = 1;
nodes = (
(469,216,o),
(470,216,o),
(471,215,c),
(478,223,o),
(485,232,o),
(491,238,c),
(485,232,o),
(476,224,o),
(469,217,c)
);
},
{
closed = 1;
nodes = (
(443,206,o),
(445,205,o),
(446,205,c),
(450,211,o),
(453,219,o),
(458,224,c),
(464,231,o),
(471,235,o),
(477,240,c),
(469,239,o),
(461,238,o),
(453,236,c),
(450,235,o),
(446,232,o),
(445,228,c),
(443,221,o),
(443,213,o),
(442,206,c)
);
},
{
closed = 1;
nodes = (
(378,681,o),
(376,684,o),
(374,689,c),
(375,689,o),
(375,690,o),
(376,691,c),
(391,678,o),
(405,667,o),
(420,654,c),
(420,655,o),
(421,656,o),
(421,656,c),
(412,667,o),
(401,676,o),
(392,685,c),
(389,689,o),
(385,693,o),
(386,695,c),
(389,699,o),
(393,697,o),
(397,696,c),
(428,691,o),
(448,665,o),
(467,642,c),
(505,596,o),
(502,543,o),
(529,492,c),
(549,458,o),
(573,404,o),
(581,362,c),
(588,319,o),
(569,280,o),
(562,239,c),
(562,237,o),
(560,234,o),
(560,232,c),
(561,219,o),
(555,208,o),
(548,198,c),
(537,183,o),
(512,166,o),
(521,141,c),
(529,122,o),
(598,6,o),
(535,14,c),
(515,15,o),
(499,25,o),
(483,36,c),
(446,61,o),
(414,96,o),
(383,128,c),
(361,151,o),
(330,214,o),
(371,238,c),
(398,255,o),
(430,254,o),
(458,267,c),
(498,285,o),
(506,381,o),
(509,418,c),
(512,481,o),
(491,550,o),
(441,592,c),
(407,620,o),
(370,650,o),
(341,683,c),
(340,685,o),
(340,689,o),
(341,691,c),
(341,692,o),
(344,692,o),
(346,692,c),
(356,692,o),
(364,686,o),
(372,681,c),
(374,679,o),
(377,678,o),
(379,677,c),
(379,677,o),
(380,678,o),
(380,678,c)
);
},
{
closed = 1;
nodes = (
(113,573,o),
(151,635,o),
(201,685,c),
(187,664,o),
(174,643,o),
(160,622,c),
(175,648,o),
(201,669,o),
(231,676,c),
(232,664,o),
(224,652,o),
(216,642,c),
(161,563,o),
(136,464,o),
(150,369,c),
(156,327,o),
(166,276,o),
(135,246,c),
(112,223,o),
(72,224,o),
(46,242,c),
(19,261,o),
(5,293,o),
(0,324,c),
(-11,409,o),
(15,509,o),
(57,581,c),
(85,630,o),
(129,673,o),
(184,686,c),
(147,630,o),
(109,572,o),
(93,505,c)
);
},
{
closed = 1;
nodes = (
(703,-46,o),
(699,-49,o),
(693,-48,c),
(679,-46,o),
(669,-38,o),
(660,-26,c),
(657,-22,o),
(660,-19,o),
(665,-18,c),
(682,-14,o),
(692,-22,o),
(702,-34,c),
(703,-35,o),
(703,-39,o),
(704,-40,c)
);
},
{
closed = 1;
nodes = (
(183,104,o),
(176,107,o),
(168,110,c),
(162,111,o),
(157,115,o),
(153,118,c),
(151,120,o),
(151,124,o),
(150,127,c),
(153,127,o),
(156,127,o),
(158,126,c),
(163,124,o),
(168,122,o),
(176,124,c),
(183,125,o),
(187,118,o),
(190,112,c)
);
}
);
width = 600;
}
);
unicode = (81,113);
},
{
glyphname = R;
lastChange = "2025-10-03 15:09:26 +0000";
layers = (
{
layerId = m01;
shapes = (
{
closed = 1;
nodes = (
(404,393,o),
(404,391,o),
(404,390,c),
(404,386,o),
(405,381,o),
(405,376,c),
(405,366,o),
(405,356,o),
(405,347,c),
(405,344,o),
(407,341,o),
(407,338,c),
(408,338,o),
(409,338,o),
(409,338,c),
(408,358,o),
(412,376,o),
(404,395,c)
);
},
{
closed = 1;
nodes = (
(392,405,o),
(391,350,o),
(399,336,c),
(400,339,o),
(400,343,o),
(400,347,c),
(399,369,o),
(397,392,o),
(399,414,c)
);
},
{
closed = 1;
nodes = (
(126,37,o),
(116,25,o),
(103,24,c),
(85,23,o),
(71,39,o),
(62,61,c),
(41,115,o),
(85,292,o),
(80,354,c),
(94,447,o),
(55,502,o),
(110,578,c),
(112,582,o),
(114,585,o),
(118,587,c),
(170,593,o),
(182,582,o),
(185,570,c),
(188,558,o),
(218,590,o),
(189,529,cs),
(173,495,o),
(177,457,o),
(209,405,c),
(243,404,o),
(342,399,o),
(355,430,c),
(376,453,o),
(423,487,o),
(404,524,cs),
(352,623,o),
(436,637,o),
(452,631,c),
(491,596,o),
(526,477,o),
(469,415,cs),
(428,370,o),
(471,181,o),
(503,136,c),
(515,122,o),
(526,107,o),
(532,89,c),
(539,70,o),
(540,46,o),
(531,30,c),
(517,8,o),
(488,10,o),
(470,29,c),
(452,46,o),
(444,74,o),
(435,101,c),
(421,143,o),
(406,185,o),
(381,218,c),
(333,254,o),
(327,275,o),
(281,278,c),
(236,282,o),
(196,284,o),
(182,241,c),
(171,206,o),
(141,148,o),
(141,110,c),
(142,91,o),
(139,70,o),
(133,53,c)
);
},
{
closed = 1;
nodes = (
(212,559,o),
(84,425,o),
(77,473,c),
(75,486,o),
(79,490,o),
(79,502,cs),
(79,503,o),
(78,528,o),
(78,529,cs),
(90,564,o),
(76,780,o),
(413,670,c),
(424,663,o),
(517,597,o),
(420,570,c),
(414,474,o),
(349,700,o),
(225,608,c)
);
},
{
closed = 1;
nodes = (
(436,266,o),
(442,257,o),
(437,247,c),
(431,255,o),
(434,266,o),
(436,275,c)
);
}
);
width = 600;
},
{
layerId = "0CE0EAA9-F711-497D-909D-736D4C3B0AC1";
shapes = (
{
closed = 1;
nodes = (
(404,393,o),
(404,391,o),
(404,390,c),
(404,386,o),
(405,381,o),
(405,376,c),
(405,366,o),
(405,356,o),
(405,347,c),
(405,344,o),
(407,341,o),
(407,338,c),
(408,338,o),
(409,338,o),
(409,338,c),
(408,358,o),
(412,376,o),
(404,395,c)
);
},
{
closed = 1;
nodes = (
(392,405,o),
(391,350,o),
(399,336,c),
(400,339,o),
(400,343,o),
(400,347,c),
(399,369,o),
(397,392,o),
(399,414,c)
);
},
{
closed = 1;
nodes = (
(140,37,o),
(126,25,o),
(107,24,c),
(83,23,o),
(63,39,o),
(51,61,c),
(21,115,o),
(47,182,o),
(55,244,c),
(69,337,o),
(43,441,o),
(98,517,c),
(100,521,o),
(102,524,o),
(106,526,c),
(117,532,o),
(129,521,o),
(132,509,c),
(135,497,o),
(132,485,o),
(134,473,c),
(138,439,o),
(175,418,o),
(209,418,c),
(243,417,o),
(276,431,o),
(308,438,c),
(324,442,o),
(341,444,o),
(357,442,cs),
(375,441,o),
(392,435,o),
(405,424,c),
(444,389,o),
(440,327,o),
(447,281,c),
(456,220,o),
(489,171,o),
(526,123,c),
(539,107,o),
(552,91,o),
(559,72,c),
(566,53,o),
(565,29,o),
(552,14,c),
(533,-7,o),
(496,-1,o),
(475,20,c),
(454,39,o),
(446,68,o),
(437,96,c),
(423,139,o),
(407,183,o),
(379,219,c),
(352,255,o),
(312,284,o),
(266,287,c),
(221,291,o),
(172,265,o),
(158,222,c),
(147,187,o),
(160,148,o),
(161,110,c),
(162,91,o),
(158,70,o),
(149,53,c)
);
},
{
closed = 1;
nodes = (
(170,600,o),
(137,574,o),
(131,603,c),
(130,611,o),
(127,619,o),
(126,626,c),
(126,627,o),
(125,629,o),
(125,630,c),
(129,644,o),
(146,679,o),
(167,670,c),
(175,666,o),
(180,661,o),
(182,656,cs),
(185,648,o),
(183,639,o),
(180,630,c)
);
},
{
closed = 1;
nodes = (
(452,260,o),
(458,250,o),
(452,241,c),
(444,250,o),
(449,260,o),
(452,269,c)
);
}
);
width = 600;
}
);
unicode = (82,114);
},
{
glyphname = S;
lastChange = "2025-10-03 15:09:26 +0000";
layers = (
{
layerId = m01;
shapes = (
{
closed = 1;
nodes = (
(390,275,o),
(389,274,o),
(387,274,c),
(391,256,o),
(395,240,o),
(398,222,c),
(400,222,o),
(401,223,o),
(402,223,c),
(398,240,o),
(395,257,o),
(391,275,c)
);
},
{
closed = 1;
nodes = (
(416,191,o),
(408,239,o),
(400,249,c),
(403,227,o),
(406,204,o),
(410,180,c)
);
},
{
closed = 1;
nodes = (
(134,46,o),
(134,47,o),
(135,47,c),
(143,56,o),
(267,50,o),
(341,131,cs),
(403,199,o),
(102,345,o),
(234,366,c),
(264,363,o),
(308,365,o),
(414,299,cs),
(459,271,o),
(498,204,o),
(486,142,c),
(479,104,o),
(450,73,o),
(420,49,c),
(369,10,o),
(322,-16,o),
(259,-29,c),
(217,-36,o),
(166,-34,o),
(141,1,c),
(129,10,o),
(127,21,o),
(125,31,c),
(124,36,o),
(132,41,o),
(133,45,c)
);
},
{
closed = 1;
nodes = (
(217,631,o),
(217,630,o),
(217,630,c),
(225,607,o),
(214,588,o),
(200,568,c),
(185,549,o),
(167,525,o),
(159,503,c),
(159,453,o),
(331,345,o),
(361,326,cs),
(375,317,o),
(306,246,o),
(284,247,c),
(214,310,o),
(151,313,o),
(74,407,c),
(9,470,o),
(114,624,o),
(180,646,c),
(187,647,o),
(195,650,o),
(201,647,c),
(209,645,o),
(214,638,o),
(216,632,c)
);
},
{
closed = 1;
nodes = (
(269,671,o),
(273,670,o),
(275,670,c),
(294,674,o),
(313,675,o),
(331,679,c),
(335,680,o),
(338,681,o),
(341,682,c),
(342,685,o),
(342,687,o),
(342,689,c),
(339,690,o),
(336,690,o),
(334,690,c),
(328,690,o),
(320,690,o),
(314,689,c),
(306,687,o),
(295,687,o),
(288,686,c),
(280,682,o),
(275,677,o),
(267,672,c)
);
},
{
closed = 1;
nodes = (
(310,601,o),
(312,668,o),
(200,568,cs),
(193,562,o),
(123,603,o),
(129,610,cs),
(162,647,o),
(203,675,o),
(242,683,c),
(357,717,o),
(356,694,o),
(366,669,c)
);
}
);
width = 600;
},
{
layerId = "0CE0EAA9-F711-497D-909D-736D4C3B0AC1";
shapes = (
{
closed = 1;
nodes = (
(390,275,o),
(389,274,o),
(387,274,c),
(391,256,o),
(395,240,o),
(398,222,c),
(400,222,o),
(401,223,o),
(402,223,c),
(398,240,o),
(395,257,o),
(391,275,c)
);
},
{
closed = 1;
nodes = (
(431,192,o),
(423,240,o),
(415,250,c),
(418,228,o),
(421,205,o),
(425,181,c)
);
},
{
closed = 1;
nodes = (
(125,95,o),
(125,98,o),
(126,100,c),
(134,131,o),
(210,157,o),
(230,181,c),
(276,235,o),
(234,348,o),
(334,336,c),
(364,333,o),
(390,317,o),
(414,299,c),
(465,262,o),
(513,205,o),
(501,143,c),
(494,105,o),
(465,74,o),
(435,50,c),
(384,11,o),
(322,-16,o),
(259,-29,c),
(217,-36,o),
(166,-34,o),
(141,1,c),
(129,19,o),
(127,42,o),
(125,64,c),
(124,73,o),
(123,83,o),
(124,92,c)
);
},
{
closed = 1;
nodes = (
(217,631,o),
(217,630,o),
(217,630,c),
(225,607,o),
(214,582,o),
(200,562,c),
(185,543,o),
(167,525,o),
(159,503,c),
(155,493,o),
(153,482,o),
(148,472,c),
(143,463,o),
(133,455,o),
(123,456,c),
(117,456,o),
(111,461,o),
(106,465,c),
(41,528,o),
(114,624,o),
(180,646,c),
(187,647,o),
(195,650,o),
(201,647,c),
(209,645,o),
(214,638,o),
(216,632,c)
);
},
{
closed = 1;
nodes = (
(300,678,o),
(303,677,o),
(304,677,c),
(317,680,o),
(330,681,o),
(342,684,c),
(345,685,o),
(347,686,o),
(349,687,c),
(350,689,o),
(350,691,o),
(350,692,c),
(348,693,o),
(346,693,o),
(344,693,c),
(340,693,o),
(335,693,o),
(331,692,c),
(325,691,o),
(318,691,o),
(313,690,c),
(308,687,o),
(304,683,o),
(299,679,c)
);
},
{
closed = 1;
nodes = (
(366,679,o),
(303,659,o),
(295,657,c),
(291,656,o),
(286,659,o),
(283,661,c),
(284,681,o),
(303,694,o),
(321,700,c),
(341,705,o),
(361,696,o),
(366,676,c)
);
}
);
width = 600;
}
);
unicode = (83,115);
},
{
glyphname = T;
lastChange = "2025-10-03 15:09:26 +0000";
layers = (
{
layerId = m01;
shapes = (
{
closed = 1;
nodes = (
(512,639,o),
(509,630,o),
(505,619,c),
(513,623,o),
(518,639,o),
(514,648,c)
);
},
{
closed = 1;
nodes = (
(489,647,o),
(488,647,o),
(487,646,c),
(478,634,o),
(465,627,o),
(451,620,c),
(448,618,o),
(443,616,o),
(439,615,c),
(426,613,o),
(414,611,o),
(401,609,c),
(404,607,o),
(407,607,o),
(409,608,c),
(423,611,o),
(437,613,o),
(451,615,c),
(468,619,o),
(481,628,o),
(490,642,c),
(491,643,o),
(491,645,o),
(491,648,c)
);
},
{
closed = 1;
nodes = (
(571,618,o),
(568,603,o),
(558,596,c),
(544,589,o),
(527,585,o),
(507,583,c),
(448,578,o),
(403,583,o),
(354,562,c),
(333,552,o),
(324,430,o),
(324,337,c),
(323,337,o),
(273,318,o),
(272,317,c),
(257,313,o),
(257,334,o),
(246,343,c),
(234,415,o),
(307,573,o),
(121,562,c),
(96,566,o),
(97,544,o),
(59,544,cs),
(48,544,o),
(34,561,o),
(31,572,c),
(23,608,o),
(59,623,o),
(87,633,c),
(133,650,o),
(180,654,o),
(227,663,c),
(237,664,o),
(246,665,o),
(255,667,c),
(272,669,o),
(290,670,o),
(308,673,c),
(372,681,o),
(441,701,o),
(505,693,c),
(538,688,o),
(570,664,o),
(571,638,c),
(571,636,o),
(571,635,o),
(571,633,c)
);
},
{
closed = 1;
nodes = (
(229,172,o),
(242,415,o),
(253,428,c),
(327,522,o),
(336,223,o),
(347,197,c),
(347,196,o),
(347,196,o),
(347,195,c),
(350,150,o),
(372,53,o),
(334,25,c),
(325,19,o),
(317,9,o),
(306,10,c),
(281,13,o),
(264,38,o),
(254,71,c),
(251,78,o),
(237,171,o),
(241,171,c),
(242,171,o),
(242,171,o),
(243,171,c)
);
}
);
width = 600;
},
{
layerId = "0CE0EAA9-F711-497D-909D-736D4C3B0AC1";
shapes = (
{
closed = 1;
nodes = (
(486,647,o),
(483,638,o),
(479,627,c),
(487,631,o),
(492,647,o),
(488,656,c)
);
},
{
closed = 1;
nodes = (
(463,655,o),
(462,655,o),
(461,654,c),
(452,642,o),
(439,635,o),
(425,628,c),
(422,626,o),
(417,624,o),
(413,623,c),
(400,621,o),
(388,619,o),
(375,617,c),
(378,615,o),
(381,615,o),
(383,616,c),
(397,619,o),
(411,621,o),
(425,623,c),
(442,627,o),
(455,636,o),
(464,650,c),
(465,651,o),
(465,653,o),
(465,656,c)
);
},
{
closed = 1;
nodes = (
(571,618,o),
(568,603,o),
(558,589,c),
(544,572,o),
(527,564,o),
(507,560,c),
(448,549,o),
(403,560,o),
(354,515,c),
(333,494,o),
(319,437,o),
(285,437,c),
(284,437,o),
(283,437,o),
(282,436,c),
(267,432,o),
(258,441,o),
(247,450,c),
(210,485,o),
(170,497,o),
(121,515,c),
(96,524,o),
(68,523,o),
(49,544,c),
(41,552,o),
(34,561,o),
(31,572,c),
(23,608,o),
(59,631,o),
(87,641,c),
(133,658,o),
(180,661,o),
(227,670,c),
(237,671,o),
(246,672,o),
(255,674,c),
(272,676,o),
(290,677,o),
(308,680,c),
(372,688,o),
(441,708,o),
(505,700,c),
(538,695,o),
(570,671,o),
(571,638,c),
(571,636,o),
(571,635,o),
(571,633,c)
);
},
{
closed = 1;
nodes = (
(196,172,o),
(242,355,o),
(253,368,c),
(327,462,o),
(352,223,o),
(368,197,c),
(368,196,o),
(368,196,o),
(368,195,c),
(373,150,o),
(405,53,o),
(349,25,c),
(336,19,o),
(325,9,o),
(309,10,c),
(272,13,o),
(247,38,o),
(232,71,c),
(228,78,o),
(208,171,o),
(214,171,c),
(215,171,o),
(215,171,o),
(216,171,c)
);
}
);
width = 600;
}
);
unicode = (84,116);
},
{
glyphname = U;
lastChange = "2025-10-03 15:09:26 +0000";
layers = (
{
layerId = m01;
shapes = (
{
closed = 1;
nodes = (
(130,166,o),
(145,146,o),
(168,157,c),
(149,152,o),
(133,167,o),
(120,207,c)
);
},
{
closed = 1;
nodes = (
(563,504,l),
(563,504,o),
(566,504,o),
(566,504,c),
(566,514,o),
(570,523,o),
(573,533,c),
(573,543,o),
(573,552,o),
(573,561,c),
(570,571,o),
(566,579,o),
(566,589,c),
(566,589,o),
(563,589,o),
(563,589,c)
);
},
{
closed = 1;
nodes = (
(528,556,o),
(521,518,o),
(518,480,c),
(534,518,o),
(547,556,o),
(531,592,c)
);
},
{
closed = 1;
nodes = (
(134,682,o),
(132,653,o),
(125,623,cs),
(118,592,o),
(115,554,o),
(111,519,cs),
(109,501,o),
(110,463,o),
(110,463,cs),
(111,432,ls),
(116,262,o),
(151,188,o),
(228,149,c),
(252,137,o),
(279,130,o),
(303,138,c),
(337,149,o),
(356,183,o),
(368,215,c),
(433,327,o),
(430,491,o),
(458,606,c),
(466,640,o),
(479,675,o),
(506,688,c),
(543,708,o),
(585,666,o),
(602,620,c),
(630,546,o),
(624,460,o),
(609,382,c),
(593,279,o),
(565,218,o),
(509,141,c),
(467,82,o),
(411,26,o),
(339,13,c),
(274,0,o),
(208,25,o),
(151,57,c),
(114,79,o),
(77,106,o),
(52,122,c),
(0,193,o),
(-29,336,o),
(26,608,cs),
(32,637,o),
(15,700,o),
(50,719,cs),
(76,733,o),
(125,728,o),
(131,698,cs)
);
}
);
width = 646;
},
{
layerId = "0CE0EAA9-F711-497D-909D-736D4C3B0AC1";
shapes = (
{
closed = 1;
nodes = (
(154,187,o),
(169,167,o),
(190,155,c),
(173,173,o),
(157,188,o),
(142,205,c)
);
},
{
closed = 1;
nodes = (
(573,502,l),
(573,502,o),
(574,502,o),
(574,502,c),
(574,512,o),
(575,521,o),
(576,531,c),
(576,541,o),
(576,550,o),
(576,559,c),
(575,569,o),
(574,577,o),
(574,587,c),
(574,587,o),
(573,587,o),
(573,587,c)
);
},
{
closed = 1;
nodes = (
(562,554,o),
(560,516,o),
(559,478,c),
(564,516,o),
(568,554,o),
(563,590,c)
);
},
{
closed = 1;
nodes = (
(96,323,o),
(98,311,o),
(102,299,c),
(96,329,o),
(91,360,o),
(86,390,c),
(93,370,o),
(99,348,o),
(106,327,c),
(100,393,l),
(134,314,o),
(173,226,o),
(250,187,c),
(274,175,o),
(301,168,o),
(325,176,c),
(359,187,o),
(378,221,o),
(390,253,c),
(432,365,o),
(428,489,o),
(463,604,c),
(472,638,o),
(489,673,o),
(522,686,c),
(568,706,o),
(620,664,o),
(641,618,c),
(676,544,o),
(669,458,o),
(650,380,c),
(628,286,o),
(586,197,o),
(530,120,c),
(488,61,o),
(432,5,o),
(360,-8,c),
(295,-21,o),
(229,4,o),
(172,36,c),
(135,58,o),
(98,85,o),
(74,120,c),
(22,191,o),
(3,355,o),
(58,429,c),
(66,428,o),
(72,421,o),
(75,414,c),
(81,388,o),
(86,362,o),
(93,335,c)
);
}
);
width = 686;
}
);
unicode = (85,117);
},
{
glyphname = V;
lastChange = "2025-10-03 15:09:26 +0000";
layers = (
{
layerId = m01;
shapes = (
{
closed = 1;
nodes = (
(476,461,o),
(477,468,o),
(479,475,cs),
(491,509,o),
(504,543,o),
(518,576,cs),
(533,609,o),
(541,644,o),
(544,679,cs),
(544,680,o),
(544,681,o),
(545,684,c),
(549,680,o),
(553,679,o),
(558,676,c),
(549,644,o),
(543,612,o),
(533,582,cs),
(521,552,o),
(509,524,o),
(499,494,c),
(508,516,o),
(517,540,o),
(527,562,cs),
(543,593,o),
(550,625,o),
(555,659,c),
(559,673,o),
(571,668,o),
(575,656,cs),
(590,610,o),
(560,569,o),
(550,523,cs),
(539,472,o),
(531,396,o),
(509,323,cs),
(496,281,o),
(478,203,o),
(461,112,cs),
(454,77,o),
(427,36,o),
(363,11,cs),
(349,6,o),
(313,7,o),
(297,11,cs),
(232,28,o),
(230,63,o),
(216,112,cs),
(199,172,o),
(166,201,o),
(148,246,cs),
(86,402,o),
(118,396,o),
(142,402,cs),
(179,414,o),
(267,311,o),
(321,330,cs),
(362,344,o),
(373,397,o),
(390,438,cs),
(400,463,o),
(456,613,o),
(475,630,cs),
(489,643,o),
(515,710,o),
(532,695,cs),
(546,680,o),
(536,653,o),
(534,636,c),
(526,601,o),
(511,569,o),
(499,537,cs),
(489,512,o),
(474,482,o),
(474,455,c)
);
},
{
closed = 1;
nodes = (
(124,602,o),
(125,604,o),
(126,604,c),
(123,613,o),
(120,623,o),
(118,633,c),
(115,633,o),
(115,632,o),
(114,632,c),
(118,623,o),
(121,612,o),
(124,602,c)
);
},
{
closed = 1;
nodes = (
(114,613,l),
(110,624,o),
(106,634,o),
(103,644,c),
(102,643,o),
(102,643,o),
(101,643,c),
(112,613,l)
);
},
{
closed = 1;
nodes = (
(93,673,o),
(93,664,o),
(98,654,c),
(98,660,o),
(98,671,o),
(97,681,c)
);
},
{
closed = 1;
nodes = (
(355,213,o),
(172,304,o),
(142,317,cs),
(117,328,o),
(53,571,o),
(38,595,cs),
(29,610,o),
(23,630,o),
(24,647,cs),
(25,665,o),
(41,688,o),
(58,694,c),
(70,700,o),
(86,694,o),
(96,686,cs),
(122,667,o),
(146,544,o),
(163,517,cs),
(249,381,ls)
);
}
);
width = 600;
},
{
layerId = "0CE0EAA9-F711-497D-909D-736D4C3B0AC1";
shapes = (
{
closed = 1;
nodes = (
(458,424,o),
(459,431,o),
(461,438,cs),
(473,472,o),
(486,506,o),
(500,539,cs),
(515,572,o),
(523,607,o),
(526,642,cs),
(526,643,o),
(526,644,o),
(527,647,c),
(531,643,o),
(535,642,o),
(540,639,c),
(531,607,o),
(525,575,o),
(515,545,cs),
(503,515,o),
(491,487,o),
(481,457,c),
(490,479,o),
(499,503,o),
(509,525,cs),
(525,556,o),
(532,588,o),
(537,622,c),
(541,636,o),
(553,631,o),
(557,619,cs),
(572,573,o),
(561,527,o),
(551,481,cs),
(540,430,o),
(500,270,o),
(491,217,cs),
(484,175,o),
(472,132,o),
(456,92,cs),
(441,59,o),
(423,6,o),
(377,9,cs),
(363,11,o),
(350,16,o),
(337,24,cs),
(291,48,o),
(257,84,o),
(237,131,cs),
(216,175,o),
(212,181,o),
(207,229,cs),
(205,255,o),
(196,308,o),
(220,314,cs),
(257,326,o),
(284,330,o),
(308,343,cs),
(338,360,o),
(373,397,o),
(390,438,cs),
(400,463,o),
(438,576,o),
(457,593,cs),
(471,606,o),
(497,673,o),
(514,658,cs),
(528,643,o),
(518,616,o),
(516,599,c),
(508,564,o),
(493,532,o),
(481,500,cs),
(471,475,o),
(456,445,o),
(456,418,c)
);
},
{
closed = 1;
nodes = (
(124,602,o),
(125,604,o),
(126,604,c),
(123,613,o),
(120,623,o),
(118,633,c),
(115,633,o),
(115,632,o),
(114,632,c),
(118,623,o),
(121,612,o),
(124,602,c)
);
},
{
closed = 1;
nodes = (
(114,613,l),
(110,624,o),
(106,634,o),
(103,644,c),
(102,643,o),
(102,643,o),
(101,643,c),
(112,613,l)
);
},
{
closed = 1;
nodes = (
(93,673,o),
(93,664,o),
(98,654,c),
(98,660,o),
(98,671,o),
(97,681,c)
);
},
{
closed = 1;
nodes = (
(142,566,o),
(130,526,o),
(100,539,cs),
(75,550,o),
(53,571,o),
(38,595,cs),
(29,610,o),
(23,630,o),
(24,647,cs),
(25,665,o),
(41,688,o),
(58,694,c),
(70,700,o),
(86,694,o),
(96,686,cs),
(122,667,o),
(138,638,o),
(142,606,c),
(142,593,ls)
);
}
);
width = 600;
}
);
unicode = (86,118);
},
{
glyphname = W;
lastChange = "2025-10-03 15:09:26 +0000";
layers = (
{
layerId = m01;
shapes = (
{
closed = 1;
nodes = (
(314,-21,o),
(389,85,o),
(408,119,cs),
(443,183,o),
(470,197,o),
(513,130,cs),
(532,101,o),
(573,58,o),
(592,29,cs),
(611,0,o),
(671,-12,o),
(693,21,cs),
(731,77,o),
(766,160,o),
(786,229,cs),
(801,280,o),
(813,331,o),
(816,381,cs),
(818,431,o),
(830,479,o),
(834,529,cs),
(838,559,o),
(837,586,o),
(830,612,cs),
(824,635,o),
(823,667,o),
(801,672,cs),
(757,681,o),
(747,667,o),
(731,648,cs),
(722,636,o),
(713,588,o),
(708,574,cs),
(681,505,o),
(701,488,o),
(683,417,cs),
(672,375,o),
(632,282,o),
(580,281,cs),
(543,280,o),
(493,377,o),
(456,375,cs),
(383,371,o),
(358,253,o),
(309,209,c),
(290,189,o),
(275,171,o),
(252,156,cs),
(229,141,o),
(160,214,o),
(168,188,cs),
(178,156,o),
(245,31,o),
(274,9,cs)
);
},
{
closed = 1;
nodes = (
(219,117,o),
(276,138,o),
(279,141,cs),
(282,144,o),
(226,195,o),
(221,197,cs),
(218,199,o),
(191,214,o),
(180,225,cs),
(171,234,o),
(144,240,o),
(144,220,cs),
(144,194,o),
(203,141,o),
(205,138,cs)
);
},
{
closed = 1;
nodes = (
(272,167,o),
(202,365,o),
(170,332,cs),
(127,287,o),
(163,191,o),
(177,181,cs),
(279,109,o),
(313,190,o),
(295,180,cs)
);
},
{
closed = 1;
nodes = (
(168,188,o),
(191,307,o),
(198,319,cs),
(205,329,o),
(140,453,o),
(140,465,cs),
(139,487,o),
(111,502,o),
(98,518,cs),
(84,534,o),
(38,525,o),
(24,513,cs),
(-5,489,o),
(7,452,o),
(36,427,cs),
(46,419,o),
(142,196,o),
(154,193,cs)
);
},
{
closed = 1;
nodes = (
(713,227,o),
(714,227,o),
(716,225,c),
(704,208,o),
(694,190,o),
(683,174,c),
(664,148,o),
(643,124,o),
(635,92,c),
(635,91,o),
(635,90,o),
(635,90,c),
(631,89,o),
(629,86,o),
(627,87,c),
(625,87,o),
(623,92,o),
(623,93,c),
(627,109,o),
(630,126,o),
(641,138,cs),
(667,166,o),
(694,194,o),
(713,228,c)
);
},
{
closed = 1;
nodes = (
(807,570,o),
(806,575,o),
(805,580,c),
(803,602,o),
(799,617,o),
(793,622,c),
(790,625,o),
(787,626,o),
(784,627,c),
(782,628,o),
(779,628,o),
(777,629,c),
(777,630,o),
(777,632,o),
(777,633,c),
(777,634,o),
(778,635,o),
(778,635,c),
(785,642,o),
(792,640,o),
(799,627,c),
(805,618,o),
(808,590,o),
(807,565,c)
);
},
{
closed = 1;
nodes = (
(665,91,o),
(665,95,o),
(668,99,c),
(677,119,o),
(685,140,o),
(695,159,c),
(735,232,o),
(762,309,o),
(775,391,c),
(781,434,o),
(786,478,o),
(792,521,c),
(793,526,o),
(794,529,o),
(794,532,c),
(789,373,o),
(745,225,o),
(665,87,c)
);
},
{
closed = 1;
nodes = (
(497,307,o),
(495,310,o),
(494,313,c),
(490,326,o),
(483,334,o),
(472,337,c),
(467,339,o),
(462,340,o),
(456,340,c),
(453,341,o),
(448,341,o),
(444,341,c),
(444,342,o),
(444,343,o),
(444,344,c),
(444,344,o),
(446,345,o),
(446,345,c),
(458,349,o),
(471,348,o),
(483,340,c),
(494,335,o),
(499,319,o),
(497,304,c)
);
}
);
width = 836;
},
{
layerId = "0CE0EAA9-F711-497D-909D-736D4C3B0AC1";
shapes = (
{
closed = 1;
nodes = (
(314,-17,o),
(363,28,o),
(397,50,c),
(432,74,o),
(470,88,o),
(513,76,c),
(546,67,o),
(576,44,o),
(608,33,c),
(644,21,o),
(685,18,o),
(719,33,c),
(796,66,o),
(805,161,o),
(810,233,c),
(813,284,o),
(813,335,o),
(816,385,c),
(818,435,o),
(830,483,o),
(834,533,c),
(838,563,o),
(837,590,o),
(830,616,c),
(824,639,o),
(814,658,o),
(801,676,c),
(786,698,o),
(767,689,o),
(751,670,c),
(742,658,o),
(736,644,o),
(731,630,c),
(704,561,o),
(682,492,o),
(664,421,c),
(653,379,o),
(632,317,o),
(580,316,c),
(543,315,o),
(511,338,o),
(474,336,c),
(401,332,o),
(358,257,o),
(309,213,c),
(290,193,o),
(263,187,o),
(240,172,c),
(217,157,o),
(213,134,o),
(221,108,c),
(231,76,o),
(245,35,o),
(274,13,c)
);
},
{
closed = 1;
nodes = (
(141,251,o),
(147,252,o),
(150,255,c),
(152,258,o),
(152,261,o),
(147,263,c),
(144,265,o),
(141,263,o),
(139,266,c),
(137,267,o),
(136,271,o),
(133,270,c),
(124,269,o),
(133,256,o),
(136,254,c)
);
},
{
closed = 1;
nodes = (
(110,301,o),
(125,306,o),
(125,322,c),
(124,339,o),
(111,359,o),
(97,350,c),
(82,339,o),
(83,320,o),
(97,310,c)
);
},
{
closed = 1;
nodes = (
(69,400,o),
(82,406,o),
(89,418,c),
(96,428,o),
(99,442,o),
(99,454,c),
(98,476,o),
(86,497,o),
(73,513,c),
(59,529,o),
(38,529,o),
(24,517,c),
(-5,493,o),
(-9,450,o),
(20,425,c),
(30,417,o),
(43,408,o),
(55,405,c)
);
},
{
closed = 1;
nodes = (
(672,147,o),
(672,147,o),
(672,147,c),
(672,147,o),
(672,164,o),
(672,164,c),
(689,164,o),
(689,164,o),
(689,181,c),
(689,181,o),
(689,181,o),
(689,181,c),
(689,181,o),
(689,181,o),
(689,181,c),
(689,181,o),
(689,181,o),
(689,181,c),
(689,181,o),
(689,164,o),
(689,164,cs),
(689,164,o),
(672,147,o),
(672,147,c)
);
},
{
closed = 1;
nodes = (
(807,588,o),
(806,592,o),
(805,595,c),
(803,612,o),
(799,622,o),
(793,627,cs),
(790,629,o),
(787,630,o),
(784,631,c),
(782,631,o),
(779,631,o),
(777,632,c),
(777,633,o),
(777,634,o),
(777,635,c),
(777,636,o),
(778,637,o),
(778,637,c),
(785,642,o),
(792,640,o),
(799,631,c),
(805,624,o),
(808,603,o),
(807,584,c)
);
},
{
closed = 1;
nodes = (
(665,89,o),
(665,90,o),
(667,93,c),
(675,102,o),
(681,112,o),
(689,121,c),
(721,153,o),
(742,190,o),
(752,227,c),
(757,247,o),
(761,266,o),
(766,286,c),
(767,289,o),
(767,289,o),
(767,291,c),
(763,219,o),
(751,121,o),
(665,87,c)
);
},
{
closed = 1;
nodes = (
(509,291,o),
(509,291,o),
(509,291,c),
(509,291,o),
(509,292,o),
(509,292,c),
(508,292,o),
(508,292,o),
(508,292,c),
(508,292,o),
(508,292,o),
(508,292,c),
(508,292,o),
(508,292,o),
(508,292,c),
(508,292,o),
(508,292,o),
(508,292,c),
(508,292,o),
(508,292,o),
(509,292,c),
(509,292,o),
(509,291,o),
(509,291,c)
);
}
);
width = 836;
}
);
unicode = (87,119);
},
{
glyphname = X;
lastChange = "2025-10-03 15:09:26 +0000";
layers = (
{
layerId = m01;
shapes = (
{
closed = 1;
nodes = (
(605,96,o),
(607,49,o),
(600,41,cs),
(589,28,o),
(577,21,o),
(549,16,cs),
(506,8,o),
(488,36,o),
(471,62,cs),
(455,86,o),
(410,130,o),
(386,146,cs),
(347,173,o),
(331,191,o),
(284,177,cs),
(255,168,o),
(155,-1,o),
(94,10,cs),
(61,16,o),
(-25,46,o),
(44,115,cs),
(157,227,o),
(213,320,o),
(179,359,cs),
(-57,626,o),
(137,452,o),
(136,474,cs),
(135,523,o),
(48,675,o),
(254,451,cs),
(291,410,o),
(347,513,o),
(373,553,cs),
(393,584,o),
(418,614,o),
(443,640,cs),
(487,685,o),
(522,712,o),
(548,697,c),
(583,678,o),
(561,624,o),
(553,606,c),
(483,533,o),
(443,514,o),
(403,432,c),
(387,400,o),
(406,330,o),
(424,300,c),
(448,263,o),
(470,225,o),
(505,200,cs),
(549,168,o),
(592,155,o),
(603,105,cs)
);
},
{
closed = 1;
nodes = (
(-26,617,o),
(-8,661,o),
(21,651,c),
(54,640,o),
(153,568,o),
(161,533,cs),
(165,517,o),
(200,451,o),
(194,437,c),
(192,432,o),
(136,410,o),
(89,470,cs),
(68,496,o),
(-15,557,o),
(-21,593,c)
);
},
{
closed = 1;
nodes = (
(486,582,o),
(486,582,o),
(486,582,c),
(486,582,o),
(486,585,o),
(487,585,c),
(491,591,o),
(498,601,o),
(504,610,c),
(505,611,o),
(502,614,o),
(500,615,c),
(492,618,o),
(489,617,o),
(487,614,c),
(482,607,o),
(477,603,o),
(477,597,c),
(474,594,o),
(475,589,o),
(476,582,c),
(479,584,o),
(484,581,o),
(486,582,c)
);
},
{
closed = 1;
nodes = (
(536,635,o),
(538,638,o),
(542,644,c),
(540,650,o),
(542,658,o),
(541,663,c),
(542,669,o),
(535,667,o),
(531,662,c),
(526,652,o),
(520,644,o),
(515,639,c),
(512,632,o),
(513,625,o),
(517,625,cs),
(521,624,o),
(524,626,o),
(531,631,cs)
);
},
{
closed = 1;
nodes = (
(425,257,o),
(425,257,o),
(425,257,c),
(425,257,o),
(420,264,o),
(419,268,c),
(410,288,o),
(391,330,o),
(374,369,c),
(373,372,o),
(368,371,o),
(368,366,c),
(366,349,o),
(369,338,o),
(375,325,c),
(387,297,o),
(396,271,o),
(405,262,c),
(412,244,o),
(419,239,o),
(430,227,c),
(424,242,o),
(427,250,o),
(425,257,c)
);
}
);
width = 600;
},
{
layerId = "0CE0EAA9-F711-497D-909D-736D4C3B0AC1";
shapes = (
{
closed = 1;
nodes = (
(638,96,o),
(637,51,o),
(632,41,c),
(622,13,o),
(594,0,o),
(566,4,c),
(534,10,o),
(507,36,o),
(490,62,c),
(474,86,o),
(463,111,o),
(448,134,c),
(422,172,o),
(379,200,o),
(332,186,c),
(303,177,o),
(266,158,o),
(237,170,c),
(213,180,o),
(201,207,o),
(201,233,c),
(201,278,o),
(222,316,o),
(198,359,c),
(187,378,o),
(182,400,o),
(181,422,c),
(180,471,o),
(244,458,o),
(273,461,c),
(328,467,o),
(346,517,o),
(371,557,c),
(392,588,o),
(418,614,o),
(443,640,c),
(486,686,o),
(541,712,o),
(567,697,c),
(602,678,o),
(607,628,o),
(599,610,c),
(563,518,o),
(472,483,o),
(432,401,c),
(416,369,o),
(425,330,o),
(443,300,c),
(467,263,o),
(502,236,o),
(537,211,c),
(581,179,o),
(625,155,o),
(636,105,c)
);
},
{
closed = 1;
nodes = (
(-2,606,o),
(11,634,o),
(40,624,c),
(73,613,o),
(114,587,o),
(121,552,c),
(126,536,o),
(122,518,o),
(116,504,c),
(114,499,o),
(111,491,o),
(93,496,c),
(59,506,o),
(9,546,o),
(3,582,c)
);
},
{
closed = 1;
nodes = (
(488,591,o),
(488,591,o),
(488,591,c),
(488,591,o),
(488,592,o),
(488,592,c),
(490,595,o),
(494,600,o),
(497,605,c),
(497,605,o),
(496,607,o),
(495,607,c),
(491,608,o),
(489,608,o),
(488,607,c),
(486,603,o),
(483,601,o),
(483,598,c),
(482,597,o),
(482,594,o),
(483,591,c),
(484,592,o),
(487,591,o),
(488,591,c)
);
},
{
closed = 1;
nodes = (
(544,624,o),
(548,627,o),
(553,635,c),
(551,643,o),
(553,654,o),
(552,661,c),
(553,669,o),
(544,666,o),
(538,660,c),
(532,646,o),
(523,635,o),
(517,628,c),
(513,619,o),
(514,609,o),
(519,609,cs),
(525,608,o),
(528,612,o),
(538,617,c)
);
},
{
closed = 1;
nodes = (
(397,301,o),
(397,301,o),
(397,301,c),
(397,301,o),
(397,301,o),
(397,301,c),
(398,300,o),
(398,298,o),
(399,297,c),
(399,297,o),
(399,297,o),
(399,297,c),
(399,298,o),
(399,298,o),
(399,299,c),
(398,300,o),
(398,300,o),
(398,301,c),
(398,301,o),
(397,302,o),
(397,302,c),
(397,301,o),
(397,301,o),
(397,301,c)
);
}
);
width = 600;
}
);
unicode = (88,120);
},
{
glyphname = Y;
lastChange = "2025-10-03 15:09:26 +0000";
layers = (
{
layerId = m01;
shapes = (
{
closed = 1;
nodes = (
(190,491,o),
(251,431,o),
(286,451,cs),
(344,486,o),
(367,549,o),
(386,608,cs),
(406,672,o),
(449,761,o),
(513,704,cs),
(560,663,o),
(478,541,o),
(465,489,cs),
(448,419,o),
(406,366,o),
(406,297,cs),
(406,237,o),
(449,133,o),
(434,76,cs),
(422,32,o),
(373,16,o),
(331,0,cs),
(318,-5,o),
(298,0,o),
(280,29,cs),
(255,73,o),
(249,168,o),
(249,216,cs),
(249,250,o),
(253,319,o),
(167,368,cs),
(55,432,o),
(24,450,o),
(24,561,cs),
(24,591,o),
(50,653,o),
(129,561,cs)
);
},
{
closed = 1;
nodes = (
(436,545,o),
(436,545,o),
(436,545,c),
(436,545,o),
(437,549,o),
(438,549,c),
(442,558,o),
(450,575,o),
(457,589,c),
(457,590,o),
(456,594,o),
(455,594,c),
(451,595,o),
(449,593,o),
(446,588,c),
(441,578,o),
(437,571,o),
(435,562,c),
(432,557,o),
(432,552,o),
(430,542,c),
(433,546,o),
(435,542,o),
(436,545,c)
);
},
{
closed = 1;
nodes = (
(485,632,o),
(490,637,o),
(492,646,cs),
(493,654,o),
(496,665,o),
(497,672,c),
(499,680,o),
(494,676,o),
(490,668,c),
(484,653,o),
(477,639,o),
(473,631,c),
(469,621,o),
(467,612,o),
(470,612,cs),
(472,613,o),
(474,616,o),
(481,626,cs)
);
},
{
closed = 1;
nodes = (
(388,221,o),
(388,221,o),
(388,221,c),
(388,221,o),
(387,226,o),
(387,229,c),
(386,242,o),
(382,270,o),
(379,297,c),
(379,299,o),
(376,298,o),
(375,294,c),
(370,283,o),
(370,276,o),
(371,267,c),
(373,248,o),
(376,232,o),
(378,224,cs),
(380,212,o),
(382,208,o),
(386,201,c),
(385,211,o),
(389,216,o),
(388,221,c)
);
}
);
width = 600;
},
{
layerId = "0CE0EAA9-F711-497D-909D-736D4C3B0AC1";
shapes = (
{
closed = 1;
nodes = (
(131,475,o),
(194,459,o),
(228,480,c),
(285,513,o),
(287,594,o),
(324,645,c),
(361,702,o),
(446,721,o),
(493,655,cs),
(528,605,o),
(509,531,o),
(496,480,cs),
(479,411,o),
(452,345,o),
(438,278,c),
(428,220,o),
(407,166,o),
(392,110,c),
(381,66,o),
(352,22,o),
(310,5,c),
(298,1,o),
(260,-4,o),
(243,24,c),
(218,68,o),
(229,119,o),
(226,166,c),
(226,199,o),
(214,232,o),
(196,261,c),
(159,316,o),
(102,357,o),
(79,422,c),
(69,449,o),
(84,464,o),
(106,470,c)
);
},
{
closed = 1;
nodes = (
(414,504,o),
(414,504,o),
(414,504,c),
(414,504,o),
(414,508,o),
(417,508,c),
(417,516,o),
(419,532,o),
(419,546,c),
(419,547,o),
(414,550,o),
(411,549,c),
(403,549,o),
(401,547,o),
(401,542,c),
(398,533,o),
(398,525,o),
(401,518,cs),
(401,513,o),
(401,509,o),
(406,500,c),
(409,504,o),
(417,501,o),
(414,504,c)
);
},
{
closed = 1;
nodes = (
(441,589,o),
(446,594,o),
(443,602,cs),
(438,609,o),
(435,619,o),
(430,625,c),
(427,632,o),
(422,627,o),
(422,620,c),
(422,606,o),
(419,592,o),
(417,585,c),
(417,575,o),
(422,567,o),
(427,568,cs),
(430,570,o),
(433,573,o),
(438,583,cs)
);
},
{
closed = 1;
nodes = (
(358,214,o),
(358,214,o),
(358,214,c),
(358,214,o),
(360,223,o),
(362,226,c),
(368,245,o),
(382,287,o),
(395,327,c),
(396,330,o),
(394,331,o),
(391,326,c),
(381,313,o),
(378,302,o),
(373,290,c),
(364,262,o),
(357,238,o),
(354,226,cs),
(348,206,o),
(347,199,o),
(346,187,c),
(351,202,o),
(357,207,o),
(358,214,c)
);
}
);
width = 600;
}
);
unicode = (89,121);
},
{
glyphname = Z;
lastChange = "2025-10-03 15:09:26 +0000";
layers = (
{
layerId = m01;
shapes = (
{
closed = 1;
nodes = (
(141,206,o),
(265,299,o),
(317,345,cs),
(346,371,o),
(380,428,o),
(412,449,cs),
(455,477,o),
(492,532,o),
(483,587,cs),
(478,624,o),
(504,675,o),
(476,687,cs),
(429,706,o),
(363,695,o),
(313,690,cs),
(227,682,o),
(165,689,o),
(78,675,cs),
(65,673,o),
(-27,668,o),
(-2,593,cs),
(6,569,o),
(60,549,o),
(82,548,c),
(159,544,o),
(300,578,o),
(366,607,cs),
(389,617,o),
(400,594,o),
(399,567,cs),
(397,538,o),
(363,513,o),
(343,481,cs),
(327,457,o),
(307,415,o),
(285,401,cs),
(229,366,o),
(152,315,o),
(102,273,cs),
(52,230,o),
(12,201,o),
(44,131,cs),
(64,89,o),
(92,14,o),
(155,16,c),
(187,18,o),
(335,4,o),
(363,18,cs),
(408,41,o),
(513,20,o),
(561,33,cs),
(608,47,o),
(658,112,o),
(610,202,cs),
(567,282,o),
(224,99,o),
(168,172,cs)
);
},
{
closed = 1;
nodes = (
(587,141,o),
(587,141,o),
(584,141,c),
(572,140,o),
(562,147,o),
(562,152,c),
(557,165,o),
(554,179,o),
(549,192,c),
(547,195,o),
(547,197,o),
(552,198,c),
(557,199,o),
(564,197,o),
(567,196,c),
(572,194,o),
(574,192,o),
(577,190,c),
(587,178,o),
(592,165,o),
(592,155,c),
(592,152,o),
(592,144,o),
(587,142,c)
);
},
{
closed = 1;
nodes = (
(525,130,o),
(525,130,o),
(524,130,c),
(519,130,o),
(514,133,o),
(514,135,c),
(512,141,o),
(511,147,o),
(509,153,c),
(508,154,o),
(508,155,o),
(510,155,c),
(512,156,o),
(515,155,o),
(516,154,c),
(519,153,o),
(519,153,o),
(521,152,c),
(525,146,o),
(527,141,o),
(527,137,c),
(527,135,o),
(527,132,o),
(525,131,c)
);
},
{
closed = 1;
nodes = (
(453,642,o),
(453,642,o),
(452,642,c),
(447,642,o),
(442,645,o),
(442,647,c),
(440,653,o),
(439,659,o),
(437,665,c),
(436,666,o),
(436,667,o),
(438,667,c),
(440,668,o),
(443,667,o),
(444,666,c),
(447,665,o),
(447,665,o),
(449,664,c),
(453,658,o),
(455,653,o),
(455,649,c),
(455,647,o),
(455,644,o),
(453,643,c)
);
}
);
width = 600;
},
{
layerId = "0CE0EAA9-F711-497D-909D-736D4C3B0AC1";
shapes = (
{
closed = 1;
nodes = (
(413,307,o),
(418,358,o),
(413,400,c),
(409,439,o),
(419,462,o),
(449,486,c),
(489,517,o),
(544,570,o),
(552,624,c),
(559,661,o),
(523,677,o),
(494,687,c),
(446,701,o),
(389,707,o),
(340,695,c),
(254,677,o),
(187,649,o),
(102,628,c),
(89,625,o),
(15,615,o),
(35,587,c),
(50,568,o),
(100,564,o),
(122,565,c),
(199,568,o),
(260,642,o),
(342,624,c),
(366,618,o),
(390,601,o),
(392,574,c),
(393,545,o),
(398,517,o),
(388,489,c),
(377,463,o),
(354,443,o),
(333,427,c),
(281,387,o),
(230,345,o),
(184,299,c),
(136,253,o),
(92,173,o),
(131,107,c),
(153,66,o),
(237,0,o),
(299,7,c),
(331,12,o),
(351,52,o),
(378,70,c),
(420,96,o),
(464,117,o),
(510,134,c),
(556,152,o),
(648,191,o),
(648,213,c),
(648,240,o),
(505,208,o),
(443,275,c)
);
},
{
closed = 1;
nodes = (
(556,166,o),
(556,166,o),
(556,166,c),
(556,166,o),
(557,165,o),
(557,165,c),
(557,165,o),
(557,164,o),
(557,164,c),
(557,163,o),
(557,163,o),
(557,163,c),
(557,163,o),
(557,163,o),
(557,163,c),
(556,163,o),
(556,164,o),
(556,164,c),
(556,164,o),
(556,165,o),
(556,165,c),
(556,165,o),
(556,166,o),
(556,166,c)
);
},
{
closed = 1;
nodes = (
(509,195,o),
(509,195,o),
(509,195,c),
(509,195,o),
(510,195,o),
(510,194,c),
(510,194,o),
(510,193,o),
(510,192,c),
(511,192,o),
(511,192,o),
(510,192,c),
(510,192,o),
(510,192,o),
(510,192,c),
(509,192,o),
(509,192,o),
(509,192,c),
(509,193,o),
(508,194,o),
(508,194,c),
(508,194,o),
(508,195,o),
(509,195,c)
);
},
{
closed = 1;
nodes = (
(502,611,o),
(502,611,o),
(500,611,c),
(492,611,o),
(482,615,o),
(482,620,c),
(479,632,o),
(477,645,o),
(473,657,c),
(471,659,o),
(471,662,o),
(476,662,c),
(479,664,o),
(484,662,o),
(485,659,c),
(492,657,o),
(492,657,o),
(496,655,c),
(502,643,o),
(506,632,o),
(506,625,c),
(506,620,o),
(506,613,o),
(502,611,c)
);
}
);
width = 600;
}
);
unicode = (90,122);
},
{
glyphname = zero;
lastChange = "2023-05-19 01:57:35 +0000";
layers = (
{
layerId = m01;
shapes = (
{
closed = 1;
nodes = (
(264,512,o),
(249,469,o),
(249,452,cs),
(249,416,o),
(241,318,o),
(245,281,c),
(246,265,o),
(247,249,o),
(247,233,c),
(247,175,o),
(240,93,o),
(304,111,cs),
(317,113,o),
(346,138,o),
(394,183,cs),
(425,211,o),
(440,248,o),
(443,260,c),
(448,270,o),
(493,257,o),
(495,242,c),
(475,-63,o),
(205,-63,o),
(138,83,c),
(113,173,o),
(102,243,o),
(107,328,c),
(107,336,o),
(107,342,o),
(107,349,c),
(107,353,o),
(108,358,o),
(109,363,c),
(109,365,o),
(110,367,o),
(110,369,c),
(116,417,o),
(129,513,o),
(152,551,c),
(155,553,o),
(180,598,o),
(254,577,cs),
(260,576,o),
(271,544,o),
(269,536,cs)
);
},
{
closed = 1;
nodes = (
(115,506,o),
(196,684,o),
(266,698,c),
(297,703,o),
(329,718,o),
(360,717,c),
(393,717,o),
(429,701,o),
(458,688,c),
(499,670,o),
(503,570,o),
(511,539,cs),
(490,518,o),
(488,471,o),
(445,516,cs),
(442,526,o),
(430,564,o),
(407,580,cs),
(400,585,o),
(400,597,o),
(381,609,cs),
(357,626,o),
(321,622,o),
(298,602,c),
(281,587,o),
(238,412,o),
(157,404,c),
(152,402,o),
(148,401,o),
(145,402,c),
(141,403,o),
(139,406,o),
(138,409,c)
);
},
{
closed = 1;
nodes = (
(467,456,o),
(417,494,o),
(481,515,cs),
(537,533,o),
(512,354,o),
(494,314,cs),
(470,258,o),
(455,277,o),
(452,288,cs),
(450,294,o),
(467,361,o),
(467,374,cs)
);
},
{
closed = 1;
nodes = (
(447,495,o),
(430,564,o),
(429,570,c),
(511,740,o),
(538,449,o),
(500,396,c),
(461,392,o),
(444,461,o),
(447,495,c)
);
},
{
closed = 1;
nodes = (
(331,128,o),
(434,221,o),
(434,237,cs),
(434,241,o),
(467,361,o),
(467,361,cs),
(492,399,o),
(488,391,o),
(497,386,cs),
(507,382,o),
(528,125,o),
(411,136,cs)
);
},
{
closed = 1;
nodes = (
(322,95,o),
(308,99,o),
(304,92,c),
(346,57,o),
(423,205,o),
(346,121,cs),
(340,115,ls)
);
},
{
closed = 1;
nodes = (
(468,675,o),
(457,682,o),
(453,682,c),
(424,682,o),
(489,616,o),
(472,662,cs),
(471,665,ls)
);
}
);
width = 600;
},
{
layerId = "0CE0EAA9-F711-497D-909D-736D4C3B0AC1";
shapes = (
{
closed = 1;
nodes = (
(192,455,o),
(184,435,o),
(196,414,c),
(216,378,o),
(211,315,o),
(216,274,c),
(217,257,o),
(220,240,o),
(221,222,c),
(223,177,o),
(256,77,o),
(323,96,c),
(362,108,o),
(400,142,o),
(430,164,c),
(435,169,o),
(439,172,o),
(445,176,c),
(451,180,o),
(460,176,o),
(462,170,c),
(510,-40,o),
(171,-78,o),
(97,97,c),
(65,176,o),
(50,246,o),
(56,331,c),
(57,339,o),
(56,345,o),
(57,352,c),
(57,356,o),
(58,361,o),
(59,366,c),
(59,368,o),
(60,370,o),
(60,372,c),
(69,420,o),
(109,503,o),
(171,503,cs),
(174,503,o),
(181,500,o),
(181,500,cs),
(184,499,o),
(189,487,o),
(190,478,c)
);
},
{
closed = 1;
nodes = (
(183,617,o),
(201,698,o),
(270,715,c),
(300,722,o),
(331,725,o),
(361,724,c),
(393,724,o),
(429,725,o),
(456,703,c),
(496,679,o),
(504,628,o),
(505,584,c),
(505,573,o),
(501,559,o),
(490,556,c),
(483,555,o),
(478,558,o),
(473,562,c),
(445,579,o),
(430,606,o),
(402,623,c),
(366,647,o),
(315,640,o),
(283,613,c),
(257,592,o),
(242,567,o),
(213,552,c),
(209,549,o),
(205,548,o),
(201,550,c),
(198,551,o),
(196,555,o),
(195,559,c)
);
},
{
closed = 1;
nodes = (
(482,368,o),
(488,385,o),
(501,372,c),
(512,363,o),
(510,341,o),
(499,333,c),
(495,330,o),
(484,331,o),
(482,336,c),
(481,340,o),
(481,345,o),
(481,352,c)
);
},
{
closed = 1;
nodes = (
(495,436,o),
(495,436,o),
(495,437,c),
(503,458,o),
(520,419,o),
(499,426,c),
(495,427,o),
(494,431,o),
(495,436,c)
);
},
{
closed = 1;
nodes = (
(474,231,o),
(469,232,o),
(471,232,c),
(471,232,o),
(473,233,o),
(473,233,c),
(473,233,o),
(474,233,o),
(475,233,c),
(477,232,o),
(476,232,o),
(475,232,c)
);
},
{
closed = 1;
nodes = (
(434,118,o),
(431,109,o),
(434,107,c),
(452,89,o),
(434,175,o),
(434,130,cs),
(434,128,ls)
);
},
{
closed = 1;
nodes = (
(467,686,o),
(461,688,o),
(460,688,c),
(447,688,o),
(467,659,o),
(467,680,cs),
(467,681,ls)
);
}
);
width = 600;
}
);
unicode = 48;
},
{
glyphname = one;
lastChange = "2023-05-19 05:47:51 +0000";
layers = (
{
layerId = m01;
shapes = (
{
closed = 1;
nodes = (
(353,128,o),
(355,140,o),
(355,140,c),
(358,146,o),
(357,148,o),
(358,155,c),
(358,158,o),
(358,168,o),
(357,174,c),
(357,183,o),
(357,194,o),
(357,202,c),
(357,205,o),
(357,208,o),
(357,213,c),
(355,216,o),
(355,223,o),
(354,223,c),
(354,223,o),
(354,223,o),
(354,219,c),
(353,211,o),
(355,200,o),
(354,190,c),
(357,178,o),
(357,170,o),
(353,158,c),
(353,155,o),
(350,148,o),
(351,143,c),
(351,140,o),
(349,135,o),
(351,132,c)
);
},
{
closed = 1;
nodes = (
(379,118,o),
(367,163,o),
(364,201,c),
(364,209,o),
(369,229,o),
(360,237,c),
(343,245,o),
(354,253,o),
(349,261,c),
(346,256,o),
(346,251,o),
(345,245,c),
(344,218,o),
(346,194,o),
(349,168,c),
(349,155,o),
(348,143,o),
(348,132,c),
(349,119,o),
(349,95,o),
(355,97,cs),
(357,97,o),
(358,95,o),
(358,95,cs),
(360,95,o),
(360,95,o),
(360,95,cs),
(363,95,o),
(369,90,o),
(369,91,cs)
);
},
{
closed = 1;
nodes = (
(224,243,o),
(228,330,o),
(218,391,cs),
(208,449,o),
(204,478,o),
(201,537,c),
(200,585,o),
(208,655,o),
(228,698,c),
(263,769,o),
(320,688,o),
(344,642,c),
(389,547,o),
(387,420,o),
(402,314,c),
(406,200,o),
(450,63,o),
(351,0,cs),
(306,-29,o),
(263,3,o),
(252,50,c),
(232,93,o),
(225,138,o),
(224,185,c)
);
},
{
closed = 1;
nodes = (
(454,553,o),
(464,560,o),
(464,570,cs),
(464,580,o),
(454,585,o),
(442,585,cs),
(430,585,o),
(420,580,o),
(420,570,cs),
(420,560,o),
(430,553,o),
(442,553,cs)
);
}
);
width = 600;
},
{
layerId = "0CE0EAA9-F711-497D-909D-736D4C3B0AC1";
shapes = (
{
closed = 1;
nodes = (
(268,98,o),
(272,135,o),
(272,137,c),
(273,153,o),
(273,166,o),
(273,182,c),
(274,208,o),
(274,235,o),
(273,260,c),
(273,291,o),
(269,322,o),
(266,353,c),
(264,369,o),
(262,382,o),
(261,399,c),
(259,408,o),
(262,424,o),
(254,431,c),
(251,428,o),
(252,425,o),
(252,419,c),
(254,385,o),
(261,350,o),
(263,315,c),
(266,278,o),
(265,241,o),
(263,204,c),
(262,183,o),
(262,163,o),
(262,142,c),
(261,131,o),
(254,112,o),
(262,103,c)
);
},
{
closed = 1;
nodes = (
(389,131,o),
(372,176,o),
(366,223,c),
(364,235,o),
(367,264,o),
(356,271,c),
(344,278,o),
(352,292,o),
(345,300,c),
(344,294,o),
(344,287,o),
(344,281,c),
(347,246,o),
(352,211,o),
(356,178,c),
(358,162,o),
(359,147,o),
(361,131,c),
(362,118,o),
(358,98,o),
(372,88,c),
(372,110,o),
(369,132,o),
(367,153,c),
(366,155,o),
(366,156,o),
(366,157,c),
(379,135,o),
(372,106,o),
(383,83,c)
);
},
{
closed = 1;
nodes = (
(211,203,o),
(217,253,o),
(215,304,c),
(215,354,o),
(209,404,o),
(208,454,c),
(207,495,o),
(203,545,o),
(223,581,c),
(257,642,o),
(320,583,o),
(343,544,c),
(387,463,o),
(405,370,o),
(420,280,c),
(435,182,o),
(479,47,o),
(368,-9,c),
(324,-32,o),
(266,-2,o),
(242,38,c),
(221,75,o),
(213,113,o),
(212,153,c)
);
},
{
closed = 1;
nodes = (
(430,534,o),
(436,538,o),
(436,544,cs),
(436,549,o),
(430,552,o),
(423,552,cs),
(416,552,o),
(410,549,o),
(410,544,cs),
(410,538,o),
(416,534,o),
(423,534,cs)
);
}
);
width = 600;
}
);
unicode = 49;
},
{
glyphname = two;
lastChange = "2023-05-19 05:45:36 +0000";
layers = (
{
background = {
shapes = (
{
closed = 1;
nodes = (
(311,669,o),
(312,669,o),
(314,667,c),
(316,665,o),
(318,663,o),
(319,661,c),
(319,658,o),
(318,657,o),
(314,656,c),
(312,654,o),
(307,655,o),
(303,657,c),
(299,659,o),
(289,673,o),
(307,670,cs)
);
}
);
};
layerId = m01;
shapes = (
{
closed = 1;
nodes = (
(651,56,o),
(650,56,o),
(649,56,c),
(653,45,o),
(658,34,o),
(662,24,c),
(663,24,o),
(664,24,o),
(665,24,c),
(664,35,o),
(659,46,o),
(651,56,c)
);
},
{
closed = 1;
nodes = (
(621,59,o),
(620,59,o),
(619,59,c),
(622,48,o),
(626,37,o),
(631,25,c),
(637,33,o),
(631,54,o),
(622,59,c)
);
},
{
closed = 1;
nodes = (
(570,-9,o),
(535,-6,o),
(497,-1,c),
(447,6,o),
(396,8,o),
(347,9,c),
(297,10,o),
(247,4,o),
(197,4,c),
(141,3,o),
(92,6,o),
(51,28,c),
(14,50,o),
(4,142,o),
(44,154,cs),
(95,169,o),
(119,166,o),
(155,179,cs),
(230,202,o),
(282,293,o),
(340,409,cs),
(360,448,o),
(380,355,o),
(376,321,cs),
(361,136,o),
(261,165,o),
(327,132,cs),
(354,118,o),
(608,107,o),
(657,86,c),
(694,72,o),
(720,39,o),
(688,15,c),
(669,2,o),
(637,-11,o),
(608,-10,c)
);
},
{
closed = 1;
nodes = (
(347,573,o),
(344,624,o),
(295,620,cs),
(200,612,o),
(103,580,o),
(107,612,c),
(125,642,o),
(208,683,o),
(277,691,cs),
(356,700,o),
(481,628,o),
(473,537,cs),
(469,497,o),
(365,518,o),
(359,537,cs)
);
},
{
closed = 1;
nodes = (
(386,619,o),
(481,628,o),
(479,521,cs),
(477,431,o),
(430,299,o),
(363,212,cs),
(247,62,o),
(300,281,o),
(304,313,cs),
(310,365,o),
(361,470,o),
(350,573,c),
(357,582,o),
(348,587,o),
(356,591,c)
);
},
{
closed = 1;
nodes = (
(137,644,o),
(223,615,o),
(190,602,cs),
(108,570,o),
(147,426,o),
(68,418,c),
(16,445,o),
(69,593,o),
(130,633,cs)
);
},
{
closed = 1;
nodes = (
(371,96,o),
(372,96,o),
(373,97,c),
(372,97,o),
(372,98,o),
(370,97,c),
(353,100,o),
(331,123,o),
(315,107,cs),
(314,106,o),
(312,101,o),
(315,98,cs),
(327,86,o),
(350,92,o),
(370,96,c)
);
},
{
closed = 1;
nodes = (
(365,667,o),
(368,646,o),
(379,636,c),
(389,626,o),
(397,614,o),
(405,613,c),
(417,607,o),
(426,611,o),
(426,615,cs),
(426,618,o),
(423,623,o),
(418,629,c),
(413,635,o),
(411,636,o),
(395,647,cs)
);
},
{
closed = 1;
nodes = (
(129,359,o),
(125,352,o),
(129,345,cs),
(133,340,o),
(135,334,o),
(140,341,cs),
(146,348,o),
(150,355,o),
(149,362,cs),
(146,367,o),
(146,370,o),
(138,370,c)
);
}
);
width = 705;
},
{
layerId = "0CE0EAA9-F711-497D-909D-736D4C3B0AC1";
shapes = (
{
closed = 1;
nodes = (
(647,74,o),
(646,74,o),
(644,74,c),
(650,57,o),
(659,38,o),
(665,21,c),
(666,21,o),
(668,21,o),
(669,21,c),
(669,40,o),
(660,58,o),
(647,74,c)
);
},
{
closed = 1;
nodes = (
(619,80,o),
(617,79,o),
(616,79,c),
(620,62,o),
(627,44,o),
(634,25,c),
(644,37,o),
(634,71,o),
(620,80,c)
);
},
{
closed = 1;
nodes = (
(570,-30,o),
(535,-26,o),
(497,-17,c),
(447,-6,o),
(396,-3,o),
(347,-1,c),
(297,0,o),
(247,-9,o),
(197,-10,c),
(156,-11,o),
(116,-7,o),
(92,29,c),
(71,65,o),
(68,118,o),
(100,151,c),
(129,180,o),
(177,182,o),
(214,194,c),
(249,206,o),
(280,225,o),
(305,252,c),
(336,286,o),
(367,304,o),
(409,276,c),
(450,249,o),
(442,189,o),
(484,163,c),
(562,119,o),
(608,157,o),
(657,124,c),
(694,100,o),
(720,47,o),
(688,8,c),
(669,-13,o),
(637,-34,o),
(608,-32,c)
);
},
{
closed = 1;
nodes = (
(270,636,o),
(266,631,o),
(263,625,c),
(252,608,o),
(129,580,o),
(131,612,c),
(139,642,o),
(168,636,o),
(205,685,c),
(213,691,o),
(222,695,o),
(232,694,c),
(254,693,o),
(272,663,o),
(271,642,c)
);
},
{
closed = 1;
nodes = (
(364,576,o),
(375,534,o),
(376,525,c),
(379,510,o),
(382,483,o),
(380,464,cs),
(378,451,o),
(373,442,o),
(364,442,cs),
(358,442,o),
(332,522,o),
(341,557,c),
(342,561,o),
(343,565,o),
(347,566,c)
);
},
{
closed = 1;
nodes = (
(39,493,o),
(38,487,o),
(34,480,cs),
(30,471,o),
(23,461,o),
(17,457,c),
(-9,446,o),
(0,493,o),
(33,493,cs)
);
},
{
closed = 1;
nodes = (
(452,107,o),
(453,107,o),
(454,107,c),
(453,108,o),
(453,109,o),
(451,109,c),
(436,120,o),
(417,137,o),
(398,139,c),
(397,137,o),
(398,135,o),
(399,134,c),
(413,120,o),
(431,110,o),
(451,107,c)
);
},
{
closed = 1;
nodes = (
(230,661,o),
(235,647,o),
(237,645,c),
(239,643,o),
(242,642,o),
(243,644,c),
(245,645,o),
(246,646,o),
(246,649,c),
(245,651,o),
(244,653,o),
(243,655,c),
(242,657,o),
(241,657,o),
(239,658,cs)
);
},
{
closed = 1;
nodes = (
(129,359,o),
(125,352,o),
(129,345,cs),
(133,340,o),
(135,334,o),
(140,341,cs),
(146,348,o),
(150,355,o),
(149,362,cs),
(146,367,o),
(146,370,o),
(138,370,c)
);
}
);
width = 705;
}
);
unicode = 50;
},
{
glyphname = three;
lastChange = "2023-05-19 03:56:40 +0000";
layers = (
{
layerId = m01;
shapes = (
{
closed = 1;
nodes = (
(605,221,o),
(605,221,o),
(605,220,c),
(605,194,o),
(599,168,o),
(588,145,c),
(574,117,o),
(558,105,o),
(531,90,c),
(502,77,o),
(471,70,o),
(442,62,c),
(410,53,o),
(377,45,o),
(343,36,c),
(293,24,o),
(231,4,o),
(180,20,cs),
(144,32,o),
(125,31,o),
(103,62,c),
(95,75,o),
(91,93,o),
(97,111,c),
(109,137,o),
(134,158,o),
(162,164,c),
(195,171,o),
(227,164,o),
(259,160,c),
(290,157,o),
(322,152,o),
(354,148,c),
(390,145,o),
(442,160,o),
(453,237,cs),
(455,249,o),
(453,261,o),
(448,272,c),
(437,298,o),
(402,307,o),
(378,308,c),
(357,308,o),
(327,309,o),
(317,312,cs),
(308,315,o),
(282,330,o),
(280,348,c),
(275,375,o),
(377,451,o),
(388,499,cs),
(399,548,o),
(442,517,o),
(442,495,cs),
(442,465,o),
(421,449,o),
(431,415,cs),
(438,391,o),
(455,388,o),
(477,373,c),
(525,341,o),
(560,336,o),
(590,282,c),
(600,263,o),
(605,243,o),
(605,222,c)
);
},
{
closed = 1;
nodes = (
(83,539,o),
(83,556,o),
(95,564,cs),
(150,600,o),
(198,643,o),
(247,660,cs),
(277,673,o),
(369,674,o),
(353,648,cs),
(326,605,o),
(314,625,o),
(266,612,cs),
(242,607,o),
(202,559,o),
(190,545,cs),
(158,509,o),
(99,532,o),
(91,535,c)
);
},
{
closed = 1;
nodes = (
(74,430,o),
(4,463,o),
(43,514,c),
(150,637,o),
(228,589,o),
(195,551,cs),
(173,516,o),
(150,464,o),
(116,449,cs)
);
},
{
closed = 1;
nodes = (
(381,641,o),
(272,608,o),
(244,629,c),
(258,669,o),
(385,692,o),
(434,593,c),
(480,535,o),
(412,407,o),
(393,379,cs),
(387,370,o),
(353,333,o),
(313,336,cs),
(295,337,o),
(296,380,o),
(303,391,cs),
(332,436,o),
(370,536,o),
(370,567,c)
);
},
{
closed = 1;
nodes = (
(431,380,o),
(438,380,o),
(441,381,c),
(443,381,o),
(428,393,o),
(428,393,c),
(423,396,o),
(419,400,o),
(417,404,c),
(415,408,o),
(412,411,o),
(409,410,c),
(405,410,o),
(404,405,o),
(405,401,c),
(407,392,o),
(415,386,o),
(421,381,c),
(423,380,o),
(424,379,o),
(426,380,c),
(428,380,o),
(429,383,o),
(428,383,c)
);
},
{
closed = 1;
nodes = (
(556,201,o),
(547,175,o),
(543,166,c),
(531,141,o),
(521,140,o),
(523,137,c),
(527,136,o),
(529,136,o),
(533,138,c),
(536,139,o),
(539,144,o),
(543,149,c),
(544,154,o),
(547,163,o),
(548,165,c),
(550,166,o),
(546,156,o),
(547,155,c),
(550,156,o),
(551,158,o),
(552,160,c),
(563,177,o),
(570,198,o),
(571,218,c),
(571,220,o),
(570,224,o),
(569,225,c),
(568,224,o),
(567,221,o),
(566,219,c),
(564,210,o),
(561,201,o),
(557,193,c),
(556,190,o),
(556,189,o),
(555,186,c),
(554,185,o),
(558,199,o),
(557,200,c)
);
}
);
width = 661;
},
{
layerId = "0CE0EAA9-F711-497D-909D-736D4C3B0AC1";
shapes = (
{
closed = 1;
nodes = (
(634,212,o),
(634,212,o),
(634,211,c),
(634,185,o),
(628,159,o),
(617,136,c),
(603,108,o),
(575,82,o),
(548,67,c),
(519,54,o),
(488,47,o),
(459,39,c),
(427,30,o),
(394,22,o),
(360,13,c),
(310,1,o),
(248,-20,o),
(197,-3,c),
(161,8,o),
(125,35,o),
(103,66,c),
(88,91,o),
(77,127,o),
(90,155,c),
(102,181,o),
(127,202,o),
(155,208,c),
(188,215,o),
(220,208,o),
(252,204,c),
(283,201,o),
(315,196,o),
(347,192,c),
(383,189,o),
(428,204,o),
(446,237,c),
(452,248,o),
(453,261,o),
(448,272,c),
(437,298,o),
(402,307,o),
(378,308,c),
(350,308,o),
(322,301,o),
(295,306,c),
(277,308,o),
(257,320,o),
(255,338,c),
(250,365,o),
(281,388,o),
(298,404,c),
(319,422,o),
(360,464,o),
(390,455,c),
(405,452,o),
(412,437,o),
(420,427,c),
(436,406,o),
(455,388,o),
(477,373,c),
(525,341,o),
(589,327,o),
(619,273,c),
(629,254,o),
(634,234,o),
(634,213,c)
);
},
{
closed = 1;
nodes = (
(156,643,o),
(159,649,o),
(165,652,c),
(183,662,o),
(206,661,o),
(224,658,c),
(237,657,o),
(248,646,o),
(237,636,c),
(230,627,o),
(217,624,o),
(207,620,c),
(195,616,o),
(179,609,o),
(167,613,c),
(157,617,o),
(153,627,o),
(155,635,c)
);
},
{
closed = 1;
nodes = (
(23,437,o),
(14,440,o),
(8,445,c),
(-27,488,o),
(74,501,o),
(50,450,c),
(45,443,o),
(38,440,o),
(31,438,c)
);
},
{
closed = 1;
nodes = (
(408,573,o),
(410,578,o),
(412,584,c),
(416,593,o),
(422,592,o),
(428,584,c),
(435,574,o),
(428,561,o),
(423,552,c),
(421,549,o),
(418,545,o),
(414,545,c),
(412,546,o),
(410,549,o),
(409,552,c),
(408,557,o),
(407,562,o),
(408,567,c)
);
},
{
closed = 1;
nodes = (
(432,371,o),
(443,372,o),
(447,373,c),
(450,373,o),
(429,390,o),
(429,390,c),
(421,395,o),
(416,400,o),
(412,406,c),
(409,411,o),
(406,416,o),
(401,415,c),
(395,414,o),
(394,407,o),
(395,401,c),
(398,389,o),
(409,380,o),
(418,373,c),
(421,372,o),
(423,370,o),
(426,371,c),
(428,371,o),
(430,375,o),
(429,376,c)
);
},
{
closed = 1;
nodes = (
(552,233,o),
(544,201,o),
(540,190,c),
(528,159,o),
(516,156,o),
(519,153,c),
(524,152,o),
(526,153,o),
(531,155,c),
(534,157,o),
(537,163,o),
(541,170,c),
(542,175,o),
(545,186,o),
(546,189,c),
(548,190,o),
(545,178,o),
(546,177,c),
(549,178,o),
(550,181,o),
(551,184,c),
(562,205,o),
(568,230,o),
(568,254,c),
(568,257,o),
(566,261,o),
(565,262,c),
(563,261,o),
(563,258,o),
(562,255,c),
(560,244,o),
(557,233,o),
(554,223,c),
(553,220,o),
(553,218,o),
(552,215,c),
(551,213,o),
(554,230,o),
(553,232,c)
);
}
);
width = 661;
}
);
unicode = 51;
},
{
glyphname = four;
lastChange = "2023-05-19 05:46:28 +0000";
layers = (
{
background = {
shapes = (
{
closed = 1;
nodes = (
(295,384,o),
(294,384,o),
(296,384,cs),
(297,384,o),
(386,380,o),
(426,395,cs),
(474,413,o),
(569,401,o),
(533,343,cs),
(494,285,o),
(394,332,o),
(418,191,cs),
(447,19,o),
(339,131,o),
(343,199,cs),
(360,380,o),
(205,176,o),
(109,314,c),
(75,403,o),
(180,452,o),
(251,537,cs),
(288,581,o),
(293,592,o),
(318,628,cs),
(326,649,o),
(367,726,o),
(390,726,cs),
(397,726,o),
(403,726,o),
(412,716,cs),
(449,672,o),
(415,672,o),
(415,474,c),
(415,392,o),
(715,396,o),
(382,297,cs),
(271,264,o),
(298,384,o),
(298,384,cs),
(297,384,o),
(298,384,o),
(297,384,cs),
(296,384,o),
(296,384,o),
(296,384,cs)
);
},
{
closed = 1;
nodes = (
(428,94,o),
(444,38,o),
(401,3,cs),
(308,-67,o),
(332,357,o),
(399,210,cs),
(409,190,o),
(426,151,o),
(426,137,cs)
);
}
);
};
layerId = m01;
shapes = (
{
closed = 1;
nodes = (
(229,430,o),
(166,343,o),
(295,356,cs),
(344,361,o),
(386,380,o),
(426,395,cs),
(474,413,o),
(569,401,o),
(533,343,cs),
(494,285,o),
(394,332,o),
(424,191,cs),
(461,19,o),
(325,131,o),
(330,199,cs),
(360,380,o),
(205,176,o),
(109,314,c),
(75,403,o),
(180,452,o),
(251,537,cs),
(288,581,o),
(293,592,o),
(318,628,cs),
(326,649,o),
(367,726,o),
(390,726,cs),
(397,726,o),
(404,727,o),
(412,716,cs),
(445,672,o),
(412,678,o),
(412,558,cs),
(412,540,o),
(414,507,o),
(351,476,cs),
(337,469,o),
(329,479,o),
(308,470,cs),
(285,460,o),
(281,454,o),
(280,454,cs)
);
},
{
closed = 1;
nodes = (
(437,94,o),
(457,38,o),
(403,3,cs),
(286,-67,o),
(316,357,o),
(401,210,cs),
(413,190,o),
(434,151,o),
(434,137,cs)
);
},
{
closed = 1;
nodes = (
(220,346,o),
(210,357,o),
(206,355,c),
(201,350,o),
(222,335,o),
(238,332,cs),
(243,331,o),
(275,332,o),
(270,336,c),
(270,339,o),
(268,339,o),
(267,339,c),
(259,341,o),
(248,338,o),
(238,341,cs)
);
},
{
closed = 1;
nodes = (
(507,381,o),
(494,393,o),
(493,385,c),
(494,381,o),
(497,380,o),
(500,380,c),
(500,380,o),
(507,376,o),
(509,379,c)
);
},
{
closed = 1;
nodes = (
(397,678,o),
(411,681,o),
(405,704,c),
(399,715,o),
(399,708,o),
(397,699,c),
(397,699,o),
(394,691,o),
(396,677,c)
);
},
{
closed = 1;
nodes = (
(397,479,o),
(391,470,o),
(397,459,cs),
(403,450,o),
(405,442,o),
(413,453,cs),
(422,463,o),
(428,474,o),
(426,484,cs),
(422,492,o),
(422,496,o),
(409,496,c)
);
}
);
width = 600;
},
{
layerId = "0CE0EAA9-F711-497D-909D-736D4C3B0AC1";
shapes = (
{
closed = 1;
nodes = (
(221,432,o),
(249,369,o),
(295,363,c),
(344,358,o),
(386,396,o),
(426,416,c),
(474,442,o),
(569,425,o),
(533,345,c),
(521,320,o),
(497,305,o),
(472,296,c),
(407,273,o),
(338,278,o),
(274,255,c),
(216,232,o),
(134,238,o),
(109,304,c),
(75,428,o),
(228,445,o),
(261,522,c),
(276,558,o),
(292,593,o),
(309,628,c),
(317,650,o),
(327,692,o),
(352,700,c),
(357,694,o),
(357,688,o),
(357,680,c),
(357,657,o),
(358,635,o),
(358,611,c),
(359,568,o),
(349,524,o),
(308,503,c),
(288,493,o),
(267,490,o),
(252,475,cs),
(251,474,o),
(251,472,o),
(250,471,c)
);
},
{
closed = 1;
nodes = (
(404,78,o),
(412,30,o),
(389,10,c),
(340,-31,o),
(352,115,o),
(388,131,c),
(405,139,o),
(403,111,o),
(403,103,c)
);
},
{
closed = 1;
nodes = (
(258,353,o),
(254,351,o),
(250,348,c),
(245,340,o),
(267,333,o),
(272,331,c),
(277,331,o),
(305,333,o),
(300,340,c),
(300,344,o),
(298,344,o),
(297,345,c),
(289,348,o),
(274,355,o),
(263,353,c)
);
},
{
closed = 1;
nodes = (
(487,378,o),
(491,399,o),
(482,395,c),
(479,391,o),
(479,388,o),
(481,384,c),
(481,384,o),
(482,375,o),
(486,375,c)
);
},
{
closed = 1;
nodes = (
(343,672,o),
(343,672,o),
(343,672,c),
(343,672,o),
(343,672,o),
(343,672,c),
(343,672,o),
(343,672,o),
(343,672,c)
);
},
{
closed = 1;
nodes = (
(381,437,o),
(378,432,o),
(381,427,cs),
(384,423,o),
(385,419,o),
(389,424,cs),
(393,429,o),
(396,434,o),
(395,439,cs),
(393,443,o),
(393,445,o),
(387,445,c)
);
}
);
width = 600;
}
);
unicode = 52;
},
{
glyphname = five;
lastChange = "2023-05-19 05:47:43 +0000";
layers = (
{
background = {
shapes = (
{
closed = 1;
nodes = (
(244,350,o),
(244,351,o),
(245,351,c),
(243,349,o),
(242,346,o),
(242,344,c),
(247,344,o),
(245,349,o),
(244,350,c)
);
},
{
closed = 1;
nodes = (
(265,362,o),
(260,362,o),
(255,362,c),
(248,353,l),
(255,354,o),
(265,356,o),
(268,361,c)
);
},
{
closed = 1;
nodes = (
(222,332,o),
(222,332,o),
(214,327,c),
(212,325,o),
(209,324,o),
(206,321,c),
(203,321,o),
(200,320,o),
(196,321,c),
(172,321,o),
(162,327,o),
(149,345,c),
(140,353,o),
(132,360,o),
(123,369,cs),
(107,385,o),
(99,404,o),
(101,429,cs),
(103,454,o),
(104,478,o),
(105,503,c),
(107,514,o),
(109,527,o),
(108,540,cs),
(107,547,o),
(105,554,o),
(104,561,cs),
(101,591,o),
(97,632,o),
(126,653,cs),
(132,658,o),
(140,660,o),
(149,661,c),
(183,671,o),
(194,695,o),
(242,702,cs),
(266,706,o),
(293,706,o),
(318,716,cs),
(321,717,o),
(324,721,o),
(329,721,cs),
(391,726,o),
(385,682,o),
(369,677,cs),
(349,673,o),
(302,663,o),
(282,658,cs),
(264,654,o),
(249,644,o),
(232,636,c),
(202,616,o),
(173,620,o),
(165,593,cs),
(160,578,o),
(158,557,o),
(164,542,cs),
(170,528,o),
(174,476,o),
(183,464,c),
(190,441,o),
(205,428,o),
(216,431,cs),
(277,448,o),
(254,461,o),
(314,470,cs),
(324,471,o),
(336,472,o),
(343,470,cs),
(353,467,o),
(362,465,o),
(372,461,cs),
(407,449,o),
(425,425,o),
(444,400,cs),
(460,379,o),
(470,354,o),
(483,332,cs),
(495,310,o),
(499,289,o),
(502,262,cs),
(506,233,o),
(510,203,o),
(507,174,cs),
(506,162,o),
(505,150,o),
(501,138,cs),
(491,113,o),
(482,86,o),
(468,63,c),
(464,58,o),
(460,53,o),
(455,49,cs),
(449,43,o),
(444,37,o),
(437,32,c),
(436,26,o),
(424,21,o),
(411,16,cs),
(399,11,o),
(385,8,o),
(372,5,cs),
(358,2,o),
(348,-2,o),
(333,3,cs),
(314,10,o),
(298,15,o),
(278,19,cs),
(267,21,o),
(256,26,o),
(247,28,cs),
(221,34,o),
(207,38,o),
(187,52,cs),
(163,69,o),
(127,89,o),
(123,124,cs),
(122,141,o),
(132,162,o),
(148,174,cs),
(165,187,o),
(207,201,o),
(235,172,cs),
(265,141,o),
(273,127,o),
(281,130,cs),
(300,134,o),
(342,155,o),
(357,165,cs),
(367,172,o),
(377,181,o),
(380,192,cs),
(383,206,o),
(399,308,o),
(362,334,cs),
(335,353,o),
(318,375,o),
(289,362,cs),
(279,357,o),
(269,353,o),
(261,346,c),
(261,346,o),
(244,328,o),
(234,330,cs)
);
},
{
closed = 1;
nodes = (
(368,122,o),
(362,118,o),
(362,112,cs),
(363,106,o),
(363,102,o),
(369,105,cs),
(375,108,o),
(381,112,o),
(382,117,cs),
(382,123,o),
(383,124,o),
(377,127,c)
);
},
{
closed = 1;
nodes = (
(456,282,o),
(454,284,o),
(453,286,c),
(451,287,o),
(449,289,o),
(450,286,c),
(450,268,o),
(449,250,o),
(446,233,cs),
(441,215,o),
(437,198,o),
(431,181,cs),
(428,175,o),
(426,169,o),
(422,163,c),
(420,158,o),
(415,151,o),
(417,145,c),
(420,140,o),
(426,140,o),
(429,145,c),
(431,146,o),
(433,150,o),
(434,153,cs),
(446,194,o),
(457,234,o),
(455,279,c)
);
},
{
closed = 1;
nodes = (
(465,267,o),
(465,269,o),
(463,271,c),
(463,271,o),
(463,271,o),
(463,270,cs),
(463,255,o),
(461,240,o),
(460,224,cs),
(457,208,o),
(453,193,o),
(450,178,c),
(450,175,o),
(449,172,o),
(447,168,c),
(444,155,ls),
(444,154,o),
(443,152,o),
(443,150,c),
(442,148,o),
(443,144,o),
(444,144,cs),
(448,143,o),
(452,168,o),
(453,175,c),
(455,181,o),
(456,187,o),
(458,194,cs),
(460,202,o),
(461,210,o),
(462,218,cs),
(463,226,o),
(463,234,o),
(465,240,c),
(465,247,o),
(466,256,o),
(465,262,cs)
);
}
);
};
layerId = m01;
shapes = (
{
closed = 1;
nodes = (
(244,350,o),
(244,351,o),
(245,351,c),
(243,349,o),
(242,346,o),
(242,344,c),
(247,344,o),
(245,349,o),
(244,350,c)
);
},
{
closed = 1;
nodes = (
(265,362,o),
(260,362,o),
(255,362,c),
(254,361,o),
(248,353,o),
(248,353,c),
(255,354,o),
(265,356,o),
(268,361,c)
);
},
{
closed = 1;
nodes = (
(222,332,o),
(222,332,o),
(214,327,c),
(212,325,o),
(209,324,o),
(206,321,c),
(203,321,o),
(200,320,o),
(196,321,c),
(172,321,o),
(162,327,o),
(149,345,c),
(140,353,o),
(132,360,o),
(123,369,c),
(107,385,o),
(99,404,o),
(101,429,c),
(103,454,o),
(104,478,o),
(105,503,c),
(107,514,o),
(109,527,o),
(108,540,c),
(107,547,o),
(105,554,o),
(104,561,c),
(101,591,o),
(97,632,o),
(126,653,c),
(132,658,o),
(140,660,o),
(149,661,c),
(183,671,o),
(194,695,o),
(242,702,c),
(266,706,o),
(304,711,o),
(329,721,c),
(332,722,o),
(351,721,o),
(356,721,c),
(375,722,o),
(392,683,o),
(376,678,c),
(356,674,o),
(336,672,o),
(282,658,c),
(264,654,o),
(249,644,o),
(232,636,c),
(195,606,o),
(173,620,o),
(165,593,c),
(160,578,o),
(158,557,o),
(164,542,c),
(170,528,o),
(174,476,o),
(183,464,c),
(190,441,o),
(205,428,o),
(216,431,cs),
(277,448,o),
(254,461,o),
(314,470,cs),
(324,471,o),
(336,472,o),
(343,470,c),
(353,467,o),
(362,465,o),
(372,461,c),
(407,449,o),
(425,425,o),
(444,400,c),
(460,379,o),
(470,354,o),
(483,332,c),
(495,310,o),
(499,289,o),
(502,262,c),
(506,233,o),
(510,203,o),
(507,174,c),
(506,162,o),
(505,150,o),
(501,138,c),
(491,113,o),
(482,86,o),
(468,63,c),
(464,58,o),
(460,53,o),
(455,49,c),
(449,43,o),
(444,37,o),
(437,32,c),
(436,26,o),
(424,21,o),
(411,16,c),
(399,11,o),
(385,8,o),
(372,5,c),
(358,2,o),
(348,-2,o),
(333,3,c),
(314,10,o),
(298,15,o),
(278,19,c),
(267,21,o),
(256,25,o),
(247,28,c),
(225,38,o),
(217,28,o),
(192,48,c),
(165,67,o),
(126,87,o),
(122,125,c),
(121,144,o),
(130,165,o),
(149,176,c),
(167,191,o),
(203,188,o),
(224,183,c),
(245,180,o),
(267,118,o),
(288,134,c),
(312,138,o),
(332,151,o),
(352,163,c),
(365,170,o),
(377,179,o),
(381,192,c),
(385,206,o),
(393,267,o),
(380,317,cs),
(377,328,o),
(318,375,o),
(289,362,c),
(279,357,o),
(269,353,o),
(261,346,c),
(261,346,o),
(244,328,o),
(234,330,cs)
);
},
{
closed = 1;
nodes = (
(369,103,o),
(364,100,o),
(364,94,cs),
(365,89,o),
(365,85,o),
(370,88,cs),
(376,91,o),
(381,94,o),
(382,99,cs),
(382,104,o),
(383,105,o),
(378,108,c)
);
},
{
closed = 1;
nodes = (
(459,240,o),
(457,241,o),
(457,243,c),
(454,243,o),
(452,244,o),
(453,243,c),
(453,230,o),
(452,218,o),
(449,208,c),
(444,196,o),
(439,184,o),
(433,173,c),
(430,169,o),
(429,165,o),
(424,161,c),
(422,158,o),
(417,153,o),
(419,149,c),
(422,146,o),
(429,146,o),
(431,149,c),
(433,150,o),
(436,153,o),
(437,155,c),
(449,182,o),
(460,208,o),
(458,237,c)
);
},
{
closed = 1;
nodes = (
(465,219,o),
(465,219,o),
(464,220,c),
(464,220,o),
(464,220,o),
(464,220,c),
(464,220,o),
(464,220,o),
(464,220,c),
(464,213,o),
(463,206,o),
(462,199,c),
(459,191,o),
(457,184,o),
(454,176,c),
(454,175,o),
(454,174,o),
(452,171,c),
(451,170,o),
(450,168,o),
(450,166,c),
(450,166,o),
(449,164,o),
(449,163,c),
(449,162,o),
(449,161,o),
(450,161,c),
(453,160,o),
(456,171,o),
(457,175,c),
(459,181,o),
(462,189,o),
(463,195,c),
(464,199,o),
(464,203,o),
(465,206,c),
(465,209,o),
(466,214,o),
(465,217,c)
);
},
{
closed = 1;
nodes = (
(101,208,o),
(106,216,o),
(106,228,cs),
(106,240,o),
(101,246,o),
(96,246,cs),
(91,246,o),
(87,240,o),
(87,228,cs),
(87,216,o),
(91,208,o),
(96,208,cs)
);
}
);
width = 600;
},
{
background = {
shapes = (
{
closed = 1;
nodes = (
(480,378,o),
(479,378,o),
(486,368,c),
(531,296,o),
(542,202,o),
(503,127,c),
(490,102,o),
(473,79,o),
(452,61,c),
(431,43,o),
(402,29,o),
(377,18,c),
(354,7,o),
(329,0,o),
(302,-2,c),
(299,-3,o),
(295,-3,o),
(290,-3,c),
(239,-3,o),
(178,20,o),
(172,77,c),
(170,88,o),
(170,99,o),
(173,110,c),
(178,136,o),
(201,153,o),
(226,164,c),
(252,176,o),
(280,183,o),
(303,199,c),
(330,217,o),
(352,240,o),
(370,265,c),
(389,292,o),
(399,324,o),
(413,355,c),
(418,367,o),
(424,387,o),
(437,391,c),
(443,394,o),
(452,365,o),
(452,357,cs),
(452,349,o),
(460,362,o),
(457,303,cs),
(454,244,o),
(454,247,o),
(450,235,cs),
(446,223,o),
(434,214,o),
(443,237,cs),
(452,260,o),
(437,237,o),
(434,223,cs),
(431,209,o),
(419,185,o),
(415,175,cs),
(411,165,o),
(398,136,o),
(412,149,cs),
(426,162,o),
(413,164,o),
(437,171,cs),
(461,178,o),
(451,190,o),
(466,251,cs),
(481,312,o),
(445,407,o),
(468,382,c)
);
},
{
closed = 1;
nodes = (
(273,478,o),
(273,433,o),
(295,452,c),
(309,464,o),
(302,476,o),
(273,483,c)
);
},
{
closed = 1;
nodes = (
(173,451,o),
(178,466,o),
(192,478,c),
(198,484,o),
(208,487,o),
(216,489,c),
(233,493,o),
(250,495,o),
(267,495,c),
(283,495,o),
(299,494,o),
(313,486,c),
(337,472,o),
(332,452,o),
(312,439,c),
(291,425,o),
(270,412,o),
(249,398,c),
(211,374,o),
(176,403,o),
(174,437,c)
);
},
{
closed = 1;
nodes = (
(137,649,o),
(173,634,o),
(172,607,c),
(171,576,o),
(136,590,o),
(136,617,c)
);
},
{
closed = 1;
nodes = (
(307,699,o),
(299,695,o),
(292,697,c),
(293,696,o),
(302,709,o),
(311,704,c)
);
}
);
};
layerId = "0CE0EAA9-F711-497D-909D-736D4C3B0AC1";
shapes = (
{
closed = 1;
nodes = (
(244,373,o),
(244,374,o),
(245,374,c),
(243,372,o),
(242,369,o),
(242,367,c),
(247,367,o),
(245,372,o),
(244,373,c)
);
},
{
closed = 1;
nodes = (
(265,385,o),
(260,385,o),
(255,385,c),
(254,384,o),
(248,376,o),
(248,376,c),
(255,377,o),
(265,379,o),
(268,384,c)
);
},
{
closed = 1;
nodes = (
(233,347,o),
(227,328,o),
(214,316,c),
(212,314,o),
(209,313,o),
(206,310,c),
(203,310,o),
(200,309,o),
(196,310,c),
(172,310,o),
(150,327,o),
(137,345,c),
(128,353,o),
(120,360,o),
(111,369,c),
(95,385,o),
(87,404,o),
(89,429,c),
(91,454,o),
(92,478,o),
(93,503,c),
(95,514,o),
(97,527,o),
(96,540,c),
(95,547,o),
(93,554,o),
(92,561,c),
(89,591,o),
(85,632,o),
(114,653,c),
(120,658,o),
(128,660,o),
(137,661,c),
(171,671,o),
(203,690,o),
(239,696,c),
(257,699,o),
(277,699,o),
(296,707,c),
(298,708,o),
(301,711,o),
(304,711,c),
(319,712,o),
(318,694,o),
(306,690,c),
(291,687,o),
(276,685,o),
(261,681,c),
(247,678,o),
(236,670,o),
(224,663,c),
(201,647,o),
(180,630,o),
(172,603,c),
(167,588,o),
(165,567,o),
(171,552,c),
(177,538,o),
(181,521,o),
(190,509,c),
(206,486,o),
(244,482,o),
(268,476,c),
(286,471,o),
(302,479,o),
(320,477,c),
(329,477,o),
(336,472,o),
(343,470,c),
(353,467,o),
(362,465,o),
(372,461,c),
(407,449,o),
(431,425,o),
(456,400,c),
(476,379,o),
(490,354,o),
(507,332,c),
(522,310,o),
(528,289,o),
(532,262,c),
(537,233,o),
(542,203,o),
(538,174,c),
(537,162,o),
(536,150,o),
(530,138,c),
(517,113,o),
(505,86,o),
(487,63,c),
(482,58,o),
(476,53,o),
(470,49,c),
(462,43,o),
(456,37,o),
(447,32,c),
(436,26,o),
(424,21,o),
(411,16,c),
(399,11,o),
(385,8,o),
(372,5,c),
(358,2,o),
(348,-2,o),
(333,3,c),
(314,10,o),
(298,15,o),
(278,19,c),
(267,21,o),
(256,25,o),
(247,28,c),
(225,38,o),
(206,51,o),
(187,66,c),
(167,80,o),
(137,104,o),
(134,132,c),
(133,146,o),
(140,162,o),
(154,170,c),
(167,181,o),
(183,179,o),
(198,175,c),
(214,173,o),
(232,173,o),
(247,178,c),
(280,186,o),
(308,210,o),
(336,230,c),
(354,243,o),
(371,259,o),
(376,281,c),
(382,306,o),
(373,337,o),
(362,357,c),
(349,388,o),
(318,398,o),
(289,385,c),
(279,380,o),
(269,376,o),
(261,369,c),
(261,369,o),
(237,356,o),
(238,362,c)
);
},
{
closed = 1;
nodes = (
(368,122,o),
(362,118,o),
(362,112,cs),
(363,106,o),
(363,102,o),
(369,105,cs),
(375,108,o),
(381,112,o),
(382,117,cs),
(382,123,o),
(383,124,o),
(377,127,cs)
);
},
{
closed = 1;
nodes = (
(471,282,o),
(469,284,o),
(467,286,c),
(465,287,o),
(462,289,o),
(463,286,c),
(463,268,o),
(462,250,o),
(458,233,c),
(452,215,o),
(446,198,o),
(438,181,c),
(435,175,o),
(432,169,o),
(427,163,c),
(424,158,o),
(418,151,o),
(420,145,c),
(424,140,o),
(432,140,o),
(436,145,c),
(439,146,o),
(441,150,o),
(442,153,c),
(458,194,o),
(473,234,o),
(470,279,c)
);
},
{
closed = 1;
nodes = (
(483,267,o),
(483,269,o),
(481,271,c),
(481,271,o),
(481,271,o),
(481,271,c),
(480,271,o),
(481,270,o),
(481,270,c),
(480,255,o),
(478,240,o),
(476,224,c),
(473,208,o),
(468,193,o),
(464,178,c),
(463,175,o),
(462,172,o),
(460,168,c),
(458,164,o),
(457,160,o),
(456,155,c),
(455,154,o),
(454,152,o),
(454,150,c),
(453,148,o),
(454,144,o),
(456,144,c),
(461,143,o),
(466,168,o),
(468,175,c),
(473,188,o),
(477,203,o),
(479,218,c),
(480,226,o),
(481,234,o),
(483,240,c),
(483,247,o),
(485,256,o),
(483,262,c)
);
},
{
closed = 1;
nodes = (
(120,185,o),
(125,193,o),
(125,205,cs),
(125,217,o),
(120,223,o),
(115,223,cs),
(110,223,o),
(106,217,o),
(106,205,cs),
(106,193,o),
(110,185,o),
(115,185,cs)
);
}
);
width = 600;
}
);
unicode = 53;
},
{
glyphname = six;
lastChange = "2023-05-19 04:42:09 +0000";
layers = (
{
background = {
shapes = (
{
closed = 1;
nodes = (
(395,170,o),
(373,162,o),
(351,159,c),
(310,153,o),
(263,167,o),
(244,208,c),
(242,208,o),
(241,210,o),
(240,212,c),
(227,246,o),
(228,289,o),
(249,320,c),
(272,352,o),
(318,383,o),
(358,380,c),
(395,379,o),
(439,343,o),
(440,305,c),
(440,294,o),
(430,290,o),
(430,279,c),
(431,270,o),
(438,262,o),
(441,253,c),
(448,230,o),
(427,199,o),
(412,184,c)
);
},
{
closed = 1;
nodes = (
(538,355,o),
(532,350,o),
(527,346,c),
(529,356,o),
(528,367,o),
(523,375,c),
(514,363,o),
(520,346,o),
(515,333,c),
(515,349,o),
(522,381,o),
(506,393,c),
(467,423,o),
(424,415,o),
(381,403,c),
(354,396,o),
(322,406,o),
(299,420,c),
(289,426,o),
(292,446,o),
(293,456,c),
(293,469,o),
(295,481,o),
(297,493,c),
(311,562,o),
(350,622,o),
(381,684,c),
(384,690,o),
(386,696,o),
(386,703,c),
(378,747,o),
(234,644,o),
(218,631,c),
(164,587,o),
(143,518,o),
(128,451,c),
(115,400,o),
(98,348,o),
(94,294,c),
(91,253,o),
(110,214,o),
(113,173,c),
(117,140,o),
(105,101,o),
(132,74,c),
(153,50,o),
(189,31,o),
(216,13,c),
(268,-24,o),
(328,-20,o),
(374,24,c),
(415,66,o),
(431,126,o),
(463,173,c),
(482,202,o),
(513,221,o),
(527,251,c),
(541,280,o),
(541,313,o),
(538,344,c)
);
},
{
closed = 1;
nodes = (
(195,222,o),
(195,224,o),
(195,227,c),
(195,232,o),
(193,238,o),
(192,243,c),
(191,251,o),
(190,258,o),
(189,266,c),
(189,274,o),
(188,283,o),
(188,292,c),
(188,299,o),
(191,309,o),
(189,316,c),
(188,318,o),
(186,319,o),
(184,320,c),
(185,323,o),
(198,357,o),
(196,359,c),
(193,364,o),
(165,331,o),
(166,289,c),
(168,262,o),
(178,236,o),
(191,213,c),
(192,209,o),
(197,209,o),
(195,214,c),
(195,216,o),
(195,218,o),
(195,220,c)
);
},
{
closed = 1;
nodes = (
(326,104,o),
(325,109,o),
(321,111,c),
(318,114,o),
(313,114,o),
(309,113,c),
(305,111,o),
(303,106,o),
(303,101,c),
(303,96,o),
(305,92,o),
(308,89,c),
(311,84,o),
(323,75,o),
(327,83,c),
(328,87,o),
(328,91,o),
(327,94,c),
(327,95,o),
(327,98,o),
(326,99,c)
);
}
);
};
layerId = m01;
shapes = (
{
closed = 1;
nodes = (
(401,679,o),
(362,659,o),
(301,514,cs),
(286,465,o),
(315,460,o),
(328,454,cs),
(347,446,o),
(395,450,o),
(395,439,cs),
(395,429,o),
(371,419,o),
(338,419,cs),
(311,419,o),
(276,375,o),
(266,350,cs),
(231,263,o),
(261,231,o),
(267,211,c),
(272,196,o),
(278,182,o),
(290,171,c),
(310,154,o),
(321,149,o),
(337,144,cs),
(349,140,o),
(390,167,o),
(397,177,cs),
(423,215,o),
(458,239,o),
(472,246,cs),
(477,249,o),
(500,263,o),
(502,250,cs),
(505,232,o),
(487,211,o),
(477,184,cs),
(474,175,o),
(424,114,o),
(368,57,cs),
(349,38,o),
(327,28,o),
(304,19,c),
(288,14,o),
(270,10,o),
(253,13,c),
(235,16,o),
(168,3,o),
(125,75,c),
(117,82,o),
(96,132,o),
(96,190,cs),
(96,338,o),
(115,345,o),
(130,427,c),
(158,520,o),
(177,585,o),
(199,605,cs),
(222,626,o),
(243,644,o),
(256,657,cs),
(287,691,o),
(337,722,o),
(384,715,c),
(395,713,o),
(407,708,o),
(405,693,c)
);
},
{
closed = 1;
nodes = (
(530,305,o),
(493,191,o),
(464,169,cs),
(458,165,o),
(394,95,o),
(387,95,cs),
(370,95,o),
(397,174,o),
(422,217,cs),
(427,226,o),
(431,264,o),
(431,273,cs),
(431,282,o),
(434,322,o),
(435,333,c),
(436,342,o),
(433,351,o),
(429,359,c),
(420,375,o),
(391,412,o),
(371,416,cs),
(327,424,o),
(282,436,o),
(285,443,c),
(299,469,o),
(460,451,o),
(479,440,c),
(504,428,o),
(523,406,o),
(528,373,c),
(530,363,o),
(530,353,o),
(530,342,c)
);
},
{
closed = 1;
nodes = (
(298,144,o),
(313,139,o),
(315,147,c),
(315,145,o),
(287,159,o),
(285,160,c),
(277,167,o),
(269,174,o),
(263,183,c),
(260,188,o),
(261,179,o),
(263,175,c),
(272,165,o),
(281,152,o),
(292,147,c)
);
},
{
closed = 1;
nodes = (
(291,133,o),
(298,130,o),
(305,131,c),
(306,131,o),
(315,137,o),
(314,137,c),
(306,137,o),
(297,139,o),
(290,142,c),
(279,145,o),
(273,152,o),
(267,160,c),
(262,166,o),
(257,176,o),
(249,180,c),
(249,180,o),
(249,180,o),
(248,179,c),
(248,179,o),
(247,178,o),
(247,177,c),
(253,162,o),
(262,149,o),
(275,141,c),
(276,141,o),
(281,138,o),
(286,135,c)
);
},
{
closed = 1;
nodes = (
(486,408,o),
(482,402,o),
(482,398,c),
(482,389,o),
(485,382,o),
(486,376,c),
(488,368,o),
(485,360,o),
(485,352,c),
(485,352,o),
(486,340,o),
(490,346,c),
(498,360,o),
(496,384,o),
(490,400,c),
(490,401,o),
(490,402,o),
(490,402,c)
);
},
{
closed = 1;
nodes = (
(343,80,o),
(344,80,o),
(344,80,c),
(344,80,o),
(344,80,o),
(344,81,c),
(344,81,o),
(344,81,o),
(343,81,c),
(343,81,o),
(343,81,o),
(343,81,c),
(343,81,o),
(343,81,o),
(343,81,c),
(343,80,o),
(343,80,o),
(343,80,cs)
);
},
{
closed = 1;
nodes = (
(274,510,o),
(273,506,o),
(272,502,c),
(271,493,o),
(270,487,o),
(271,477,c),
(270,473,o),
(278,452,o),
(279,464,c),
(280,465,o),
(280,468,o),
(279,471,c),
(277,485,o),
(276,496,o),
(279,505,c),
(281,513,o),
(279,521,o),
(275,514,c)
);
},
{
closed = 1;
nodes = (
(501,384,o),
(498,383,o),
(498,380,c),
(498,375,o),
(500,371,o),
(501,366,c),
(502,361,o),
(500,358,o),
(500,353,c),
(500,353,o),
(501,346,o),
(503,348,c),
(509,353,o),
(508,368,o),
(504,379,c),
(504,379,o),
(503,380,o),
(503,380,c)
);
}
);
width = 600;
},
{
layerId = "0CE0EAA9-F711-497D-909D-736D4C3B0AC1";
shapes = (
{
closed = 1;
nodes = (
(295,690,o),
(252,660,o),
(252,537,cs),
(252,488,o),
(290,461,o),
(277,448,c),
(283,445,o),
(286,436,o),
(284,429,c),
(282,422,o),
(278,417,o),
(273,411,c),
(252,389,o),
(225,372,o),
(212,345,c),
(199,318,o),
(205,286,o),
(213,257,c),
(218,237,o),
(225,217,o),
(240,201,c),
(263,177,o),
(299,172,o),
(333,171,c),
(347,170,o),
(363,170,o),
(376,163,c),
(388,156,o),
(398,141,o),
(393,126,c),
(390,119,o),
(384,113,o),
(383,105,c),
(383,97,o),
(389,91,o),
(392,83,c),
(395,70,o),
(386,58,o),
(377,48,c),
(355,25,o),
(329,7,o),
(301,-5,c),
(282,-12,o),
(261,-18,o),
(241,-14,c),
(219,-10,o),
(140,-28,o),
(89,73,c),
(80,83,o),
(55,154,o),
(55,235,cs),
(55,357,o),
(79,345,o),
(97,427,c),
(129,520,o),
(154,567,o),
(164,587,cs),
(175,608,o),
(185,626,o),
(191,639,cs),
(205,672,o),
(232,707,o),
(271,712,c),
(280,714,o),
(290,713,o),
(293,701,c)
);
},
{
closed = 1;
nodes = (
(570,305,o),
(555,271,o),
(520,249,c),
(513,245,o),
(507,240,o),
(499,240,c),
(479,238,o),
(471,263,o),
(464,277,c),
(460,285,o),
(444,294,o),
(444,303,c),
(443,312,o),
(456,322,o),
(457,333,c),
(459,342,o),
(455,351,o),
(450,359,c),
(440,375,o),
(422,391,o),
(424,411,c),
(425,420,o),
(430,428,o),
(434,435,c),
(450,461,o),
(487,451,o),
(510,440,c),
(539,428,o),
(562,406,o),
(568,373,c),
(570,363,o),
(570,353,o),
(570,342,c)
);
},
{
closed = 1;
nodes = (
(213,199,o),
(225,181,o),
(233,190,c),
(230,187,o),
(210,223,o),
(209,226,c),
(205,240,o),
(201,255,o),
(200,270,c),
(199,279,o),
(196,266,o),
(196,260,c),
(198,242,o),
(200,220,o),
(209,205,c)
);
},
{
closed = 1;
nodes = (
(199,190,o),
(204,181,o),
(212,178,c),
(214,176,o),
(227,178,o),
(225,179,c),
(217,185,o),
(209,193,o),
(203,201,c),
(194,212,o),
(192,225,o),
(190,239,c),
(189,250,o),
(190,266,o),
(184,276,c),
(184,276,o),
(184,276,o),
(183,276,c),
(182,276,o),
(181,275,o),
(180,274,c),
(177,252,o),
(179,230,o),
(188,211,c),
(189,209,o),
(192,203,o),
(195,196,c)
);
},
{
closed = 1;
nodes = (
(527,399,o),
(519,391,o),
(520,383,c),
(521,371,o),
(526,360,o),
(528,349,c),
(530,337,o),
(526,326,o),
(525,314,c),
(525,311,o),
(527,294,o),
(533,302,c),
(551,324,o),
(547,362,o),
(537,387,c),
(536,389,o),
(536,391,o),
(535,391,c)
);
},
{
closed = 1;
nodes = (
(351,100,o),
(345,102,o),
(343,96,c),
(342,91,o),
(343,84,o),
(343,78,c),
(343,75,o),
(343,60,o),
(350,65,c),
(351,66,o),
(351,69,o),
(352,70,c),
(352,73,o),
(353,77,o),
(353,80,c),
(354,83,o),
(354,91,o),
(353,95,cs)
);
},
{
closed = 1;
nodes = (
(238,458,o),
(238,457,o),
(236,455,c),
(238,454,o),
(236,450,o),
(239,447,c),
(239,446,o),
(247,441,o),
(247,444,c),
(247,446,o),
(245,446,o),
(245,447,c),
(242,450,o),
(241,455,o),
(242,458,c),
(242,461,o),
(241,463,o),
(238,460,c)
);
},
{
closed = 1;
nodes = (
(533,367,o),
(533,367,o),
(533,367,c),
(533,367,o),
(533,367,o),
(533,367,c),
(533,367,o),
(533,367,o),
(533,367,c),
(533,367,o),
(533,367,o),
(533,367,c),
(532,367,o),
(532,367,o),
(532,367,c),
(532,367,o),
(533,367,o),
(533,367,c)
);
}
);
width = 600;
}
);
unicode = 54;
},
{
glyphname = seven;
lastChange = "2023-05-19 04:58:46 +0000";
layers = (
{
layerId = m01;
shapes = (
{
closed = 1;
nodes = (
(387,60,o),
(387,57,o),
(386,54,c),
(383,43,o),
(379,35,o),
(370,29,c),
(360,20,o),
(345,19,o),
(331,19,c),
(308,19,o),
(282,20,o),
(264,36,c),
(218,72,o),
(241,141,o),
(259,185,c),
(272,216,o),
(281,247,o),
(287,279,c),
(302,369,o),
(333,457,o),
(346,547,c),
(352,583,o),
(350,622,o),
(312,637,c),
(283,649,o),
(249,645,o),
(220,637,c),
(190,630,o),
(162,614,o),
(130,614,c),
(123,614,o),
(114,615,o),
(108,620,c),
(97,628,o),
(99,646,o),
(108,657,c),
(130,682,o),
(169,692,o),
(200,696,c),
(280,706,o),
(357,716,o),
(437,720,c),
(459,722,o),
(484,717,o),
(497,700,c),
(501,694,o),
(505,684,o),
(501,677,c),
(497,670,o),
(490,667,o),
(483,662,c),
(470,652,o),
(459,632,o),
(463,618,c),
(467,619,o),
(467,621,o),
(470,625,c),
(472,628,o),
(474,632,o),
(477,636,c),
(483,643,o),
(494,661,o),
(505,661,c),
(508,661,o),
(511,659,o),
(511,656,c),
(511,654,o),
(510,652,o),
(509,651,c),
(505,644,o),
(501,636,o),
(494,628,c),
(493,627,o),
(490,625,o),
(489,621,c),
(489,621,o),
(493,623,o),
(493,623,c),
(494,624,o),
(497,627,o),
(498,625,c),
(498,624,o),
(498,624,o),
(498,623,c),
(483,568,o),
(471,511,o),
(460,456,c),
(459,448,o),
(457,440,o),
(456,432,c),
(445,373,o),
(427,323,o),
(402,265,c),
(394,248,o),
(386,229,o),
(382,208,c),
(375,161,o),
(398,111,o),
(388,63,c)
);
},
{
closed = 1;
nodes = (
(386,248,o),
(391,253,o),
(386,257,c),
(384,252,o),
(382,248,o),
(381,243,c),
(383,243,o),
(385,244,o),
(387,244,c)
);
},
{
closed = 1;
nodes = (
(359,101,o),
(359,102,o),
(359,103,c),
(358,105,o),
(356,107,o),
(355,108,c),
(354,106,o),
(353,105,o),
(352,102,c),
(351,100,o),
(351,97,o),
(351,93,c),
(351,92,o),
(353,90,o),
(354,90,c),
(355,90,o),
(357,91,o),
(357,92,c),
(358,95,o),
(359,97,o),
(359,100,c)
);
}
);
width = 600;
},
{
layerId = "0CE0EAA9-F711-497D-909D-736D4C3B0AC1";
shapes = (
{
closed = 1;
nodes = (
(414,43,o),
(414,40,o),
(412,37,c),
(408,26,o),
(400,21,o),
(387,15,c),
(373,6,o),
(338,-8,o),
(318,-8,cs),
(285,-8,o),
(245,4,o),
(236,22,cs),
(220,52,o),
(264,142,o),
(280,186,cs),
(292,217,o),
(300,248,o),
(306,280,c),
(325,370,o),
(397,482,o),
(402,608,c),
(405,622,o),
(400,635,o),
(386,645,c),
(343,679,o),
(262,653,o),
(240,649,c),
(216,645,o),
(194,637,o),
(169,637,c),
(163,637,o),
(156,638,o),
(151,640,c),
(143,644,o),
(144,653,o),
(151,659,c),
(169,671,o),
(199,676,o),
(224,678,c),
(287,683,o),
(357,716,o),
(437,720,c),
(459,722,o),
(484,717,o),
(497,700,c),
(501,694,o),
(501,687,o),
(501,679,cs),
(501,671,o),
(502,671,o),
(502,671,c),
(502,671,o),
(502,671,o),
(502,671,c),
(502,671,o),
(502,671,o),
(502,671,c),
(502,671,o),
(502,671,o),
(502,671,c),
(502,671,o),
(502,664,o),
(505,661,cs),
(508,658,o),
(511,659,o),
(511,656,c),
(511,654,o),
(510,652,o),
(509,651,c),
(505,644,o),
(504,638,o),
(504,639,c),
(504,639,o),
(504,639,o),
(504,639,c),
(504,639,o),
(504,639,o),
(504,639,c),
(504,639,o),
(504,639,o),
(504,639,c),
(504,639,o),
(504,639,o),
(504,639,c),
(502,579,o),
(480,509,o),
(469,454,cs),
(467,446,o),
(458,423,o),
(456,417,cs),
(427,317,o),
(429,310,o),
(421,247,cs),
(418,223,o),
(412,199,o),
(412,177,cs),
(412,129,o),
(430,94,o),
(415,46,c)
);
},
{
closed = 1;
nodes = (
(387,132,o),
(384,171,o),
(379,171,cs),
(375,171,o),
(366,140,o),
(372,129,cs),
(373,127,o),
(378,132,o),
(381,132,cs)
);
},
{
closed = 1;
nodes = (
(380,85,o),
(380,87,o),
(380,89,c),
(377,94,o),
(373,98,o),
(371,98,cs),
(367,98,o),
(369,91,o),
(365,87,cs),
(362,83,o),
(362,77,o),
(362,68,c),
(362,66,o),
(367,61,o),
(369,61,c),
(371,61,o),
(374,63,o),
(375,66,cs),
(378,73,o),
(380,77,o),
(380,83,c)
);
}
);
width = 600;
}
);
unicode = 55;
},
{
glyphname = eight;
lastChange = "2023-05-19 05:43:39 +0000";
layers = (
{
layerId = m01;
shapes = (
{
closed = 1;
nodes = (
(299,515,o),
(346,521,o),
(377,540,cs),
(404,557,o),
(420,569,o),
(428,601,cs),
(440,653,o),
(390,681,o),
(341,676,cs),
(323,671,o),
(277,658,o),
(275,634,cs),
(273,628,o),
(267,613,o),
(267,603,cs),
(267,593,o),
(264,591,o),
(264,578,cs),
(263,563,o),
(269,552,o),
(277,541,cs)
);
},
{
closed = 1;
nodes = (
(363,445,o),
(487,301,o),
(497,283,cs),
(507,265,o),
(510,233,o),
(514,209,cs),
(522,158,o),
(484,116,o),
(453,89,cs),
(399,41,o),
(363,24,o),
(295,3,cs),
(276,-3,o),
(252,-8,o),
(231,-5,cs),
(190,-1,o),
(155,22,o),
(126,48,cs),
(108,66,o),
(91,89,o),
(82,116,cs),
(67,165,o),
(88,234,o),
(109,278,cs),
(118,296,o),
(131,311,o),
(143,330,cs),
(154,347,o),
(183,368,o),
(191,389,cs),
(194,416,o),
(181,441,o),
(172,462,cs),
(165,480,o),
(160,496,o),
(165,517,cs),
(170,536,o),
(178,553,o),
(183,572,cs),
(190,590,o),
(189,616,o),
(208,624,cs),
(225,631,o),
(223,654,o),
(234,671,cs),
(244,686,o),
(255,696,o),
(269,707,c),
(291,720,o),
(318,735,o),
(341,737,cs),
(368,741,o),
(442,751,o),
(465,734,cs),
(496,711,o),
(479,677,o),
(484,648,cs),
(491,608,o),
(471,573,o),
(454,535,cs),
(437,499,o),
(410,485,o),
(390,452,cs),
(362,405,o),
(442,366,o),
(434,292,cs),
(434,290,o),
(411,318,o),
(395,324,cs),
(362,337,o),
(310,342,o),
(272,352,cs),
(260,352,o),
(257,352,o),
(243,346,cs),
(234,342,o),
(223,330,o),
(218,319,cs),
(191,261,o),
(195,269,o),
(176,201,c),
(154,198,o),
(154,235,o),
(172,265,cs),
(176,271,o),
(202,292,o),
(197,275,cs),
(177,204,ls),
(174,192,o),
(173,180,o),
(181,159,cs),
(183,154,o),
(189,142,o),
(197,133,cs),
(208,123,o),
(227,113,o),
(246,109,cs),
(265,105,o),
(321,132,o),
(332,139,cs),
(376,167,o),
(400,190,o),
(427,240,cs),
(454,291,o),
(330,422,o),
(346,433,cs)
);
},
{
closed = 1;
nodes = (
(432,341,o),
(402,363,o),
(399,368,cs),
(378,393,o),
(372,436,o),
(393,459,cs),
(416,484,o),
(443,494,o),
(457,526,cs),
(477,565,o),
(484,610,o),
(480,654,cs),
(478,667,o),
(475,680,o),
(478,693,c),
(480,696,o),
(461,732,o),
(465,734,cs),
(473,737,o),
(507,704,o),
(510,698,cs),
(513,691,o),
(523,665,o),
(522,657,cs),
(517,599,o),
(502,505,o),
(440,475,c),
(435,471,o),
(428,469,o),
(422,465,c),
(420,462,o),
(417,459,o),
(415,455,cs),
(411,449,o),
(405,443,o),
(401,436,cs),
(384,412,o),
(427,372,o),
(432,332,c)
);
},
{
closed = 1;
nodes = (
(497,553,o),
(497,554,o),
(497,555,c),
(496,557,o),
(497,560,o),
(497,563,c),
(515,667,l),
(531,665,o),
(521,624,o),
(521,614,cs),
(520,606,o),
(503,550,o),
(499,552,c),
(498,552,l)
);
},
{
closed = 1;
nodes = (
(497,540,o),
(493,518,o),
(485,526,c),
(483,531,o),
(491,540,o),
(495,540,cs)
);
},
{
closed = 1;
nodes = (
(423,137,o),
(431,132,o),
(450,161,cs),
(452,168,o),
(459,179,o),
(463,198,cs),
(463,207,o),
(460,206,o),
(458,204,cs),
(453,202,o),
(456,196,o),
(449,181,cs),
(447,178,o),
(443,169,o),
(436,164,cs),
(420,151,o),
(420,151,o),
(420,146,cs),
(419,142,o),
(421,141,o),
(423,140,cs)
);
}
);
width = 600;
},
{
background = {
shapes = (
{
closed = 1;
nodes = (
(244,559,o),
(282,529,o),
(319,523,c),
(352,518,o),
(372,516,o),
(398,540,c),
(414,555,o),
(422,577,o),
(422,600,c),
(421,626,o),
(414,640,o),
(397,658,c),
(390,666,o),
(380,672,o),
(373,678,c),
(369,683,o),
(365,685,o),
(359,684,c),
(359,684,o),
(357,684,o),
(355,685,c),
(345,688,o),
(337,693,o),
(327,695,c),
(323,696,o),
(319,695,o),
(315,695,c),
(308,694,o),
(304,690,o),
(300,685,c),
(296,680,o),
(295,671,o),
(290,666,c),
(284,661,o),
(275,660,o),
(268,655,c),
(252,641,o),
(244,624,o),
(244,600,c)
);
},
{
closed = 1;
nodes = (
(461,287,o),
(468,283,o),
(474,279,c),
(475,279,o),
(476,278,o),
(476,278,c),
(484,281,o),
(508,268,o),
(515,262,c),
(527,252,o),
(538,237,o),
(544,222,c),
(549,212,o),
(551,201,o),
(552,191,c),
(554,169,o),
(538,138,o),
(523,124,c),
(505,108,o),
(478,96,o),
(458,84,c),
(435,70,o),
(412,56,o),
(389,41,c),
(375,32,o),
(361,21,o),
(346,14,c),
(332,5,o),
(315,3,o),
(298,-1,c),
(282,-4,o),
(267,-10,o),
(251,-13,c),
(241,-14,o),
(231,-12,o),
(222,-9,c),
(185,1,o),
(154,24,o),
(123,46,c),
(99,64,o),
(74,77,o),
(68,110,c),
(63,136,o),
(50,188,o),
(75,205,c),
(88,214,o),
(86,241,o),
(93,255,c),
(103,279,o),
(130,292,o),
(138,316,c),
(144,338,o),
(165,348,o),
(174,367,c),
(179,380,o),
(178,403,o),
(173,416,c),
(163,440,o),
(149,467,o),
(138,490,c),
(131,501,o),
(138,509,o),
(145,518,c),
(160,537,o),
(160,560,o),
(173,581,c),
(179,591,o),
(180,600,o),
(184,610,c),
(192,625,o),
(210,634,o),
(224,640,c),
(252,649,o),
(264,723,o),
(298,710,c),
(302,708,o),
(307,707,o),
(311,705,c),
(319,701,o),
(337,708,o),
(344,712,c),
(371,723,o),
(404,714,o),
(433,713,c),
(433,713,o),
(434,713,o),
(435,713,c),
(444,717,o),
(449,712,o),
(454,705,c),
(458,695,o),
(466,692,o),
(471,681,c),
(491,634,o),
(479,577,o),
(459,533,c),
(449,512,o),
(432,494,o),
(412,481,c),
(378,458,o),
(355,412,o),
(384,367,c),
(391,357,o),
(399,348,o),
(405,338,c),
(407,336,o),
(408,335,o),
(410,332,c),
(399,334,o),
(391,335,o),
(382,336,c),
(362,340,o),
(343,344,o),
(323,345,c),
(319,345,o),
(314,344,o),
(309,344,c),
(300,345,o),
(284,350,o),
(277,344,c),
(273,341,o),
(271,337,o),
(268,335,c),
(265,334,o),
(261,333,o),
(259,332,c),
(250,329,o),
(251,315,o),
(239,317,c),
(239,317,o),
(239,318,o),
(239,318,c),
(225,321,o),
(221,319,o),
(219,306,c),
(212,283,o),
(184,275,o),
(176,253,c),
(165,222,o),
(157,192,o),
(143,162,c),
(142,161,o),
(142,158,o),
(142,156,c),
(143,156,o),
(143,156,o),
(144,155,c),
(150,165,o),
(157,174,o),
(161,183,c),
(164,191,o),
(164,200,o),
(167,208,c),
(172,223,o),
(178,236,o),
(182,251,c),
(185,258,o),
(189,267,o),
(197,270,c),
(199,271,o),
(200,271,o),
(201,270,c),
(203,268,o),
(200,264,o),
(199,262,c),
(193,255,o),
(196,245,o),
(195,237,c),
(193,223,o),
(185,212,o),
(180,198,c),
(178,187,o),
(179,175,o),
(172,166,c),
(160,152,o),
(155,141,o),
(155,122,c),
(154,102,o),
(153,89,o),
(165,72,c),
(169,66,o),
(172,61,o),
(180,61,c),
(183,61,o),
(186,58,o),
(188,56,c),
(195,50,o),
(201,53,o),
(209,52,c),
(222,51,o),
(235,47,o),
(249,51,c),
(260,55,o),
(273,57,o),
(285,60,c),
(299,63,o),
(312,69,o),
(324,77,c),
(330,82,o),
(337,87,o),
(343,92,c),
(348,96,o),
(352,100,o),
(357,105,c),
(367,116,o),
(378,128,o),
(387,139,c),
(404,162,o),
(419,187,o),
(435,210,c),
(449,229,o),
(462,243,o),
(458,269,c),
(458,275,o),
(456,282,o),
(454,290,c),
(455,290,o),
(455,291,o),
(456,291,c)
);
},
{
closed = 1;
nodes = (
(405,364,o),
(398,368,o),
(395,371,c),
(375,394,o),
(377,425,o),
(393,450,c),
(402,463,o),
(418,472,o),
(431,482,c),
(446,494,o),
(455,506,o),
(462,523,c),
(482,563,o),
(490,608,o),
(485,652,c),
(483,669,o),
(476,722,o),
(508,694,c),
(516,688,o),
(510,665,o),
(510,655,c),
(509,640,o),
(509,624,o),
(507,608,c),
(506,601,o),
(503,594,o),
(501,586,c),
(498,574,o),
(496,561,o),
(493,549,c),
(492,546,o),
(491,544,o),
(490,542,c),
(481,530,o),
(489,514,o),
(478,504,c),
(471,496,o),
(465,485,o),
(457,477,c),
(450,472,o),
(442,470,o),
(435,467,c),
(425,462,o),
(425,460,o),
(420,453,c),
(413,440,o),
(399,430,o),
(397,415,c),
(394,399,o),
(403,375,o),
(406,359,c)
);
},
{
closed = 1;
nodes = (
(499,554,o),
(502,560,o),
(503,565,c),
(512,595,o),
(513,625,o),
(518,655,c),
(519,658,o),
(519,662,o),
(519,665,c),
(536,658,o),
(526,624,o),
(526,612,c),
(526,606,o),
(508,548,o),
(505,549,c),
(504,549,o),
(504,549,o),
(503,550,c)
);
},
{
closed = 1;
nodes = (
(501,533,o),
(500,528,o),
(497,524,c),
(496,523,o),
(494,522,o),
(493,522,c),
(492,522,o),
(491,524,o),
(491,525,c),
(489,531,o),
(494,536,o),
(499,538,c)
);
}
);
};
layerId = "0CE0EAA9-F711-497D-909D-736D4C3B0AC1";
shapes = (
{
closed = 1;
nodes = (
(240,562,o),
(279,532,o),
(315,526,cs),
(348,522,o),
(367,520,o),
(393,543,cs),
(436,581,o),
(418,645,o),
(375,676,cs),
(359,687,o),
(316,710,o),
(298,690,cs),
(293,685,o),
(291,678,o),
(287,670,c),
(278,660,o),
(262,658,o),
(254,646,cs),
(244,634,o),
(240,618,o),
(240,603,cs)
);
},
{
closed = 1;
nodes = (
(469,287,o),
(489,281,o),
(506,268,cs),
(526,255,o),
(540,233,o),
(545,209,cs),
(554,158,o),
(518,128,o),
(478,105,cs),
(418,71,o),
(363,24,o),
(295,3,cs),
(276,-3,o),
(252,-8,o),
(231,-5,cs),
(190,-1,o),
(155,22,o),
(124,48,cs),
(100,66,o),
(78,89,o),
(66,116,cs),
(45,165,o),
(73,234,o),
(102,278,cs),
(114,296,o),
(131,311,o),
(143,330,cs),
(154,347,o),
(172,368,o),
(174,389,cs),
(177,416,o),
(160,441,o),
(148,462,cs),
(137,480,o),
(131,496,o),
(138,517,cs),
(145,536,o),
(155,553,o),
(163,572,cs),
(172,590,o),
(182,609,o),
(197,624,cs),
(211,638,o),
(229,647,o),
(240,664,cs),
(250,679,o),
(255,696,o),
(269,707,c),
(291,720,o),
(318,711,o),
(341,713,cs),
(368,717,o),
(395,726,o),
(421,721,cs),
(453,716,o),
(469,683,o),
(474,654,cs),
(481,614,o),
(471,573,o),
(454,535,cs),
(437,499,o),
(396,485,o),
(376,452,cs),
(348,405,o),
(388,378,o),
(403,338,c),
(402,339,o),
(381,340,o),
(377,341,cs),
(343,347,o),
(306,359,o),
(272,343,cs),
(260,337,o),
(250,330,o),
(236,324,cs),
(227,320,o),
(218,319,o),
(211,310,cs),
(180,272,o),
(136,217,o),
(143,163,c),
(167,190,o),
(164,232,o),
(182,262,cs),
(186,268,o),
(190,275,o),
(197,275,c),
(177,204,ls),
(171,182,o),
(157,161,o),
(153,137,cs),
(149,121,o),
(150,102,o),
(158,87,cs),
(170,67,o),
(189,57,o),
(211,55,cs),
(259,48,o),
(307,70,o),
(343,102,cs),
(384,137,o),
(424,190,o),
(446,240,cs),
(453,257,o),
(455,275,o),
(450,292,c)
);
},
{
closed = 1;
nodes = (
(401,368,o),
(393,371,o),
(390,374,cs),
(369,399,o),
(372,436,o),
(393,459,cs),
(416,484,o),
(443,494,o),
(457,526,cs),
(477,565,o),
(484,610,o),
(480,654,cs),
(478,667,o),
(475,680,o),
(478,693,c),
(480,696,o),
(482,701,o),
(486,703,cs),
(494,706,o),
(501,700,o),
(504,694,cs),
(507,687,o),
(507,680,o),
(506,672,cs),
(501,614,o),
(502,505,o),
(440,475,c),
(435,471,o),
(428,469,o),
(422,465,c),
(420,462,o),
(417,459,o),
(415,455,cs),
(411,449,o),
(405,443,o),
(401,436,cs),
(384,412,o),
(396,389,o),
(401,363,c)
);
},
{
closed = 1;
nodes = (
(497,553,o),
(497,554,o),
(497,555,c),
(496,557,o),
(497,560,o),
(497,563,c),
(515,667,l),
(531,665,o),
(521,624,o),
(521,614,cs),
(520,606,o),
(503,550,o),
(499,552,c),
(498,552,l)
);
},
{
closed = 1;
nodes = (
(497,540,o),
(493,518,o),
(485,526,c),
(483,531,o),
(491,540,o),
(495,540,cs)
);
},
{
closed = 1;
nodes = (
(501,207,o),
(501,207,o),
(500,206,cs),
(500,206,o),
(500,205,o),
(500,204,cs),
(500,204,o),
(500,204,o),
(500,204,cs),
(500,204,o),
(500,204,o),
(501,205,cs),
(501,205,o),
(501,206,o),
(501,206,cs),
(501,206,o),
(502,206,o),
(501,206,cs),
(502,207,o),
(501,207,o),
(501,207,cs)
);
}
);
width = 600;
}
);
unicode = 56;
},
{
glyphname = nine;
lastChange = "2023-05-19 06:06:49 +0000";
layers = (
{
layerId = m01;
shapes = (
{
closed = 1;
nodes = (
(398,-8,o),
(379,18,o),
(371,47,cs),
(360,93,o),
(360,143,o),
(366,191,cs),
(369,233,o),
(368,277,o),
(360,295,cs),
(353,346,o),
(207,452,o),
(293,467,cs),
(322,465,o),
(353,470,o),
(369,489,cs),
(408,536,o),
(395,623,o),
(384,666,cs),
(382,672,o),
(342,700,o),
(342,729,cs),
(359,780,o),
(450,741,o),
(477,726,cs),
(560,672,o),
(535,548,o),
(521,497,cs),
(506,450,o),
(498,403,o),
(487,356,cs),
(474,308,o),
(469,259,o),
(467,209,cs),
(465,175,o),
(462,142,o),
(469,108,cs),
(476,75,o),
(487,49,o),
(469,19,cs),
(457,-1,o),
(433,-6,o),
(418,-6,cs)
);
},
{
closed = 1;
nodes = (
(262,686,o),
(269,683,o),
(276,679,c),
(277,677,o),
(280,676,o),
(282,674,c),
(282,671,o),
(270,659,o),
(267,655,cs),
(230,608,o),
(217,570,o),
(227,513,cs),
(229,502,o),
(248,471,o),
(280,466,cs),
(303,442,o),
(286,370,o),
(245,392,cs),
(238,396,o),
(176,427,o),
(170,431,cs),
(155,441,o),
(151,478,o),
(140,494,cs),
(126,528,o),
(117,565,o),
(137,600,cs),
(157,623,o),
(192,701,o),
(254,688,cs)
);
},
{
closed = 1;
nodes = (
(177,655,o),
(232,713,o),
(272,742,cs),
(325,781,o),
(529,751,o),
(512,655,cs),
(439,643,o),
(455,671,o),
(403,683,cs),
(380,690,o),
(374,694,o),
(369,695,cs),
(308,707,o),
(274,669,o),
(262,647,cs),
(245,617,o),
(151,612,o),
(176,652,cs)
);
},
{
closed = 1;
nodes = (
(384,305,o),
(312,359,o),
(291,372,cs),
(267,387,o),
(232,389,o),
(240,421,c),
(250,446,o),
(293,440,o),
(320,425,c),
(350,338,l)
);
},
{
closed = 1;
nodes = (
(445,534,o),
(443,487,o),
(437,458,cs),
(431,420,o),
(423,365,o),
(423,362,cs),
(416,361,o),
(431,346,o),
(431,345,cs),
(431,345,o),
(433,345,o),
(431,345,c),
(430,346,o),
(416,373,o),
(445,457,cs),
(465,493,o),
(469,526,o),
(465,560,c)
);
}
);
width = 600;
},
{
background = {
shapes = (
{
closed = 1;
nodes = (
(350,-11,o),
(346,121,o),
(346,166,c),
(346,182,o),
(357,203,o),
(353,219,c),
(351,231,o),
(354,245,o),
(353,257,c),
(350,285,o),
(351,311,o),
(339,336,c),
(324,368,o),
(309,392,o),
(330,425,c),
(351,457,o),
(377,481,o),
(390,518,c),
(393,526,o),
(396,535,o),
(399,544,c),
(400,547,o),
(399,552,o),
(399,556,c),
(399,580,o),
(400,603,o),
(401,627,c),
(401,636,o),
(402,646,o),
(401,655,c),
(400,666,o),
(392,675,o),
(398,686,c),
(417,717,o),
(480,681,o),
(499,668,c),
(503,666,o),
(507,634,o),
(506,628,c),
(503,619,o),
(506,612,o),
(508,604,c),
(509,602,o),
(509,598,o),
(507,595,c),
(493,565,o),
(517,529,o),
(494,501,c),
(474,477,o),
(486,422,o),
(484,393,c),
(482,362,o),
(474,335,o),
(465,305,c),
(457,280,o),
(458,254,o),
(458,228,c),
(458,197,o),
(446,148,o),
(460,118,c),
(474,86,o),
(474,39,o),
(450,12,c),
(445,6,o),
(439,1,o),
(434,-3,c),
(427,-8,o),
(421,-10,o),
(416,-10,c)
);
},
{
closed = 1;
nodes = (
(223,681,o),
(234,671,o),
(223,659,c),
(220,656,o),
(217,653,o),
(215,650,c),
(194,611,o),
(189,581,o),
(191,536,c),
(191,530,o),
(191,524,o),
(191,519,c),
(191,497,o),
(199,468,o),
(184,449,c),
(170,432,o),
(137,468,o),
(131,478,c),
(126,484,o),
(119,490,o),
(114,497,c),
(110,503,o),
(107,511,o),
(103,517,c),
(90,544,o),
(95,576,o),
(116,599,c),
(128,612,o),
(137,628,o),
(144,646,c),
(145,646,o),
(145,647,o),
(146,648,c),
(164,668,o),
(177,691,o),
(207,684,c)
);
},
{
closed = 1;
nodes = (
(272,733,o),
(301,744,o),
(316,725,c),
(317,724,o),
(319,722,o),
(318,719,c),
(318,716,o),
(316,714,o),
(313,712,c),
(304,705,o),
(293,700,o),
(281,699,c),
(279,699,o),
(276,698,o),
(273,700,c),
(270,701,o),
(268,706,o),
(269,710,c)
);
},
{
closed = 1;
nodes = (
(233,476,o),
(231,474,o),
(229,474,c),
(226,474,o),
(223,476,o),
(223,479,c),
(225,484,o),
(232,481,o),
(234,478,c)
);
}
);
};
layerId = "0CE0EAA9-F711-497D-909D-736D4C3B0AC1";
shapes = (
{
closed = 1;
nodes = (
(389,-8,o),
(366,18,o),
(357,47,cs),
(343,93,o),
(343,143,o),
(350,191,cs),
(354,233,o),
(353,277,o),
(343,320,cs),
(334,357,o),
(304,389,o),
(328,427,cs),
(350,459,o),
(375,488,o),
(389,524,cs),
(403,566,o),
(402,616,o),
(396,659,cs),
(395,667,o),
(394,674,o),
(395,682,cs),
(400,719,o),
(456,698,o),
(475,687,cs),
(536,653,o),
(501,548,o),
(491,497,cs),
(481,450,o),
(481,402,o),
(473,355,cs),
(463,307,o),
(454,259,o),
(452,209,cs),
(451,175,o),
(455,141,o),
(460,107,cs),
(465,74,o),
(473,48,o),
(454,19,cs),
(441,2,o),
(428,-6,o),
(414,-6,cs)
);
},
{
closed = 1;
nodes = (
(212,686,o),
(217,683,o),
(221,679,c),
(222,677,o),
(224,676,o),
(225,674,c),
(225,671,o),
(224,667,o),
(222,663,cs),
(198,616,o),
(183,565,o),
(190,508,cs),
(191,492,o),
(194,474,o),
(188,459,c),
(185,454,o),
(183,448,o),
(178,446,cs),
(172,443,o),
(164,445,o),
(157,448,c),
(142,459,o),
(130,478,o),
(119,494,cs),
(97,528,o),
(82,565,o),
(114,600,cs),
(136,623,o),
(166,701,o),
(207,688,cs)
);
},
{
closed = 1;
nodes = (
(266,714,o),
(266,714,o),
(267,715,c),
(274,740,o),
(323,740,o),
(316,719,cs),
(314,714,o),
(310,712,o),
(307,709,c),
(298,705,o),
(291,701,o),
(282,700,c),
(279,699,o),
(274,699,o),
(270,701,c),
(267,705,o),
(266,708,o),
(266,713,cs)
);
},
{
closed = 1;
nodes = (
(231,478,o),
(230,476,o),
(229,476,cs),
(225,476,o),
(224,477,o),
(223,479,c),
(225,482,o),
(229,482,o),
(232,480,c),
(232,479,l)
);
},
{
closed = 1;
nodes = (
(450,444,o),
(444,411,o),
(436,389,c),
(429,362,o),
(424,335,o),
(421,307,cs),
(416,252,o),
(419,195,o),
(422,141,cs),
(422,146,o),
(424,155,o),
(422,161,c),
(418,236,o),
(417,314,o),
(445,385,cs),
(456,410,o),
(474,430,o),
(471,459,c)
);
}
);
width = 600;
}
);
unicode = 57;
},
